<svg width="98" height="27" viewBox="0 0 98 27" fill="none" xmlns="http://www.w3.org/2000/svg">
<g filter="url(#filter0_b_317_457)">
<path d="M0.1875 26V0.5H24.625V3.15625H3.375V11.6562H23.5625V14.3125H3.375V26H0.1875ZM44.6213 13.1006C44.6213 12.3037 44.5604 11.6452 44.4386 11.125C44.328 10.5938 44.0568 10.1732 43.6252 9.86328C43.1935 9.54232 42.5516 9.32096 41.6994 9.19922C40.8582 9.06641 39.7072 9 38.2463 9C36.8185 9 35.6564 9.12728 34.7599 9.38184C33.8634 9.62533 33.1606 9.97396 32.6515 10.4277C32.1424 10.8815 31.7938 11.4238 31.6056 12.0547C31.4285 12.6855 31.34 13.3883 31.34 14.1631V26H28.1525V6.875H31.34V9.91309C31.4507 9.56999 31.6554 9.19368 31.9543 8.78418C32.2531 8.36361 32.7069 7.97624 33.3156 7.62207C33.9243 7.25684 34.7101 6.95247 35.673 6.70898C36.647 6.46549 37.8589 6.34375 39.3088 6.34375C40.9689 6.34375 42.3192 6.49316 43.3595 6.79199C44.3999 7.07975 45.2078 7.51139 45.7834 8.08691C46.3699 8.65137 46.7629 9.35417 46.9621 10.1953C47.1724 11.0365 47.2775 12.0049 47.2775 13.1006H44.6213ZM60.8988 26.3652C58.7738 26.3652 56.9697 26.2214 55.4866 25.9336C54.0036 25.6348 52.7972 25.1257 51.8675 24.4062C50.9378 23.6868 50.2627 22.724 49.8421 21.5176C49.4215 20.3112 49.2113 18.7949 49.2113 16.9688C49.2113 14.877 49.4215 13.1504 49.8421 11.7891C50.2627 10.4167 50.9378 9.3265 51.8675 8.51855C52.7972 7.71061 54.0036 7.14616 55.4866 6.8252C56.9697 6.50423 58.7738 6.34375 60.8988 6.34375C62.415 6.34375 63.7265 6.45443 64.8333 6.67578C65.9512 6.89714 66.903 7.2181 67.6888 7.63867C68.4857 8.05924 69.1276 8.56836 69.6146 9.16602C70.1126 9.76367 70.5 10.3945 70.7767 11.0586C71.0644 11.7116 71.2581 12.4808 71.3577 13.3662C71.4684 14.2516 71.5238 15.1868 71.5238 16.1719L71.2581 17.2344H52.3988C52.3988 18.6953 52.5426 19.8962 52.8304 20.8369C53.1182 21.7666 53.5941 22.4473 54.2581 22.8789C54.9222 23.3105 55.7965 23.5872 56.8812 23.709C57.9658 23.8197 59.305 23.875 60.8988 23.875C62.3597 23.875 63.5661 23.8363 64.5179 23.7588C65.4808 23.6702 66.2445 23.5098 66.8089 23.2773C67.3734 23.0449 67.7663 22.724 67.9876 22.3145C68.22 21.8939 68.3363 21.3516 68.3363 20.6875H71.5238C71.5238 21.7168 71.3411 22.5967 70.9759 23.3271C70.6217 24.0465 70.0296 24.6331 69.1995 25.0869C68.3695 25.5296 67.2738 25.8506 65.9124 26.0498C64.5622 26.2601 62.8909 26.3652 60.8988 26.3652ZM60.8988 9C59.8363 9 58.8844 9.02214 58.0433 9.06641C57.2132 9.11068 56.4827 9.21029 55.8519 9.36523C55.2321 9.50911 54.7008 9.72493 54.2581 10.0127C53.8154 10.2894 53.4557 10.6214 53.179 11.0088C52.9134 11.3851 52.7142 11.9219 52.5814 12.6191C52.4596 13.3053 52.3988 14.1354 52.3988 15.1094H68.3363C68.3363 13.8145 68.1979 12.8018 67.9212 12.0713C67.6445 11.3298 67.2073 10.721 66.6097 10.2451C66.012 9.76921 65.2428 9.44271 64.3021 9.26562C63.3613 9.08854 62.2269 9 60.8988 9ZM87.27 26.3652C85.145 26.3652 83.341 26.2214 81.8579 25.9336C80.3748 25.6348 79.1684 25.1257 78.2387 24.4062C77.3091 23.6868 76.6339 22.724 76.2134 21.5176C75.7928 20.3112 75.5825 18.7949 75.5825 16.9688C75.5825 14.877 75.7928 13.1504 76.2134 11.7891C76.6339 10.4167 77.3091 9.3265 78.2387 8.51855C79.1684 7.71061 80.3748 7.14616 81.8579 6.8252C83.341 6.50423 85.145 6.34375 87.27 6.34375C88.7863 6.34375 90.0978 6.45443 91.2046 6.67578C92.3224 6.89714 93.2742 7.2181 94.06 7.63867C94.8569 8.05924 95.4988 8.56836 95.9858 9.16602C96.4839 9.76367 96.8712 10.3945 97.1479 11.0586C97.4357 11.7116 97.6294 12.4808 97.729 13.3662C97.8397 14.2516 97.895 15.1868 97.895 16.1719L97.6294 17.2344H78.77C78.77 18.6953 78.9139 19.8962 79.2016 20.8369C79.4894 21.7666 79.9653 22.4473 80.6294 22.8789C81.2934 23.3105 82.1678 23.5872 83.2524 23.709C84.3371 23.8197 85.6762 23.875 87.27 23.875C88.7309 23.875 89.9373 23.8363 90.8891 23.7588C91.852 23.6702 92.6157 23.5098 93.1802 23.2773C93.7446 23.0449 94.1375 22.724 94.3589 22.3145C94.5913 21.8939 94.7075 21.3516 94.7075 20.6875H97.895C97.895 21.7168 97.7124 22.5967 97.3471 23.3271C96.993 24.0465 96.4009 24.6331 95.5708 25.0869C94.7407 25.5296 93.645 25.8506 92.2837 26.0498C90.9334 26.2601 89.2622 26.3652 87.27 26.3652ZM87.27 9C86.2075 9 85.2557 9.02214 84.4145 9.06641C83.5844 9.11068 82.854 9.21029 82.2231 9.36523C81.6033 9.50911 81.0721 9.72493 80.6294 10.0127C80.1867 10.2894 79.827 10.6214 79.5503 11.0088C79.2846 11.3851 79.0854 11.9219 78.9526 12.6191C78.8309 13.3053 78.77 14.1354 78.77 15.1094H94.7075C94.7075 13.8145 94.5692 12.8018 94.2925 12.0713C94.0158 11.3298 93.5786 10.721 92.9809 10.2451C92.3833 9.76921 91.6141 9.44271 90.6733 9.26562C89.7326 9.08854 88.5981 9 87.27 9Z" fill="url(#paint0_linear_317_457)" fill-opacity="0.3"/>
<path d="M0.1875 26H-0.8125C-0.8125 26.5523 -0.364785 27 0.1875 27V26ZM0.1875 0.5V-0.5C-0.364785 -0.5 -0.8125 -0.0522847 -0.8125 0.5H0.1875ZM24.625 0.5H25.625C25.625 -0.0522847 25.1773 -0.5 24.625 -0.5V0.5ZM24.625 3.15625V4.15625C25.1773 4.15625 25.625 3.70853 25.625 3.15625H24.625ZM3.375 3.15625V2.15625C2.82272 2.15625 2.375 2.60397 2.375 3.15625H3.375ZM3.375 11.6562H2.375C2.375 12.2085 2.82272 12.6562 3.375 12.6562V11.6562ZM23.5625 11.6562H24.5625C24.5625 11.104 24.1148 10.6562 23.5625 10.6562V11.6562ZM23.5625 14.3125V15.3125C24.1148 15.3125 24.5625 14.8648 24.5625 14.3125H23.5625ZM3.375 14.3125V13.3125C2.82272 13.3125 2.375 13.7602 2.375 14.3125H3.375ZM3.375 26V27C3.92728 27 4.375 26.5523 4.375 26H3.375ZM1.1875 26V0.5H-0.8125V26H1.1875ZM0.1875 1.5H24.625V-0.5H0.1875V1.5ZM23.625 0.5V3.15625H25.625V0.5H23.625ZM24.625 2.15625H3.375V4.15625H24.625V2.15625ZM2.375 3.15625V11.6562H4.375V3.15625H2.375ZM3.375 12.6562H23.5625V10.6562H3.375V12.6562ZM22.5625 11.6562V14.3125H24.5625V11.6562H22.5625ZM23.5625 13.3125H3.375V15.3125H23.5625V13.3125ZM2.375 14.3125V26H4.375V14.3125H2.375ZM3.375 25H0.1875V27H3.375V25ZM44.6213 13.1006H43.6213C43.6213 13.6529 44.069 14.1006 44.6213 14.1006V13.1006ZM44.4386 11.125L43.4597 11.329C43.4613 11.337 43.4631 11.3449 43.4649 11.3529L44.4386 11.125ZM43.6252 9.86328L43.0285 10.6657C43.0329 10.6691 43.0374 10.6724 43.0419 10.6756L43.6252 9.86328ZM41.6994 9.19922L41.5434 10.187C41.5483 10.1877 41.5531 10.1885 41.558 10.1892L41.6994 9.19922ZM34.7599 9.38184L35.022 10.3469L35.0331 10.3438L34.7599 9.38184ZM31.6056 12.0547L30.6473 11.7689C30.6458 11.7741 30.6443 11.7792 30.6428 11.7844L31.6056 12.0547ZM31.34 26V27C31.8923 27 32.34 26.5523 32.34 26H31.34ZM28.1525 26H27.1525C27.1525 26.5523 27.6002 27 28.1525 27V26ZM28.1525 6.875V5.875C27.6002 5.875 27.1525 6.32272 27.1525 6.875H28.1525ZM31.34 6.875H32.34C32.34 6.32272 31.8923 5.875 31.34 5.875V6.875ZM31.34 9.91309H30.34C30.34 10.4054 30.6983 10.8244 31.1846 10.9009C31.6709 10.9774 32.1406 10.6886 32.2917 10.2201L31.34 9.91309ZM31.9543 8.78418L32.7621 9.3737L32.7694 9.36339L31.9543 8.78418ZM33.3156 7.62207L33.8185 8.4865L33.8301 8.47956L33.3156 7.62207ZM35.673 6.70898L35.4305 5.73884L35.4279 5.7395L35.673 6.70898ZM43.3595 6.79199L43.0834 7.75318L43.0929 7.7558L43.3595 6.79199ZM45.7834 8.08691L45.0763 8.79402C45.0808 8.79855 45.0854 8.80304 45.09 8.80749L45.7834 8.08691ZM46.9621 10.1953L45.9889 10.4258L45.9919 10.4378L46.9621 10.1953ZM47.2775 13.1006V14.1006C47.8298 14.1006 48.2775 13.6529 48.2775 13.1006H47.2775ZM45.6213 13.1006C45.6213 12.2606 45.5578 11.5188 45.4123 10.8971L43.4649 11.3529C43.5629 11.7715 43.6213 12.3468 43.6213 13.1006H45.6213ZM45.4176 10.921C45.2571 10.1504 44.8482 9.51032 44.2084 9.05096L43.0419 10.6756C43.2654 10.836 43.3989 11.0371 43.4597 11.329L45.4176 10.921ZM44.2219 9.06082C43.5993 8.59787 42.7691 8.34188 41.8408 8.20927L41.558 10.1892C42.3341 10.3 42.7878 10.4868 43.0285 10.6657L44.2219 9.06082ZM41.8553 8.21146C40.9389 8.06675 39.7281 8 38.2463 8V10C39.6862 10 40.7776 10.0661 41.5434 10.187L41.8553 8.21146ZM38.2463 8C36.7696 8 35.506 8.13045 34.4868 8.41987L35.0331 10.3438C35.8068 10.1241 36.8674 10 38.2463 10V8ZM34.4978 8.4168C33.5032 8.68695 32.645 9.09396 31.9862 9.68122L33.3169 11.1742C33.6762 10.854 34.2237 10.5637 35.022 10.3469L34.4978 8.4168ZM31.9862 9.68122C31.3438 10.2538 30.8905 10.9537 30.6473 11.7689L32.5639 12.3405C32.6971 11.894 32.941 11.5093 33.3169 11.1742L31.9862 9.68122ZM30.6428 11.7844C30.4371 12.5175 30.34 13.3131 30.34 14.1631H32.34C32.34 13.4636 32.42 12.8536 32.5684 12.3249L30.6428 11.7844ZM30.34 14.1631V26H32.34V14.1631H30.34ZM31.34 25H28.1525V27H31.34V25ZM29.1525 26V6.875H27.1525V26H29.1525ZM28.1525 7.875H31.34V5.875H28.1525V7.875ZM30.34 6.875V9.91309H32.34V6.875H30.34ZM32.2917 10.2201C32.3595 10.0101 32.5025 9.7293 32.762 9.37365L31.1465 8.19471C30.8083 8.65807 30.5419 9.1299 30.3883 9.60608L32.2917 10.2201ZM32.7694 9.36339C32.9614 9.09328 33.2906 8.79355 33.8185 8.48642L32.8127 6.75772C32.1231 7.15893 31.5448 7.63393 31.1391 8.20497L32.7694 9.36339ZM33.8301 8.47956C34.329 8.18021 35.0153 7.90677 35.9182 7.67847L35.4279 5.7395C34.4049 5.99818 33.5196 6.33346 32.8011 6.76458L33.8301 8.47956ZM35.9155 7.67913C36.7837 7.46209 37.9079 7.34375 39.3088 7.34375V5.34375C37.8099 5.34375 36.5103 5.4689 35.4305 5.73884L35.9155 7.67913ZM39.3088 7.34375C40.9196 7.34375 42.1672 7.48994 43.0835 7.75313L43.6356 5.83086C42.4712 5.49639 41.0182 5.34375 39.3088 5.34375V7.34375ZM43.0929 7.7558C44.0193 8.01203 44.6564 8.37419 45.0763 8.79402L46.4905 7.37981C45.7593 6.64859 44.7805 6.14748 43.6261 5.82818L43.0929 7.7558ZM45.09 8.80749C45.5295 9.23043 45.8312 9.75935 45.989 10.4258L47.9352 9.96485C47.6946 8.94898 47.2104 8.0723 46.4767 7.36634L45.09 8.80749ZM45.9919 10.4378C46.178 11.1821 46.2775 12.0663 46.2775 13.1006H48.2775C48.2775 11.9435 48.1667 10.8908 47.9322 9.95278L45.9919 10.4378ZM47.2775 12.1006H44.6213V14.1006H47.2775V12.1006ZM55.4866 25.9336L55.2891 26.9139L55.2962 26.9153L55.4866 25.9336ZM51.8675 24.4062L51.2555 25.1971L51.8675 24.4062ZM49.8421 21.5176L48.8978 21.8468L49.8421 21.5176ZM49.8421 11.7891L50.7976 12.0842L50.7982 12.0821L49.8421 11.7891ZM51.8675 8.51855L52.5235 9.27335L51.8675 8.51855ZM64.8333 6.67578L64.6372 7.65636L64.6391 7.65673L64.8333 6.67578ZM67.6888 7.63867L67.2169 8.52035L67.222 8.52306L67.6888 7.63867ZM69.6146 9.16602L68.8393 9.79773L68.8463 9.8062L69.6146 9.16602ZM70.7767 11.0586L69.8536 11.4432C69.8562 11.4495 69.8589 11.4557 69.8616 11.4619L70.7767 11.0586ZM71.3577 13.3662L70.3639 13.478L70.3655 13.4902L71.3577 13.3662ZM71.5238 16.1719L72.4939 16.4144C72.5137 16.3351 72.5238 16.2536 72.5238 16.1719H71.5238ZM71.2581 17.2344V18.2344C71.717 18.2344 72.117 17.9221 72.2283 17.4769L71.2581 17.2344ZM52.3988 17.2344V16.2344C51.8465 16.2344 51.3988 16.6821 51.3988 17.2344H52.3988ZM52.8304 20.8369L51.8741 21.1294L51.8751 21.1326L52.8304 20.8369ZM56.8812 23.709L56.7696 24.7028L56.7797 24.7038L56.8812 23.709ZM64.5179 23.7588L64.599 24.7555L64.6095 24.7546L64.5179 23.7588ZM67.9876 22.3145L67.1123 21.8307L67.1079 21.8389L67.9876 22.3145ZM68.3363 20.6875V19.6875C67.784 19.6875 67.3363 20.1352 67.3363 20.6875H68.3363ZM71.5238 20.6875H72.5238C72.5238 20.1352 72.076 19.6875 71.5238 19.6875V20.6875ZM70.9759 23.3271L70.0815 22.8799L70.0787 22.8855L70.9759 23.3271ZM69.1995 25.0869L69.6701 25.9693L69.6792 25.9644L69.1995 25.0869ZM65.9124 26.0498L65.7676 25.0603L65.7585 25.0617L65.9124 26.0498ZM58.0433 9.06641L57.9907 8.06779L57.99 8.06783L58.0433 9.06641ZM55.8519 9.36523L56.078 10.3394L56.0904 10.3364L55.8519 9.36523ZM54.2581 10.0127L54.7881 10.8607C54.7931 10.8576 54.7981 10.8544 54.8031 10.8511L54.2581 10.0127ZM53.179 11.0088L52.3653 10.4275L52.3621 10.4321L53.179 11.0088ZM52.5814 12.6191L51.599 12.432L51.5967 12.4444L52.5814 12.6191ZM52.3988 15.1094H51.3988C51.3988 15.6617 51.8465 16.1094 52.3988 16.1094V15.1094ZM68.3363 15.1094V16.1094C68.8885 16.1094 69.3363 15.6617 69.3363 15.1094H68.3363ZM67.9212 12.0713L66.9843 12.4209L66.9861 12.4255L67.9212 12.0713ZM64.3021 9.26562L64.1171 10.2484L64.3021 9.26562ZM60.8988 25.3652C58.8141 25.3652 57.0779 25.2237 55.6771 24.9519L55.2962 26.9153C56.8615 27.219 58.7334 27.3652 60.8988 27.3652V25.3652ZM55.6842 24.9533C54.3101 24.6764 53.2576 24.2175 52.4795 23.6154L51.2555 25.1971C52.3367 26.0338 53.697 26.5931 55.2891 26.9139L55.6842 24.9533ZM52.4795 23.6154C51.7162 23.0247 51.149 22.2285 50.7864 21.1884L48.8978 21.8468C49.3764 23.2194 50.1594 24.349 51.2555 25.1971L52.4795 23.6154ZM50.7864 21.1884C50.4148 20.1227 50.2113 18.7269 50.2113 16.9688H48.2113C48.2113 18.863 48.4282 20.4997 48.8978 21.8468L50.7864 21.1884ZM50.2113 16.9688C50.2113 14.9348 50.4168 13.3166 50.7976 12.0842L48.8867 11.4939C48.4262 12.9842 48.2113 14.8191 48.2113 16.9688H50.2113ZM50.7982 12.0821C51.1732 10.8586 51.7571 9.93936 52.5235 9.27335L51.2115 7.76376C50.1185 8.71364 49.3522 9.97478 48.886 11.4961L50.7982 12.0821ZM52.5235 9.27335C53.2998 8.59864 54.3419 8.09609 55.6982 7.80257L55.2751 5.84782C53.6653 6.19623 52.2945 6.82258 51.2115 7.76376L52.5235 9.27335ZM55.6982 7.80257C57.0903 7.50129 58.8189 7.34375 60.8988 7.34375V5.34375C58.7286 5.34375 56.8491 5.50718 55.2751 5.84782L55.6982 7.80257ZM60.8988 7.34375C62.37 7.34375 63.6127 7.45146 64.6372 7.65636L65.0294 5.6952C63.8404 5.4574 62.46 5.34375 60.8988 5.34375V7.34375ZM64.6391 7.65673C65.6855 7.86395 66.5386 8.15728 67.2169 8.52034L68.1607 6.75701C67.2674 6.27892 66.2168 5.93032 65.0276 5.69483L64.6391 7.65673ZM67.222 8.52306C67.9199 8.8914 68.4503 9.32018 68.8393 9.79769L70.3898 8.53434C69.8049 7.81654 69.0514 7.22709 68.1555 6.75429L67.222 8.52306ZM68.8463 9.8062C69.2855 10.3331 69.6184 10.8788 69.8536 11.4432L71.6998 10.674C71.3815 9.91024 70.9398 9.1942 70.3828 8.52583L68.8463 9.8062ZM69.8616 11.4619C70.0999 12.0025 70.273 12.6693 70.364 13.478L72.3515 13.2544C72.2432 12.2923 72.029 11.4206 71.6918 10.6553L69.8616 11.4619ZM70.3655 13.4902C70.4705 14.3305 70.5238 15.2241 70.5238 16.1719H72.5238C72.5238 15.1496 72.4663 14.1727 72.35 13.2422L70.3655 13.4902ZM70.5536 15.9293L70.288 16.9918L72.2283 17.4769L72.4939 16.4144L70.5536 15.9293ZM71.2581 16.2344H52.3988V18.2344H71.2581V16.2344ZM51.3988 17.2344C51.3988 18.7513 51.547 20.0599 51.8741 21.1294L53.7867 20.5444C53.5383 19.7324 53.3988 18.6393 53.3988 17.2344H51.3988ZM51.8751 21.1326C52.2156 22.2328 52.8112 23.1311 53.7131 23.7173L54.8031 22.0405C54.3769 21.7634 54.0207 21.3004 53.7857 20.5412L51.8751 21.1326ZM53.7131 23.7173C54.5474 24.2596 55.5856 24.5698 56.7696 24.7027L56.9927 22.7152C56.0074 22.6046 55.297 22.3615 54.8031 22.0405L53.7131 23.7173ZM56.7797 24.7038C57.9095 24.8191 59.285 24.875 60.8988 24.875V22.875C59.325 22.875 58.0221 22.8202 56.9827 22.7142L56.7797 24.7038ZM60.8988 24.875C62.3742 24.875 63.6101 24.836 64.599 24.7555L64.4368 22.7621C63.5221 22.8365 62.3452 22.875 60.8988 22.875V24.875ZM64.6095 24.7546C65.6209 24.6616 66.4953 24.4879 67.1897 24.202L66.4282 22.3527C65.9936 22.5316 65.3406 22.6789 64.4263 22.763L64.6095 24.7546ZM67.1897 24.202C67.9002 23.9094 68.5063 23.4579 68.8673 22.79L67.1079 21.8389C67.0262 21.99 66.8465 22.1804 66.4282 22.3527L67.1897 24.202ZM68.8629 22.7981C69.2024 22.1837 69.3363 21.4593 69.3363 20.6875H67.3363C67.3363 21.2438 67.2376 21.6041 67.1124 21.8308L68.8629 22.7981ZM68.3363 21.6875H71.5238V19.6875H68.3363V21.6875ZM70.5238 20.6875C70.5238 21.6009 70.3616 22.3197 70.0815 22.8799L71.8703 23.7744C72.3207 22.8737 72.5238 21.8327 72.5238 20.6875H70.5238ZM70.0787 22.8855C69.831 23.3887 69.4026 23.8363 68.7199 24.2095L69.6792 25.9644C70.6567 25.43 71.4125 24.7044 71.8731 23.7688L70.0787 22.8855ZM68.7289 24.2046C68.0358 24.5742 67.0629 24.8708 65.7676 25.0603L66.0572 27.0393C67.4846 26.8304 68.7031 26.485 69.6701 25.9693L68.7289 24.2046ZM65.7585 25.0617C64.4765 25.2614 62.8605 25.3652 60.8988 25.3652V27.3652C62.9214 27.3652 64.6479 27.2588 66.0663 27.0379L65.7585 25.0617ZM60.8988 8C59.823 8 58.8532 8.0224 57.9907 8.06779L58.0958 10.065C58.9157 10.0219 59.8495 10 60.8988 10V8ZM57.99 8.06783C57.1138 8.11456 56.3191 8.22077 55.6134 8.3941L56.0904 10.3364C56.6464 10.1998 57.3126 10.1068 58.0965 10.065L57.99 8.06783ZM55.6257 8.39114C54.9152 8.5561 54.2711 8.81156 53.7131 9.17425L54.8031 10.8511C55.1305 10.6383 55.549 10.4621 56.078 10.3393L55.6257 8.39114ZM53.7281 9.1647C53.1851 9.50411 52.7252 9.92363 52.3653 10.4276L53.9928 11.59C54.1862 11.3192 54.4458 11.0747 54.7881 10.8607L53.7281 9.1647ZM52.3621 10.4321C51.9818 10.9708 51.7455 11.6629 51.599 12.432L53.5637 12.8063C53.6828 12.1809 53.845 11.7993 53.996 11.5855L52.3621 10.4321ZM51.5967 12.4444C51.4616 13.206 51.3988 14.098 51.3988 15.1094H53.3988C53.3988 14.1728 53.4576 13.4047 53.566 12.7938L51.5967 12.4444ZM52.3988 16.1094H68.3363V14.1094H52.3988V16.1094ZM69.3363 15.1094C69.3363 13.7624 69.195 12.611 68.8564 11.7171L66.9861 12.4255C67.2008 12.9925 67.3363 13.8665 67.3363 15.1094H69.3363ZM68.8581 11.7217C68.5204 10.8165 67.9775 10.056 67.2326 9.46284L65.9868 11.0274C66.4372 11.3861 66.7687 11.843 66.9843 12.4209L68.8581 11.7217ZM67.2326 9.46284C66.4792 8.86293 65.5482 8.48263 64.4871 8.28288L64.1171 10.2484C64.9374 10.4028 65.5448 10.6755 65.9868 11.0274L67.2326 9.46284ZM64.4871 8.28288C63.467 8.09087 62.267 8 60.8988 8V10C62.1867 10 63.2556 10.0862 64.1171 10.2484L64.4871 8.28288ZM81.8579 25.9336L81.6604 26.9139L81.6674 26.9153L81.8579 25.9336ZM78.2387 24.4062L77.6268 25.1971L78.2387 24.4062ZM76.2134 21.5176L75.2691 21.8468L76.2134 21.5176ZM76.2134 11.7891L77.1688 12.0842L77.1695 12.0821L76.2134 11.7891ZM78.2387 8.51855L78.8947 9.27335L78.2387 8.51855ZM91.2046 6.67578L91.0085 7.65636L91.0103 7.65673L91.2046 6.67578ZM94.06 7.63867L93.5882 8.52035L93.5933 8.52306L94.06 7.63867ZM95.9858 9.16602L95.2105 9.79773L95.2176 9.8062L95.9858 9.16602ZM97.1479 11.0586L96.2248 11.4432C96.2274 11.4495 96.2301 11.4557 96.2328 11.4619L97.1479 11.0586ZM97.729 13.3662L96.7352 13.478L96.7367 13.4902L97.729 13.3662ZM97.895 16.1719L98.8651 16.4144C98.885 16.3351 98.895 16.2536 98.895 16.1719H97.895ZM97.6294 17.2344V18.2344C98.0882 18.2344 98.4882 17.9221 98.5995 17.4769L97.6294 17.2344ZM78.77 17.2344V16.2344C78.2177 16.2344 77.77 16.6821 77.77 17.2344H78.77ZM79.2016 20.8369L78.2454 21.1294L78.2464 21.1326L79.2016 20.8369ZM83.2524 23.709L83.1409 24.7028L83.1509 24.7038L83.2524 23.709ZM90.8891 23.7588L90.9703 24.7555L90.9807 24.7546L90.8891 23.7588ZM94.3589 22.3145L93.4836 21.8307L93.4792 21.8389L94.3589 22.3145ZM94.7075 20.6875V19.6875C94.1552 19.6875 93.7075 20.1352 93.7075 20.6875H94.7075ZM97.895 20.6875H98.895C98.895 20.1352 98.4473 19.6875 97.895 19.6875V20.6875ZM97.3471 23.3271L96.4527 22.8799L96.45 22.8855L97.3471 23.3271ZM95.5708 25.0869L96.0414 25.9693L96.0504 25.9644L95.5708 25.0869ZM92.2837 26.0498L92.1389 25.0603L92.1298 25.0617L92.2837 26.0498ZM84.4145 9.06641L84.362 8.06779L84.3613 8.06783L84.4145 9.06641ZM82.2231 9.36523L82.4493 10.3394L82.4616 10.3364L82.2231 9.36523ZM80.6294 10.0127L81.1594 10.8607C81.1644 10.8576 81.1694 10.8544 81.1744 10.8511L80.6294 10.0127ZM79.5503 11.0088L78.7365 10.4275L78.7333 10.4321L79.5503 11.0088ZM78.9526 12.6191L77.9702 12.432L77.968 12.4444L78.9526 12.6191ZM78.77 15.1094H77.77C77.77 15.6617 78.2177 16.1094 78.77 16.1094V15.1094ZM94.7075 15.1094V16.1094C95.2598 16.1094 95.7075 15.6617 95.7075 15.1094H94.7075ZM94.2925 12.0713L93.3555 12.4209L93.3573 12.4255L94.2925 12.0713ZM90.6733 9.26562L90.4883 10.2484L90.6733 9.26562ZM87.27 25.3652C85.1853 25.3652 83.4491 25.2237 82.0484 24.9519L81.6674 26.9153C83.2328 27.219 85.1047 27.3652 87.27 27.3652V25.3652ZM82.0554 24.9533C80.6814 24.6764 79.6289 24.2175 78.8507 23.6154L77.6268 25.1971C78.708 26.0338 80.0683 26.5931 81.6604 26.9139L82.0554 24.9533ZM78.8507 23.6154C78.0875 23.0247 77.5202 22.2285 77.1576 21.1884L75.2691 21.8468C75.7476 23.2194 76.5307 24.349 77.6268 25.1971L78.8507 23.6154ZM77.1576 21.1884C76.7861 20.1227 76.5825 18.7269 76.5825 16.9688H74.5825C74.5825 18.863 74.7995 20.4997 75.2691 21.8468L77.1576 21.1884ZM76.5825 16.9688C76.5825 14.9348 76.7881 13.3166 77.1688 12.0842L75.2579 11.4939C74.7975 12.9842 74.5825 14.8191 74.5825 16.9688H76.5825ZM77.1695 12.0821C77.5444 10.8586 78.1283 9.93936 78.8947 9.27335L77.5828 7.76376C76.4898 8.71364 75.7234 9.97478 75.2572 11.4961L77.1695 12.0821ZM78.8947 9.27335C79.6711 8.59864 80.7131 8.09609 82.0694 7.80257L81.6464 5.84782C80.0365 6.19623 78.6658 6.82258 77.5828 7.76376L78.8947 9.27335ZM82.0694 7.80257C83.4615 7.50129 85.1902 7.34375 87.27 7.34375V5.34375C85.0998 5.34375 83.2204 5.50718 81.6464 5.84782L82.0694 7.80257ZM87.27 7.34375C88.7413 7.34375 89.9839 7.45146 91.0085 7.65636L91.4007 5.6952C90.2117 5.4574 88.8313 5.34375 87.27 5.34375V7.34375ZM91.0103 7.65673C92.0568 7.86395 92.9098 8.15728 93.5882 8.52034L94.5319 6.75701C93.6386 6.27892 92.588 5.93032 91.3988 5.69483L91.0103 7.65673ZM93.5933 8.52306C94.2912 8.8914 94.8215 9.32018 95.2106 9.79769L96.7611 8.53434C96.1762 7.81654 95.4226 7.22709 94.5268 6.75429L93.5933 8.52306ZM95.2176 9.8062C95.6567 10.3331 95.9897 10.8788 96.2248 11.4432L98.071 10.674C97.7528 9.91024 97.311 9.1942 96.754 8.52583L95.2176 9.8062ZM96.2328 11.4619C96.4711 12.0025 96.6443 12.6693 96.7352 13.478L98.7227 13.2544C98.6145 12.2923 98.4003 11.4206 98.063 10.6553L96.2328 11.4619ZM96.7367 13.4902C96.8417 14.3305 96.895 15.2241 96.895 16.1719H98.895C98.895 15.1496 98.8376 14.1727 98.7213 13.2422L96.7367 13.4902ZM96.9249 15.9293L96.6592 16.9918L98.5995 17.4769L98.8651 16.4144L96.9249 15.9293ZM97.6294 16.2344H78.77V18.2344H97.6294V16.2344ZM77.77 17.2344C77.77 18.7513 77.9182 20.0599 78.2454 21.1294L80.1579 20.5444C79.9095 19.7324 79.77 18.6393 79.77 17.2344H77.77ZM78.2464 21.1326C78.5869 22.2328 79.1825 23.1311 80.0844 23.7173L81.1744 22.0405C80.7482 21.7634 80.3919 21.3004 80.1569 20.5412L78.2464 21.1326ZM80.0844 23.7173C80.9186 24.2596 81.9569 24.5698 83.1409 24.7027L83.364 22.7152C82.3787 22.6046 81.6682 22.3615 81.1744 22.0405L80.0844 23.7173ZM83.1509 24.7038C84.2808 24.8191 85.6563 24.875 87.27 24.875V22.875C85.6962 22.875 84.3934 22.8202 83.3539 22.7142L83.1509 24.7038ZM87.27 24.875C88.7455 24.875 89.9813 24.836 90.9703 24.7555L90.808 22.7621C89.8933 22.8365 88.7164 22.875 87.27 22.875V24.875ZM90.9807 24.7546C91.9922 24.6616 92.8665 24.4879 93.5609 24.202L92.7994 22.3527C92.3649 22.5316 91.7119 22.6789 90.7976 22.763L90.9807 24.7546ZM93.5609 24.202C94.2715 23.9094 94.8775 23.4579 95.2386 22.79L93.4792 21.8389C93.3975 21.99 93.2177 22.1804 92.7994 22.3527L93.5609 24.202ZM95.2341 22.7981C95.5737 22.1837 95.7075 21.4593 95.7075 20.6875H93.7075C93.7075 21.2438 93.6089 21.6041 93.4836 21.8308L95.2341 22.7981ZM94.7075 21.6875H97.895V19.6875H94.7075V21.6875ZM96.895 20.6875C96.895 21.6009 96.7328 22.3197 96.4527 22.8799L98.2416 23.7744C98.6919 22.8737 98.895 21.8327 98.895 20.6875H96.895ZM96.45 22.8855C96.2022 23.3887 95.7738 23.8363 95.0911 24.2095L96.0504 25.9644C97.0279 25.43 97.7837 24.7044 98.2443 23.7688L96.45 22.8855ZM95.1002 24.2046C94.4071 24.5742 93.4341 24.8708 92.1389 25.0603L92.4285 27.0393C93.8559 26.8304 95.0743 26.485 96.0414 25.9693L95.1002 24.2046ZM92.1298 25.0617C90.8477 25.2614 89.2317 25.3652 87.27 25.3652V27.3652C89.2926 27.3652 91.0191 27.2588 92.4376 27.0379L92.1298 25.0617ZM87.27 8C86.1943 8 85.2244 8.0224 84.362 8.06779L84.4671 10.065C85.2869 10.0219 86.2207 10 87.27 10V8ZM84.3613 8.06783C83.4851 8.11456 82.6903 8.22077 81.9846 8.3941L82.4616 10.3364C83.0177 10.1998 83.6838 10.1068 84.4678 10.065L84.3613 8.06783ZM81.997 8.39114C81.2864 8.5561 80.6424 8.81156 80.0844 9.17425L81.1744 10.8511C81.5018 10.6383 81.9203 10.4621 82.4493 10.3393L81.997 8.39114ZM80.0994 9.1647C79.5563 9.50411 79.0965 9.92363 78.7365 10.4276L80.364 11.59C80.5574 11.3192 80.817 11.0747 81.1594 10.8607L80.0994 9.1647ZM78.7333 10.4321C78.353 10.9708 78.1168 11.6629 77.9703 12.432L79.935 12.8063C80.0541 12.1809 80.2163 11.7993 80.3672 11.5855L78.7333 10.4321ZM77.968 12.4444C77.8329 13.206 77.77 14.098 77.77 15.1094H79.77C79.77 14.1728 79.8289 13.4047 79.9372 12.7938L77.968 12.4444ZM78.77 16.1094H94.7075V14.1094H78.77V16.1094ZM95.7075 15.1094C95.7075 13.7624 95.5662 12.611 95.2276 11.7171L93.3573 12.4255C93.5721 12.9925 93.7075 13.8665 93.7075 15.1094H95.7075ZM95.2294 11.7217C94.8916 10.8165 94.3488 10.056 93.6039 9.46284L92.358 11.0274C92.8084 11.3861 93.1399 11.843 93.3556 12.4209L95.2294 11.7217ZM93.6039 9.46284C92.8505 8.86293 91.9195 8.48263 90.8583 8.28288L90.4883 10.2484C91.3087 10.4028 91.9161 10.6755 92.358 11.0274L93.6039 9.46284ZM90.8583 8.28288C89.8383 8.09087 88.6383 8 87.27 8V10C88.558 10 89.6269 10.0862 90.4883 10.2484L90.8583 8.28288Z" fill="white"/>
</g>
<defs>
<filter id="filter0_b_317_457" x="-64.8125" y="-64.5" width="227.708" height="155.865" filterUnits="userSpaceOnUse" color-interpolation-filters="sRGB">
<feFlood flood-opacity="0" result="BackgroundImageFix"/>
<feGaussianBlur in="BackgroundImageFix" stdDeviation="32.5"/>
<feComposite in2="SourceAlpha" operator="in" result="effect1_backgroundBlur_317_457"/>
<feBlend mode="normal" in="SourceGraphic" in2="effect1_backgroundBlur_317_457" result="shape"/>
</filter>
<linearGradient id="paint0_linear_317_457" x1="61" y1="-10" x2="61" y2="31" gradientUnits="userSpaceOnUse">
<stop stop-color="white"/>
<stop offset="1" stop-color="white" stop-opacity="0"/>
</linearGradient>
</defs>
</svg>
