<svg width="264" height="28" viewBox="0 0 264 28" fill="none" xmlns="http://www.w3.org/2000/svg">
<g filter="url(#filter0_b_317_484)">
<path d="M8.09375 1.5H12.3438V27H9.15625V4.15625L1.71875 10.5312L0.125 8.40625L8.09375 1.5ZM24.9025 1.5H29.1525V27H25.965V4.15625L18.5275 10.5312L16.9338 8.40625L24.9025 1.5ZM36.93 14.25H33.7425V11.0625H36.93V14.25ZM36.93 23.8125H33.7425V20.625H36.93V23.8125ZM59.5991 0.96875C61.547 0.96875 63.185 1.09049 64.5132 1.33398C65.8524 1.56641 66.9536 1.92611 67.8169 2.41309C68.6802 2.889 69.3442 3.49219 69.8091 4.22266C70.2739 4.95312 70.6115 5.81087 70.8218 6.7959C71.0431 7.78092 71.1704 8.89323 71.2036 10.1328C71.2479 11.3724 71.27 12.7448 71.27 14.25C71.27 15.7552 71.2479 17.1276 71.2036 18.3672C71.1704 19.6068 71.0431 20.7191 70.8218 21.7041C70.6115 22.6891 70.2739 23.5469 69.8091 24.2773C69.3442 25.0078 68.6802 25.6165 67.8169 26.1035C66.9536 26.5794 65.8524 26.9336 64.5132 27.166C63.185 27.4095 61.547 27.5312 59.5991 27.5312H53.2075C51.2596 27.5312 49.616 27.4095 48.2768 27.166C46.9487 26.9336 45.853 26.5794 44.9897 26.1035C44.1264 25.6165 43.4568 25.0078 42.9809 24.2773C42.5161 23.5469 42.173 22.6891 41.9516 21.7041C41.7414 20.7191 41.6196 19.6068 41.5864 18.3672C41.5532 17.1276 41.5366 15.7552 41.5366 14.25C41.5366 12.7448 41.5532 11.3724 41.5864 10.1328C41.6196 8.89323 41.7414 7.78092 41.9516 6.7959C42.173 5.81087 42.5161 4.95312 42.9809 4.22266C43.4568 3.49219 44.1264 2.889 44.9897 2.41309C45.853 1.92611 46.9487 1.56641 48.2768 1.33398C49.616 1.09049 51.2596 0.96875 53.2075 0.96875H59.5991ZM59.5991 24.875C61.0158 24.875 62.2055 24.8363 63.1684 24.7588C64.1313 24.6702 64.9282 24.4987 65.5591 24.2441C66.1899 23.9896 66.6769 23.6243 67.02 23.1484C67.3631 22.6725 67.6121 22.0417 67.7671 21.2559C67.922 20.4701 68.0106 19.5072 68.0327 18.3672C68.0659 17.2161 68.0825 15.8438 68.0825 14.25C68.0825 12.6562 68.0659 11.2894 68.0327 10.1494C68.0106 8.99837 67.922 8.02995 67.7671 7.24414C67.6121 6.45833 67.3631 5.82747 67.02 5.35156C66.6769 4.87565 66.1899 4.51042 65.5591 4.25586C64.9393 4.0013 64.1424 3.83529 63.1684 3.75781C62.2055 3.66927 61.0158 3.625 59.5991 3.625H53.2075C51.7908 3.625 50.5955 3.66927 49.6216 3.75781C48.6587 3.83529 47.8618 4.0013 47.2309 4.25586C46.6001 4.51042 46.1131 4.87565 45.77 5.35156C45.4269 5.82747 45.1779 6.45833 45.0229 7.24414C44.868 8.02995 44.7794 8.99837 44.7573 10.1494C44.7352 11.2894 44.7241 12.6562 44.7241 14.25C44.7241 15.8438 44.7352 17.2161 44.7573 18.3672C44.7905 19.5072 44.8846 20.4701 45.0395 21.2559C45.1945 22.0417 45.438 22.6725 45.77 23.1484C46.1131 23.6243 46.6001 23.9896 47.2309 24.2441C47.8618 24.4987 48.6587 24.6702 49.6216 24.7588C50.5955 24.8363 51.7908 24.875 53.2075 24.875H59.5991ZM93.9391 0.96875C95.887 0.96875 97.525 1.09049 98.8532 1.33398C100.192 1.56641 101.294 1.92611 102.157 2.41309C103.02 2.889 103.684 3.49219 104.149 4.22266C104.614 4.95312 104.951 5.81087 105.162 6.7959C105.383 7.78092 105.51 8.89323 105.544 10.1328C105.588 11.3724 105.61 12.7448 105.61 14.25C105.61 15.7552 105.588 17.1276 105.544 18.3672C105.51 19.6068 105.383 20.7191 105.162 21.7041C104.951 22.6891 104.614 23.5469 104.149 24.2773C103.684 25.0078 103.02 25.6165 102.157 26.1035C101.294 26.5794 100.192 26.9336 98.8532 27.166C97.525 27.4095 95.887 27.5312 93.9391 27.5312H87.5475C85.5996 27.5312 83.956 27.4095 82.6168 27.166C81.2887 26.9336 80.193 26.5794 79.3297 26.1035C78.4664 25.6165 77.7968 25.0078 77.3209 24.2773C76.8561 23.5469 76.513 22.6891 76.2916 21.7041C76.0814 20.7191 75.9596 19.6068 75.9264 18.3672C75.8932 17.1276 75.8766 15.7552 75.8766 14.25C75.8766 12.7448 75.8932 11.3724 75.9264 10.1328C75.9596 8.89323 76.0814 7.78092 76.2916 6.7959C76.513 5.81087 76.8561 4.95312 77.3209 4.22266C77.7968 3.49219 78.4664 2.889 79.3297 2.41309C80.193 1.92611 81.2887 1.56641 82.6168 1.33398C83.956 1.09049 85.5996 0.96875 87.5475 0.96875H93.9391ZM93.9391 24.875C95.3558 24.875 96.5455 24.8363 97.5084 24.7588C98.4713 24.6702 99.2682 24.4987 99.8991 24.2441C100.53 23.9896 101.017 23.6243 101.36 23.1484C101.703 22.6725 101.952 22.0417 102.107 21.2559C102.262 20.4701 102.351 19.5072 102.373 18.3672C102.406 17.2161 102.423 15.8438 102.423 14.25C102.423 12.6562 102.406 11.2894 102.373 10.1494C102.351 8.99837 102.262 8.02995 102.107 7.24414C101.952 6.45833 101.703 5.82747 101.36 5.35156C101.017 4.87565 100.53 4.51042 99.8991 4.25586C99.2793 4.0013 98.4824 3.83529 97.5084 3.75781C96.5455 3.66927 95.3558 3.625 93.9391 3.625H87.5475C86.1308 3.625 84.9355 3.66927 83.9616 3.75781C82.9987 3.83529 82.2018 4.0013 81.5709 4.25586C80.9401 4.51042 80.4531 4.87565 80.11 5.35156C79.7669 5.82747 79.5179 6.45833 79.3629 7.24414C79.208 8.02995 79.1194 8.99837 79.0973 10.1494C79.0752 11.2894 79.0641 12.6562 79.0641 14.25C79.0641 15.8438 79.0752 17.2161 79.0973 18.3672C79.1305 19.5072 79.2246 20.4701 79.3795 21.2559C79.5345 22.0417 79.778 22.6725 80.11 23.1484C80.4531 23.6243 80.9401 23.9896 81.5709 24.2441C82.2018 24.4987 82.9987 24.6702 83.9616 24.7588C84.9355 24.8363 86.1308 24.875 87.5475 24.875H93.9391ZM117.978 15.8438H130.728V18.5H117.978V15.8438ZM151.064 1.5H155.314V27H152.126V4.15625L144.689 10.5312L143.095 8.40625L151.064 1.5ZM169.466 27H165.216L184.872 4.15625H159.904V1.5H188.591V4.6875L169.466 27ZM196.369 14.25H193.181V11.0625H196.369V14.25ZM196.369 23.8125H193.181V20.625H196.369V23.8125ZM223.271 12.6562C223.803 12.6562 224.267 12.612 224.666 12.5234C225.064 12.4349 225.391 12.2633 225.645 12.0088C225.911 11.7432 226.11 11.3669 226.243 10.8799C226.376 10.3929 226.442 9.75098 226.442 8.9541C226.442 8.06868 226.376 7.32161 226.243 6.71289C226.11 6.10417 225.889 5.60059 225.579 5.20215C225.269 4.80371 224.848 4.49935 224.317 4.28906C223.797 4.07878 223.144 3.92383 222.358 3.82422C221.572 3.72461 220.643 3.66927 219.569 3.6582C218.496 3.63607 217.25 3.625 215.834 3.625C213.886 3.625 212.242 3.65267 210.903 3.70801C209.575 3.75228 208.474 3.84635 207.599 3.99023C206.736 4.12305 206.072 4.3112 205.607 4.55469C205.142 4.79818 204.799 5.11914 204.578 5.51758C204.368 5.90495 204.24 6.38086 204.196 6.94531C204.163 7.50977 204.146 8.17383 204.146 8.9375H200.959C200.959 7.59831 201.103 6.4694 201.39 5.55078C201.689 4.63216 202.121 3.87956 202.685 3.29297C203.261 2.69531 203.969 2.24154 204.81 1.93164C205.651 1.61068 206.62 1.38379 207.716 1.25098C208.822 1.1071 210.051 1.02409 211.401 1.00195C212.762 0.979818 214.24 0.96875 215.834 0.96875C217.428 0.96875 218.872 0.996419 220.167 1.05176C221.473 1.09603 222.635 1.20671 223.653 1.38379C224.682 1.56087 225.573 1.82096 226.326 2.16406C227.079 2.50716 227.698 2.97754 228.185 3.5752C228.683 4.16178 229.049 4.89225 229.281 5.7666C229.525 6.64095 229.646 7.69792 229.646 8.9375C229.646 9.73438 229.591 10.4095 229.48 10.9629C229.381 11.5163 229.22 11.9867 228.999 12.374C228.789 12.7503 228.517 13.0658 228.185 13.3203C227.853 13.5638 227.455 13.7852 226.99 13.9844C227.455 14.1836 227.853 14.4382 228.185 14.748C228.517 15.0579 228.789 15.4398 228.999 15.8936C229.22 16.3363 229.381 16.862 229.48 17.4707C229.591 18.0684 229.646 18.7656 229.646 19.5625C229.646 20.8021 229.525 21.859 229.281 22.7334C229.049 23.6077 228.683 24.3438 228.185 24.9414C227.698 25.528 227.079 25.9928 226.326 26.3359C225.573 26.679 224.682 26.9391 223.653 27.1162C222.635 27.2933 221.473 27.404 220.167 27.4482C218.872 27.5036 217.428 27.5312 215.834 27.5312C214.24 27.5312 212.762 27.5202 211.401 27.498C210.051 27.4759 208.822 27.3874 207.716 27.2324C206.62 27.0775 205.651 26.834 204.81 26.502C203.969 26.1589 203.261 25.6719 202.685 25.041C202.121 24.4102 201.689 23.6077 201.39 22.6338C201.103 21.6598 200.959 20.459 200.959 19.0312H204.146C204.146 19.8724 204.168 20.6029 204.213 21.2227C204.257 21.8314 204.384 22.3516 204.594 22.7832C204.805 23.2148 205.142 23.569 205.607 23.8457C206.072 24.1113 206.736 24.3216 207.599 24.4766C208.474 24.6315 209.575 24.7367 210.903 24.792C212.242 24.8473 213.886 24.875 215.834 24.875C217.25 24.875 218.496 24.8695 219.569 24.8584C220.643 24.8363 221.572 24.7754 222.358 24.6758C223.144 24.5762 223.797 24.4212 224.317 24.2109C224.848 24.0007 225.269 23.6963 225.579 23.2979C225.889 22.8994 226.11 22.3958 226.243 21.7871C226.376 21.1784 226.442 20.4313 226.442 19.5459C226.442 18.6162 226.376 17.8747 226.243 17.3213C226.11 16.7568 225.911 16.3252 225.645 16.0264C225.391 15.7275 225.064 15.5339 224.666 15.4453C224.267 15.3568 223.803 15.3125 223.271 15.3125H211.584V12.6562H223.271ZM252.315 0.96875C254.263 0.96875 255.901 1.09049 257.229 1.33398C258.569 1.56641 259.67 1.92611 260.533 2.41309C261.396 2.889 262.06 3.49219 262.525 4.22266C262.99 4.95312 263.328 5.81087 263.538 6.7959C263.759 7.78092 263.887 8.89323 263.92 10.1328C263.964 11.3724 263.986 12.7448 263.986 14.25C263.986 15.7552 263.964 17.1276 263.92 18.3672C263.887 19.6068 263.759 20.7191 263.538 21.7041C263.328 22.6891 262.99 23.5469 262.525 24.2773C262.06 25.0078 261.396 25.6165 260.533 26.1035C259.67 26.5794 258.569 26.9336 257.229 27.166C255.901 27.4095 254.263 27.5312 252.315 27.5312H245.924C243.976 27.5312 242.332 27.4095 240.993 27.166C239.665 26.9336 238.569 26.5794 237.706 26.1035C236.843 25.6165 236.173 25.0078 235.697 24.2773C235.232 23.5469 234.889 22.6891 234.668 21.7041C234.458 20.7191 234.336 19.6068 234.303 18.3672C234.269 17.1276 234.253 15.7552 234.253 14.25C234.253 12.7448 234.269 11.3724 234.303 10.1328C234.336 8.89323 234.458 7.78092 234.668 6.7959C234.889 5.81087 235.232 4.95312 235.697 4.22266C236.173 3.49219 236.843 2.889 237.706 2.41309C238.569 1.92611 239.665 1.56641 240.993 1.33398C242.332 1.09049 243.976 0.96875 245.924 0.96875H252.315ZM252.315 24.875C253.732 24.875 254.922 24.8363 255.885 24.7588C256.848 24.6702 257.644 24.4987 258.275 24.2441C258.906 23.9896 259.393 23.6243 259.736 23.1484C260.079 22.6725 260.328 22.0417 260.483 21.2559C260.638 20.4701 260.727 19.5072 260.749 18.3672C260.782 17.2161 260.799 15.8438 260.799 14.25C260.799 12.6562 260.782 11.2894 260.749 10.1494C260.727 8.99837 260.638 8.02995 260.483 7.24414C260.328 6.45833 260.079 5.82747 259.736 5.35156C259.393 4.87565 258.906 4.51042 258.275 4.25586C257.656 4.0013 256.859 3.83529 255.885 3.75781C254.922 3.66927 253.732 3.625 252.315 3.625H245.924C244.507 3.625 243.312 3.66927 242.338 3.75781C241.375 3.83529 240.578 4.0013 239.947 4.25586C239.316 4.51042 238.829 4.87565 238.486 5.35156C238.143 5.82747 237.894 6.45833 237.739 7.24414C237.584 8.02995 237.496 8.99837 237.474 10.1494C237.451 11.2894 237.44 12.6562 237.44 14.25C237.44 15.8438 237.451 17.2161 237.474 18.3672C237.507 19.5072 237.601 20.4701 237.756 21.2559C237.911 22.0417 238.154 22.6725 238.486 23.1484C238.829 23.6243 239.316 23.9896 239.947 24.2441C240.578 24.4987 241.375 24.6702 242.338 24.7588C243.312 24.8363 244.507 24.875 245.924 24.875H252.315Z" fill="url(#paint0_linear_317_484)" fill-opacity="0.3"/>
<path d="M8.09375 1.5V0.5C7.85316 0.5 7.62063 0.58674 7.43882 0.744311L8.09375 1.5ZM12.3438 1.5H13.3438C13.3438 0.947715 12.896 0.5 12.3438 0.5V1.5ZM12.3438 27V28C12.896 28 13.3438 27.5523 13.3438 27H12.3438ZM9.15625 27H8.15625C8.15625 27.5523 8.60397 28 9.15625 28V27ZM9.15625 4.15625H10.1562C10.1562 3.76572 9.92891 3.41092 9.57411 3.24774C9.21931 3.08455 8.80197 3.14284 8.50546 3.39699L9.15625 4.15625ZM1.71875 10.5312L0.91875 11.1312C1.08466 11.3525 1.33477 11.4951 1.60963 11.5253C1.8845 11.5555 2.15959 11.4705 2.36954 11.2905L1.71875 10.5312ZM0.125 8.40625L-0.529931 7.65056C-0.926603 7.99434 -0.989949 8.58632 -0.675 9.00625L0.125 8.40625ZM8.09375 2.5H12.3438V0.5H8.09375V2.5ZM11.3438 1.5V27H13.3438V1.5H11.3438ZM12.3438 26H9.15625V28H12.3438V26ZM10.1562 27V4.15625H8.15625V27H10.1562ZM8.50546 3.39699L1.06796 9.77199L2.36954 11.2905L9.80704 4.91551L8.50546 3.39699ZM2.51875 9.93125L0.925 7.80625L-0.675 9.00625L0.91875 11.1312L2.51875 9.93125ZM0.779931 9.16194L8.74868 2.25569L7.43882 0.744311L-0.529931 7.65056L0.779931 9.16194ZM24.9025 1.5V0.5C24.6619 0.5 24.4294 0.58674 24.2476 0.744311L24.9025 1.5ZM29.1525 1.5H30.1525C30.1525 0.947715 29.7048 0.5 29.1525 0.5V1.5ZM29.1525 27V28C29.7048 28 30.1525 27.5523 30.1525 27H29.1525ZM25.965 27H24.965C24.965 27.5523 25.4127 28 25.965 28V27ZM25.965 4.15625H26.965C26.965 3.76572 26.7377 3.41092 26.3829 3.24774C26.0281 3.08455 25.6107 3.14284 25.3142 3.39699L25.965 4.15625ZM18.5275 10.5312L17.7275 11.1312C17.8934 11.3525 18.1435 11.4951 18.4184 11.5253C18.6933 11.5555 18.9683 11.4705 19.1783 11.2905L18.5275 10.5312ZM16.9338 8.40625L16.2788 7.65056C15.8821 7.99434 15.8188 8.58632 16.1338 9.00625L16.9338 8.40625ZM24.9025 2.5H29.1525V0.5H24.9025V2.5ZM28.1525 1.5V27H30.1525V1.5H28.1525ZM29.1525 26H25.965V28H29.1525V26ZM26.965 27V4.15625H24.965V27H26.965ZM25.3142 3.39699L17.8767 9.77199L19.1783 11.2905L26.6158 4.91551L25.3142 3.39699ZM19.3275 9.93125L17.7338 7.80625L16.1338 9.00625L17.7275 11.1312L19.3275 9.93125ZM17.5887 9.16194L25.5574 2.25569L24.2476 0.744311L16.2788 7.65056L17.5887 9.16194ZM36.93 14.25V15.25C37.4823 15.25 37.93 14.8023 37.93 14.25H36.93ZM33.7425 14.25H32.7425C32.7425 14.8023 33.1902 15.25 33.7425 15.25V14.25ZM33.7425 11.0625V10.0625C33.1902 10.0625 32.7425 10.5102 32.7425 11.0625H33.7425ZM36.93 11.0625H37.93C37.93 10.5102 37.4823 10.0625 36.93 10.0625V11.0625ZM36.93 23.8125V24.8125C37.4823 24.8125 37.93 24.3648 37.93 23.8125H36.93ZM33.7425 23.8125H32.7425C32.7425 24.3648 33.1902 24.8125 33.7425 24.8125V23.8125ZM33.7425 20.625V19.625C33.1902 19.625 32.7425 20.0727 32.7425 20.625H33.7425ZM36.93 20.625H37.93C37.93 20.0727 37.4823 19.625 36.93 19.625V20.625ZM36.93 13.25H33.7425V15.25H36.93V13.25ZM34.7425 14.25V11.0625H32.7425V14.25H34.7425ZM33.7425 12.0625H36.93V10.0625H33.7425V12.0625ZM35.93 11.0625V14.25H37.93V11.0625H35.93ZM36.93 22.8125H33.7425V24.8125H36.93V22.8125ZM34.7425 23.8125V20.625H32.7425V23.8125H34.7425ZM33.7425 21.625H36.93V19.625H33.7425V21.625ZM35.93 20.625V23.8125H37.93V20.625H35.93ZM64.5132 1.33398L64.3328 2.31764L64.3422 2.31926L64.5132 1.33398ZM67.8169 2.41309L67.3255 3.28411L67.3341 3.28883L67.8169 2.41309ZM70.8218 6.7959L69.8437 7.00469L69.8461 7.01515L70.8218 6.7959ZM71.2036 10.1328L70.2039 10.1596L70.2042 10.1685L71.2036 10.1328ZM71.2036 18.3672L70.2042 18.3315L70.204 18.3404L71.2036 18.3672ZM70.8218 21.7041L69.846 21.4848L69.8438 21.4953L70.8218 21.7041ZM67.8169 26.1035L68.2997 26.9793L68.3082 26.9745L67.8169 26.1035ZM64.5132 27.166L64.3422 26.1807L64.3328 26.1824L64.5132 27.166ZM48.2768 27.166L48.4557 26.1821L48.4492 26.181L48.2768 27.166ZM44.9897 26.1035L44.4984 26.9745L44.5069 26.9793L44.9897 26.1035ZM42.9809 24.2773L42.1372 24.8143L42.1431 24.8232L42.9809 24.2773ZM41.9516 21.7041L40.9736 21.9129L40.976 21.9234L41.9516 21.7041ZM41.9516 6.7959L40.9759 6.57663L40.9737 6.58712L41.9516 6.7959ZM42.9809 4.22266L42.143 3.67674L42.1373 3.68578L42.9809 4.22266ZM44.9897 2.41309L45.4725 3.28887L45.481 3.28406L44.9897 2.41309ZM48.2768 1.33398L48.4492 2.31904L48.4557 2.31785L48.2768 1.33398ZM63.1684 24.7588L63.2486 25.7556L63.26 25.7546L63.1684 24.7588ZM67.02 23.1484L67.8312 23.7332L67.02 23.1484ZM68.0327 18.3672L67.0331 18.3384L67.0329 18.3478L68.0327 18.3672ZM68.0327 10.1494L67.0328 10.1686L67.0331 10.1785L68.0327 10.1494ZM65.5591 4.25586L65.1791 5.1809L65.1849 5.18321L65.5591 4.25586ZM63.1684 3.75781L63.0769 4.75369L63.0891 4.75466L63.1684 3.75781ZM49.6216 3.75781L49.7018 4.75464L49.7121 4.75371L49.6216 3.75781ZM44.7573 10.1494L45.7571 10.1688L45.7571 10.1686L44.7573 10.1494ZM44.7573 18.3672L43.7574 18.3864L43.7577 18.3963L44.7573 18.3672ZM45.77 23.1484L44.9499 23.7206C44.9528 23.7248 44.9558 23.7291 44.9588 23.7332L45.77 23.1484ZM49.6216 24.7588L49.53 25.7547L49.5423 25.7556L49.6216 24.7588ZM59.5991 1.96875C61.5106 1.96875 63.0839 2.08862 64.3328 2.31759L64.6935 0.350378C63.2862 0.0923654 61.5834 -0.03125 59.5991 -0.03125V1.96875ZM64.3422 2.31926C65.6077 2.53889 66.5911 2.86975 67.3256 3.28406L68.3082 1.54211C67.3161 0.982468 66.097 0.593924 64.6842 0.348713L64.3422 2.31926ZM67.3341 3.28883C68.0712 3.69516 68.6024 4.18907 68.9654 4.75953L70.6527 3.68578C70.0861 2.79531 69.2891 2.08283 68.2997 1.53734L67.3341 3.28883ZM68.9654 4.75953C69.3568 5.37455 69.6544 6.11745 69.8438 7.00468L71.7997 6.58712C71.5686 5.50429 71.191 4.5317 70.6527 3.68578L68.9654 4.75953ZM69.8461 7.01515C70.0505 7.92457 70.1721 8.97074 70.204 10.1596L72.2032 10.106C72.1687 8.81572 72.0358 7.63728 71.7974 6.57665L69.8461 7.01515ZM70.2042 10.1685C70.248 11.394 70.27 12.7543 70.27 14.25H72.27C72.27 12.7353 72.2477 11.3508 72.203 10.0971L70.2042 10.1685ZM70.27 14.25C70.27 15.7457 70.248 17.106 70.2042 18.3315L72.203 18.4029C72.2477 17.1492 72.27 15.7647 72.27 14.25H70.27ZM70.204 18.3404C70.1721 19.5293 70.0505 20.5754 69.8461 21.4849L71.7974 21.9234C72.0358 20.8627 72.1687 19.6843 72.2032 18.394L70.204 18.3404ZM69.8438 21.4953C69.6544 22.3825 69.3568 23.1254 68.9654 23.7405L70.6527 24.8142C71.191 23.9683 71.5686 22.9957 71.7997 21.9129L69.8438 21.4953ZM68.9654 23.7405C68.6008 24.3134 68.0666 24.8145 67.3256 25.2325L68.3082 26.9745C69.2937 26.4186 70.0876 25.7022 70.6527 24.8142L68.9654 23.7405ZM67.3341 25.2278C66.597 25.6341 65.6104 25.9606 64.3422 26.1807L64.6842 28.1513C66.0943 27.9066 67.3102 27.5247 68.2997 26.9793L67.3341 25.2278ZM64.3328 26.1824C63.0839 26.4114 61.5106 26.5312 59.5991 26.5312V28.5312C61.5834 28.5312 63.2862 28.4076 64.6935 28.1496L64.3328 26.1824ZM59.5991 26.5312H53.2075V28.5312H59.5991V26.5312ZM53.2075 26.5312C51.2963 26.5312 49.7167 26.4114 48.4557 26.1821L48.098 28.1499C49.5154 28.4076 51.2229 28.5312 53.2075 28.5312V26.5312ZM48.4492 26.181C47.1927 25.9611 46.2108 25.6348 45.4725 25.2278L44.5069 26.9793C45.4952 27.5241 46.7047 27.9061 48.1045 28.151L48.4492 26.181ZM45.481 25.2325C44.7384 24.8136 44.1956 24.3099 43.8188 23.7315L42.1431 24.8232C42.7181 25.7058 43.5145 26.4195 44.4984 26.9745L45.481 25.2325ZM43.8246 23.7405C43.4311 23.1221 43.1275 22.3755 42.9273 21.4849L40.976 21.9234C41.2185 23.0027 41.6011 23.9716 42.1373 24.8142L43.8246 23.7405ZM42.9296 21.4953C42.7346 20.582 42.618 19.5322 42.586 18.3404L40.5868 18.394C40.6212 19.6813 40.7481 20.8561 40.9737 21.9129L42.9296 21.4953ZM42.586 18.3404C42.5531 17.1114 42.5366 15.7481 42.5366 14.25H40.5366C40.5366 15.7623 40.5533 17.1438 40.5868 18.394L42.586 18.3404ZM42.5366 14.25C42.5366 12.7519 42.5531 11.3886 42.586 10.1596L40.5868 10.106C40.5533 11.3562 40.5366 12.7377 40.5366 14.25H42.5366ZM42.586 10.1596C42.618 8.96779 42.7346 7.91799 42.9296 7.00468L40.9737 6.58712C40.7481 7.64386 40.6212 8.81867 40.5868 10.106L42.586 10.1596ZM42.9273 7.01515C43.1275 6.12448 43.4311 5.37785 43.8246 4.75953L42.1373 3.68578C41.6011 4.5284 41.2185 5.49726 40.976 6.57665L42.9273 7.01515ZM43.8188 4.76854C44.194 4.19257 44.7338 3.69604 45.4725 3.28883L44.5069 1.53734C43.5191 2.08195 42.7196 2.7918 42.1431 3.67678L43.8188 4.76854ZM45.481 3.28406C46.2167 2.86906 47.1955 2.53841 48.4492 2.31901L48.1045 0.348954C46.7019 0.594398 45.4893 0.98315 44.4984 1.54211L45.481 3.28406ZM48.4557 2.31785C49.7167 2.08859 51.2963 1.96875 53.2075 1.96875V-0.03125C51.2229 -0.03125 49.5154 0.0924041 48.098 0.350114L48.4557 2.31785ZM53.2075 1.96875H59.5991V-0.03125H53.2075V1.96875ZM59.5991 25.875C61.0314 25.875 62.2499 25.8359 63.2486 25.7556L63.0882 23.762C62.1612 23.8366 61.0001 23.875 59.5991 23.875V25.875ZM63.26 25.7546C64.2826 25.6606 65.1829 25.4743 65.9333 25.1715L65.1849 23.3168C64.6736 23.5231 63.98 23.6799 63.0769 23.763L63.26 25.7546ZM65.9333 25.1715C66.7107 24.8578 67.361 24.3854 67.8312 23.7332L66.2088 22.5636C65.9928 22.8633 65.6691 23.1214 65.1849 23.3168L65.9333 25.1715ZM67.8312 23.7332C68.2832 23.1062 68.575 22.3277 68.7482 21.4493L66.786 21.0624C66.6493 21.7557 66.443 22.2389 66.2088 22.5636L67.8312 23.7332ZM68.7482 21.4493C68.9181 20.5878 69.0097 19.5627 69.0325 18.3866L67.0329 18.3478C67.0114 19.4516 66.926 20.3524 66.786 21.0624L68.7482 21.4493ZM69.0323 18.396C69.0658 17.2325 69.0825 15.85 69.0825 14.25H67.0825C67.0825 15.8375 67.066 17.1998 67.0331 18.3384L69.0323 18.396ZM69.0825 14.25C69.0825 12.65 69.0658 11.2729 69.0323 10.1203L67.0331 10.1785C67.066 11.3058 67.0825 12.6625 67.0825 14.25H69.0825ZM69.0325 10.1302C69.0097 8.94365 68.9182 7.91277 68.7482 7.05068L66.786 7.4376C66.9259 8.14712 67.0114 9.0531 67.0329 10.1686L69.0325 10.1302ZM68.7482 7.05068C68.575 6.17232 68.2832 5.3938 67.8312 4.76676L66.2088 5.93636C66.443 6.26115 66.6493 6.74435 66.786 7.4376L68.7482 7.05068ZM67.8312 4.76676C67.361 4.11457 66.7107 3.64222 65.9333 3.32851L65.1849 5.18321C65.6691 5.37862 65.9928 5.63674 66.2088 5.93636L67.8312 4.76676ZM65.939 3.33084C65.1903 3.02335 64.2822 2.84324 63.2477 2.76096L63.0891 4.75466C64.0026 4.82733 64.6882 4.97925 65.1791 5.18088L65.939 3.33084ZM63.26 2.76201C62.2563 2.66971 61.0337 2.625 59.5991 2.625V4.625C60.9978 4.625 62.1548 4.66883 63.0769 4.75361L63.26 2.76201ZM59.5991 2.625H53.2075V4.625H59.5991V2.625ZM53.2075 2.625C51.7727 2.625 50.5451 2.66973 49.531 2.76192L49.7121 4.75371C50.6459 4.66881 51.809 4.625 53.2075 4.625V2.625ZM49.5414 2.76103C48.5163 2.84351 47.6118 3.02384 46.8567 3.32851L47.6051 5.18321C48.1118 4.97877 48.8011 4.82706 49.7018 4.75459L49.5414 2.76103ZM46.8567 3.32851C46.0793 3.64222 45.429 4.11457 44.9588 4.76676L46.5812 5.93636C46.7972 5.63674 47.1209 5.37862 47.6051 5.18321L46.8567 3.32851ZM44.9588 4.76676C44.5068 5.3938 44.215 6.17232 44.0418 7.05068L46.004 7.4376C46.1407 6.74435 46.347 6.26115 46.5812 5.93636L44.9588 4.76676ZM44.0418 7.05068C43.8718 7.91277 43.7803 8.94365 43.7575 10.1302L45.7571 10.1686C45.7786 9.0531 45.8641 8.14712 46.004 7.4376L44.0418 7.05068ZM43.7575 10.13C43.7352 11.2784 43.7241 12.6521 43.7241 14.25H45.7241C45.7241 12.6604 45.7351 11.3004 45.7571 10.1688L43.7575 10.13ZM43.7241 14.25C43.7241 15.8479 43.7352 17.2271 43.7575 18.3864L45.7571 18.348C45.7351 17.2052 45.7241 15.8396 45.7241 14.25H43.7241ZM43.7577 18.3963C43.7919 19.5704 43.8894 20.592 44.0584 21.4493L46.0206 21.0624C45.8798 20.3482 45.7891 19.444 45.7569 18.3381L43.7577 18.3963ZM44.0584 21.4493C44.2306 22.3227 44.5144 23.0965 44.9499 23.7206L46.5901 22.5763C46.3615 22.2486 46.1583 21.7606 46.0206 21.0624L44.0584 21.4493ZM44.9588 23.7332C45.429 24.3854 46.0793 24.8578 46.8567 25.1715L47.6051 23.3168C47.1209 23.1214 46.7972 22.8633 46.5812 22.5636L44.9588 23.7332ZM46.8567 25.1715C47.6071 25.4743 48.5074 25.6606 49.53 25.7546L49.7131 23.763C48.81 23.6799 48.1164 23.5231 47.6051 23.3168L46.8567 25.1715ZM49.5423 25.7556C50.5514 25.8359 51.775 25.875 53.2075 25.875V23.875C51.8067 23.875 50.6396 23.8366 49.7009 23.7619L49.5423 25.7556ZM53.2075 25.875H59.5991V23.875H53.2075V25.875ZM98.8532 1.33398L98.6728 2.31764L98.6822 2.31926L98.8532 1.33398ZM102.157 2.41309L101.666 3.28411L101.674 3.28883L102.157 2.41309ZM105.162 6.7959L104.184 7.00469L104.186 7.01515L105.162 6.7959ZM105.544 10.1328L104.544 10.1596L104.544 10.1685L105.544 10.1328ZM105.544 18.3672L104.544 18.3315L104.544 18.3404L105.544 18.3672ZM105.162 21.7041L104.186 21.4848L104.184 21.4953L105.162 21.7041ZM102.157 26.1035L102.64 26.9793L102.648 26.9745L102.157 26.1035ZM98.8532 27.166L98.6822 26.1807L98.6728 26.1824L98.8532 27.166ZM82.6168 27.166L82.7957 26.1821L82.7892 26.181L82.6168 27.166ZM79.3297 26.1035L78.8384 26.9745L78.8469 26.9793L79.3297 26.1035ZM77.3209 24.2773L76.4772 24.8143L76.4831 24.8232L77.3209 24.2773ZM76.2916 21.7041L75.3136 21.9129L75.316 21.9234L76.2916 21.7041ZM76.2916 6.7959L75.3159 6.57663L75.3137 6.58712L76.2916 6.7959ZM77.3209 4.22266L76.483 3.67674L76.4773 3.68578L77.3209 4.22266ZM79.3297 2.41309L79.8125 3.28887L79.821 3.28406L79.3297 2.41309ZM82.6168 1.33398L82.7892 2.31904L82.7957 2.31785L82.6168 1.33398ZM97.5084 24.7588L97.5886 25.7556L97.6 25.7546L97.5084 24.7588ZM101.36 23.1484L102.171 23.7332L101.36 23.1484ZM102.373 18.3672L101.373 18.3384L101.373 18.3478L102.373 18.3672ZM102.373 10.1494L101.373 10.1686L101.373 10.1785L102.373 10.1494ZM99.8991 4.25586L99.5191 5.1809L99.5249 5.18321L99.8991 4.25586ZM97.5084 3.75781L97.4169 4.75369L97.4291 4.75466L97.5084 3.75781ZM83.9616 3.75781L84.0418 4.75464L84.0521 4.75371L83.9616 3.75781ZM79.0973 10.1494L80.0971 10.1688L80.0971 10.1686L79.0973 10.1494ZM79.0973 18.3672L78.0974 18.3864L78.0977 18.3963L79.0973 18.3672ZM80.11 23.1484L79.2899 23.7206C79.2928 23.7248 79.2958 23.7291 79.2988 23.7332L80.11 23.1484ZM83.9616 24.7588L83.87 25.7547L83.8823 25.7556L83.9616 24.7588ZM93.9391 1.96875C95.8506 1.96875 97.4239 2.08862 98.6728 2.31759L99.0335 0.350378C97.6262 0.0923654 95.9235 -0.03125 93.9391 -0.03125V1.96875ZM98.6822 2.31926C99.9477 2.53889 100.931 2.86975 101.666 3.28406L102.648 1.54211C101.656 0.982468 100.437 0.593924 99.0242 0.348713L98.6822 2.31926ZM101.674 3.28883C102.411 3.69516 102.942 4.18907 103.305 4.75953L104.993 3.68578C104.426 2.79531 103.629 2.08283 102.64 1.53734L101.674 3.28883ZM103.305 4.75953C103.697 5.37455 103.994 6.11745 104.184 7.00468L106.14 6.58712C105.909 5.50429 105.531 4.5317 104.993 3.68578L103.305 4.75953ZM104.186 7.01515C104.39 7.92457 104.512 8.97074 104.544 10.1596L106.543 10.106C106.509 8.81572 106.376 7.63728 106.137 6.57665L104.186 7.01515ZM104.544 10.1685C104.588 11.394 104.61 12.7543 104.61 14.25H106.61C106.61 12.7353 106.588 11.3508 106.543 10.0971L104.544 10.1685ZM104.61 14.25C104.61 15.7457 104.588 17.106 104.544 18.3315L106.543 18.4029C106.588 17.1492 106.61 15.7647 106.61 14.25H104.61ZM104.544 18.3404C104.512 19.5293 104.39 20.5754 104.186 21.4849L106.137 21.9234C106.376 20.8627 106.509 19.6843 106.543 18.394L104.544 18.3404ZM104.184 21.4953C103.994 22.3825 103.697 23.1254 103.305 23.7405L104.993 24.8142C105.531 23.9683 105.909 22.9957 106.14 21.9129L104.184 21.4953ZM103.305 23.7405C102.941 24.3134 102.407 24.8145 101.666 25.2325L102.648 26.9745C103.634 26.4186 104.428 25.7022 104.993 24.8142L103.305 23.7405ZM101.674 25.2278C100.937 25.6341 99.9504 25.9606 98.6822 26.1807L99.0242 28.1513C100.434 27.9066 101.65 27.5247 102.64 26.9793L101.674 25.2278ZM98.6728 26.1824C97.4239 26.4114 95.8506 26.5312 93.9391 26.5312V28.5312C95.9235 28.5312 97.6262 28.4076 99.0335 28.1496L98.6728 26.1824ZM93.9391 26.5312H87.5475V28.5312H93.9391V26.5312ZM87.5475 26.5312C85.6363 26.5312 84.0567 26.4114 82.7957 26.1821L82.438 28.1499C83.8554 28.4076 85.5629 28.5312 87.5475 28.5312V26.5312ZM82.7892 26.181C81.5327 25.9611 80.5508 25.6348 79.8125 25.2278L78.8469 26.9793C79.8352 27.5241 81.0447 27.9061 82.4445 28.151L82.7892 26.181ZM79.821 25.2325C79.0784 24.8136 78.5356 24.3099 78.1588 23.7315L76.4831 24.8232C77.0581 25.7058 77.8545 26.4195 78.8384 26.9745L79.821 25.2325ZM78.1646 23.7405C77.7711 23.1221 77.4675 22.3755 77.2673 21.4849L75.316 21.9234C75.5585 23.0027 75.9411 23.9716 76.4773 24.8142L78.1646 23.7405ZM77.2696 21.4953C77.0746 20.582 76.958 19.5322 76.926 18.3404L74.9268 18.394C74.9612 19.6813 75.0881 20.8561 75.3137 21.9129L77.2696 21.4953ZM76.926 18.3404C76.8931 17.1114 76.8766 15.7481 76.8766 14.25H74.8766C74.8766 15.7623 74.8933 17.1438 74.9268 18.394L76.926 18.3404ZM76.8766 14.25C76.8766 12.7519 76.8931 11.3886 76.926 10.1596L74.9268 10.106C74.8933 11.3562 74.8766 12.7377 74.8766 14.25H76.8766ZM76.926 10.1596C76.958 8.96779 77.0746 7.91799 77.2696 7.00468L75.3137 6.58712C75.0881 7.64386 74.9612 8.81867 74.9268 10.106L76.926 10.1596ZM77.2673 7.01515C77.4675 6.12448 77.7711 5.37785 78.1646 4.75953L76.4773 3.68578C75.9411 4.5284 75.5585 5.49726 75.316 6.57665L77.2673 7.01515ZM78.1588 4.76854C78.534 4.19257 79.0738 3.69604 79.8125 3.28883L78.8469 1.53734C77.8591 2.08195 77.0596 2.7918 76.4831 3.67678L78.1588 4.76854ZM79.821 3.28406C80.5567 2.86906 81.5355 2.53841 82.7892 2.31901L82.4445 0.348954C81.0419 0.594398 79.8293 0.98315 78.8384 1.54211L79.821 3.28406ZM82.7957 2.31785C84.0567 2.08859 85.6363 1.96875 87.5475 1.96875V-0.03125C85.5629 -0.03125 83.8554 0.0924041 82.438 0.350114L82.7957 2.31785ZM87.5475 1.96875H93.9391V-0.03125H87.5475V1.96875ZM93.9391 25.875C95.3714 25.875 96.5899 25.8359 97.5886 25.7556L97.4282 23.762C96.5012 23.8366 95.3401 23.875 93.9391 23.875V25.875ZM97.6 25.7546C98.6226 25.6606 99.5229 25.4743 100.273 25.1715L99.5249 23.3168C99.0136 23.5231 98.32 23.6799 97.4169 23.763L97.6 25.7546ZM100.273 25.1715C101.051 24.8578 101.701 24.3854 102.171 23.7332L100.549 22.5636C100.333 22.8633 100.009 23.1214 99.5249 23.3168L100.273 25.1715ZM102.171 23.7332C102.623 23.1062 102.915 22.3277 103.088 21.4493L101.126 21.0624C100.989 21.7557 100.783 22.2389 100.549 22.5636L102.171 23.7332ZM103.088 21.4493C103.258 20.5878 103.35 19.5627 103.373 18.3866L101.373 18.3478C101.351 19.4516 101.266 20.3524 101.126 21.0624L103.088 21.4493ZM103.372 18.396C103.406 17.2325 103.423 15.85 103.423 14.25H101.423C101.423 15.8375 101.406 17.1998 101.373 18.3384L103.372 18.396ZM103.423 14.25C103.423 12.65 103.406 11.2729 103.372 10.1203L101.373 10.1785C101.406 11.3058 101.423 12.6625 101.423 14.25H103.423ZM103.373 10.1302C103.35 8.94365 103.258 7.91277 103.088 7.05068L101.126 7.4376C101.266 8.14712 101.351 9.0531 101.373 10.1686L103.373 10.1302ZM103.088 7.05068C102.915 6.17232 102.623 5.3938 102.171 4.76676L100.549 5.93636C100.783 6.26115 100.989 6.74435 101.126 7.4376L103.088 7.05068ZM102.171 4.76676C101.701 4.11457 101.051 3.64222 100.273 3.32851L99.5249 5.18321C100.009 5.37862 100.333 5.63674 100.549 5.93636L102.171 4.76676ZM100.279 3.33084C99.5303 3.02335 98.6222 2.84324 97.5877 2.76096L97.4291 4.75466C98.3426 4.82733 99.0282 4.97925 99.5191 5.18088L100.279 3.33084ZM97.6 2.76201C96.5963 2.66971 95.3737 2.625 93.9391 2.625V4.625C95.3378 4.625 96.4948 4.66883 97.4169 4.75361L97.6 2.76201ZM93.9391 2.625H87.5475V4.625H93.9391V2.625ZM87.5475 2.625C86.1127 2.625 84.8851 2.66973 83.871 2.76192L84.0521 4.75371C84.9859 4.66881 86.149 4.625 87.5475 4.625V2.625ZM83.8814 2.76103C82.8563 2.84351 81.9518 3.02384 81.1967 3.32851L81.9451 5.18321C82.4518 4.97877 83.1411 4.82706 84.0418 4.75459L83.8814 2.76103ZM81.1967 3.32851C80.4193 3.64222 79.769 4.11457 79.2988 4.76676L80.9212 5.93636C81.1372 5.63674 81.4609 5.37862 81.9451 5.18321L81.1967 3.32851ZM79.2988 4.76676C78.8468 5.3938 78.555 6.17232 78.3818 7.05068L80.344 7.4376C80.4807 6.74435 80.687 6.26115 80.9212 5.93636L79.2988 4.76676ZM78.3818 7.05068C78.2118 7.91277 78.1203 8.94365 78.0975 10.1302L80.0971 10.1686C80.1186 9.0531 80.2041 8.14712 80.344 7.4376L78.3818 7.05068ZM78.0975 10.13C78.0752 11.2784 78.0641 12.6521 78.0641 14.25H80.0641C80.0641 12.6604 80.0751 11.3004 80.0971 10.1688L78.0975 10.13ZM78.0641 14.25C78.0641 15.8479 78.0752 17.2271 78.0975 18.3864L80.0971 18.348C80.0751 17.2052 80.0641 15.8396 80.0641 14.25H78.0641ZM78.0977 18.3963C78.1319 19.5704 78.2294 20.592 78.3984 21.4493L80.3606 21.0624C80.2198 20.3482 80.1291 19.444 80.0969 18.3381L78.0977 18.3963ZM78.3984 21.4493C78.5706 22.3227 78.8544 23.0965 79.2899 23.7206L80.9301 22.5763C80.7015 22.2486 80.4983 21.7606 80.3606 21.0624L78.3984 21.4493ZM79.2988 23.7332C79.769 24.3854 80.4193 24.8578 81.1967 25.1715L81.9451 23.3168C81.4609 23.1214 81.1372 22.8633 80.9212 22.5636L79.2988 23.7332ZM81.1967 25.1715C81.9471 25.4743 82.8474 25.6606 83.87 25.7546L84.0531 23.763C83.15 23.6799 82.4564 23.5231 81.9451 23.3168L81.1967 25.1715ZM83.8823 25.7556C84.8914 25.8359 86.115 25.875 87.5475 25.875V23.875C86.1467 23.875 84.9796 23.8366 84.0409 23.7619L83.8823 25.7556ZM87.5475 25.875H93.9391V23.875H87.5475V25.875ZM117.978 15.8438V14.8438C117.425 14.8438 116.978 15.2915 116.978 15.8438H117.978ZM130.728 15.8438H131.728C131.728 15.2915 131.28 14.8438 130.728 14.8438V15.8438ZM130.728 18.5V19.5C131.28 19.5 131.728 19.0523 131.728 18.5H130.728ZM117.978 18.5H116.978C116.978 19.0523 117.425 19.5 117.978 19.5V18.5ZM117.978 16.8438H130.728V14.8438H117.978V16.8438ZM129.728 15.8438V18.5H131.728V15.8438H129.728ZM130.728 17.5H117.978V19.5H130.728V17.5ZM118.978 18.5V15.8438H116.978V18.5H118.978ZM151.064 1.5V0.5C150.823 0.5 150.591 0.58674 150.409 0.744311L151.064 1.5ZM155.314 1.5H156.314C156.314 0.947715 155.866 0.5 155.314 0.5V1.5ZM155.314 27V28C155.866 28 156.314 27.5523 156.314 27H155.314ZM152.126 27H151.126C151.126 27.5523 151.574 28 152.126 28V27ZM152.126 4.15625H153.126C153.126 3.76572 152.899 3.41092 152.544 3.24774C152.189 3.08455 151.772 3.14284 151.475 3.39699L152.126 4.15625ZM144.689 10.5312L143.889 11.1312C144.055 11.3525 144.305 11.4951 144.58 11.5253C144.855 11.5555 145.13 11.4705 145.34 11.2905L144.689 10.5312ZM143.095 8.40625L142.44 7.65056C142.043 7.99434 141.98 8.58632 142.295 9.00625L143.095 8.40625ZM151.064 2.5H155.314V0.5H151.064V2.5ZM154.314 1.5V27H156.314V1.5H154.314ZM155.314 26H152.126V28H155.314V26ZM153.126 27V4.15625H151.126V27H153.126ZM151.475 3.39699L144.038 9.77199L145.34 11.2905L152.777 4.91551L151.475 3.39699ZM145.489 9.93125L143.895 7.80625L142.295 9.00625L143.889 11.1312L145.489 9.93125ZM143.75 9.16194L151.719 2.25569L150.409 0.744311L142.44 7.65056L143.75 9.16194ZM169.466 27V28C169.758 28 170.036 27.8724 170.226 27.6508L169.466 27ZM165.216 27L164.458 26.3478C164.203 26.644 164.144 27.0617 164.307 27.417C164.47 27.7723 164.825 28 165.216 28V27ZM184.872 4.15625L185.631 4.80849C185.885 4.5122 185.944 4.09453 185.781 3.73926C185.618 3.38399 185.263 3.15625 184.872 3.15625V4.15625ZM159.904 4.15625H158.904C158.904 4.70853 159.351 5.15625 159.904 5.15625V4.15625ZM159.904 1.5V0.5C159.351 0.5 158.904 0.947715 158.904 1.5H159.904ZM188.591 1.5H189.591C189.591 0.947715 189.144 0.5 188.591 0.5V1.5ZM188.591 4.6875L189.351 5.33829C189.506 5.15705 189.591 4.92621 189.591 4.6875H188.591ZM169.466 26H165.216V28H169.466V26ZM165.974 27.6522L185.631 4.80849L184.114 3.50401L164.458 26.3478L165.974 27.6522ZM184.872 3.15625H159.904V5.15625H184.872V3.15625ZM160.904 4.15625V1.5H158.904V4.15625H160.904ZM159.904 2.5H188.591V0.5H159.904V2.5ZM187.591 1.5V4.6875H189.591V1.5H187.591ZM187.832 4.03671L168.707 26.3492L170.226 27.6508L189.351 5.33829L187.832 4.03671ZM196.369 14.25V15.25C196.921 15.25 197.369 14.8023 197.369 14.25H196.369ZM193.181 14.25H192.181C192.181 14.8023 192.629 15.25 193.181 15.25V14.25ZM193.181 11.0625V10.0625C192.629 10.0625 192.181 10.5102 192.181 11.0625H193.181ZM196.369 11.0625H197.369C197.369 10.5102 196.921 10.0625 196.369 10.0625V11.0625ZM196.369 23.8125V24.8125C196.921 24.8125 197.369 24.3648 197.369 23.8125H196.369ZM193.181 23.8125H192.181C192.181 24.3648 192.629 24.8125 193.181 24.8125V23.8125ZM193.181 20.625V19.625C192.629 19.625 192.181 20.0727 192.181 20.625H193.181ZM196.369 20.625H197.369C197.369 20.0727 196.921 19.625 196.369 19.625V20.625ZM196.369 13.25H193.181V15.25H196.369V13.25ZM194.181 14.25V11.0625H192.181V14.25H194.181ZM193.181 12.0625H196.369V10.0625H193.181V12.0625ZM195.369 11.0625V14.25H197.369V11.0625H195.369ZM196.369 22.8125H193.181V24.8125H196.369V22.8125ZM194.181 23.8125V20.625H192.181V23.8125H194.181ZM193.181 21.625H196.369V19.625H193.181V21.625ZM195.369 20.625V23.8125H197.369V20.625H195.369ZM225.645 12.0088L224.938 11.3017L225.645 12.0088ZM224.317 4.28906L223.942 5.2162L223.949 5.21887L224.317 4.28906ZM219.569 3.6582L219.548 4.65804L219.559 4.65815L219.569 3.6582ZM210.903 3.70801L210.936 4.70748L210.944 4.70716L210.903 3.70801ZM207.599 3.99023L207.751 4.97866L207.762 4.97696L207.599 3.99023ZM204.578 5.51758L203.704 5.03191L203.699 5.04049L204.578 5.51758ZM204.196 6.94531L203.199 6.86712C203.199 6.87361 203.198 6.8801 203.198 6.88659L204.196 6.94531ZM204.146 8.9375V9.9375C204.699 9.9375 205.146 9.48978 205.146 8.9375H204.146ZM200.959 8.9375H199.959C199.959 9.48978 200.406 9.9375 200.959 9.9375V8.9375ZM201.39 5.55078L200.439 5.24142L200.436 5.25185L201.39 5.55078ZM202.685 3.29297L201.965 2.59933L201.965 2.59959L202.685 3.29297ZM204.81 1.93164L205.156 2.87005L205.167 2.86593L204.81 1.93164ZM207.716 1.25098L207.836 2.24375L207.845 2.24263L207.716 1.25098ZM211.401 1.00195L211.385 0.00208529L211.385 0.00208747L211.401 1.00195ZM220.167 1.05176L220.124 2.05088L220.133 2.05118L220.167 1.05176ZM223.653 1.38379L223.482 2.369L223.484 2.36931L223.653 1.38379ZM228.185 3.5752L227.41 4.20687C227.414 4.2121 227.419 4.21728 227.423 4.22243L228.185 3.5752ZM229.281 5.7666L228.315 6.02352L228.318 6.03487L229.281 5.7666ZM229.48 10.9629L228.5 10.7668C228.498 10.7731 228.497 10.7794 228.496 10.7857L229.48 10.9629ZM228.999 12.374L228.131 11.8779L228.126 11.8862L228.999 12.374ZM228.185 13.3203L228.777 14.1267C228.782 14.1225 228.788 14.1182 228.794 14.1139L228.185 13.3203ZM226.99 13.9844L226.596 13.0652C226.228 13.2228 225.99 13.5843 225.99 13.9844C225.99 14.3844 226.228 14.7459 226.596 14.9035L226.99 13.9844ZM228.999 15.8936L228.091 16.314C228.096 16.323 228.1 16.3319 228.104 16.3408L228.999 15.8936ZM229.48 17.4707L228.493 17.6322C228.494 17.6391 228.496 17.6459 228.497 17.6528L229.48 17.4707ZM229.281 22.7334L228.318 22.4651L228.315 22.4765L229.281 22.7334ZM228.185 24.9414L227.417 24.3012L227.416 24.3027L228.185 24.9414ZM223.653 27.1162L223.484 26.1307L223.482 26.131L223.653 27.1162ZM220.167 27.4482L220.133 26.4488L220.124 26.4492L220.167 27.4482ZM211.401 27.498L211.385 28.4979L211.385 28.4979L211.401 27.498ZM207.716 27.2324L207.576 28.2226L207.577 28.2228L207.716 27.2324ZM204.81 26.502L204.433 27.4279L204.443 27.4321L204.81 26.502ZM202.685 25.041L201.94 25.7078L201.947 25.715L202.685 25.041ZM201.39 22.6338L200.431 22.9172L200.434 22.9271L201.39 22.6338ZM200.959 19.0312V18.0312C200.406 18.0312 199.959 18.479 199.959 19.0312H200.959ZM204.146 19.0312H205.146C205.146 18.479 204.699 18.0312 204.146 18.0312V19.0312ZM204.213 21.2227L203.215 21.2939L203.215 21.2952L204.213 21.2227ZM205.607 23.8457L205.096 24.705C205.101 24.708 205.106 24.711 205.111 24.7139L205.607 23.8457ZM207.599 24.4766L207.423 25.4608L207.425 25.4612L207.599 24.4766ZM210.903 24.792L210.861 25.7911L210.862 25.7911L210.903 24.792ZM219.569 24.8584L219.579 25.8584L219.59 25.8582L219.569 24.8584ZM224.317 24.2109L223.949 23.2811L223.942 23.2838L224.317 24.2109ZM226.243 17.3213L225.27 17.5503L225.271 17.5547L226.243 17.3213ZM225.645 16.0264L224.884 16.6748C224.889 16.6802 224.893 16.6855 224.898 16.6907L225.645 16.0264ZM211.584 15.3125H210.584C210.584 15.8648 211.031 16.3125 211.584 16.3125V15.3125ZM211.584 12.6562V11.6562C211.031 11.6562 210.584 12.104 210.584 12.6562H211.584ZM223.271 13.6562C223.855 13.6562 224.395 13.6079 224.883 13.4996L224.449 11.5473C224.139 11.6161 223.75 11.6562 223.271 11.6562V13.6562ZM224.883 13.4996C225.441 13.3755 225.946 13.1223 226.352 12.7159L224.938 11.3017C224.835 11.4044 224.687 11.4943 224.449 11.5473L224.883 13.4996ZM226.352 12.7159C226.776 12.292 227.044 11.7423 227.208 11.143L225.278 10.6168C225.176 10.9914 225.046 11.1943 224.938 11.3017L226.352 12.7159ZM227.208 11.143C227.373 10.5357 227.442 9.79491 227.442 8.9541H225.442C225.442 9.70704 225.378 10.2501 225.278 10.6168L227.208 11.143ZM227.442 8.9541C227.442 8.02434 227.373 7.20091 227.22 6.49972L225.266 6.92606C225.379 7.44232 225.442 8.11303 225.442 8.9541H227.442ZM227.22 6.49972C227.063 5.77851 226.789 5.12887 226.368 4.58821L224.79 5.81609C224.989 6.0723 225.158 6.42982 225.266 6.92606L227.22 6.49972ZM226.368 4.58821C225.935 4.03088 225.36 3.62645 224.685 3.35926L223.949 5.21887C224.337 5.37225 224.603 5.57654 224.79 5.81609L226.368 4.58821ZM224.692 3.36195C224.067 3.10917 223.323 2.93854 222.484 2.83216L222.232 4.81628C222.965 4.90912 223.527 5.04838 223.942 5.21617L224.692 3.36195ZM222.484 2.83216C221.649 2.72634 220.679 2.66959 219.579 2.65826L219.559 4.65815C220.606 4.66895 221.496 4.72288 222.232 4.81628L222.484 2.83216ZM219.59 2.65842C218.508 2.6361 217.255 2.625 215.834 2.625V4.625C217.246 4.625 218.484 4.63603 219.548 4.65799L219.59 2.65842ZM215.834 2.625C213.878 2.625 212.219 2.65276 210.862 2.70886L210.944 4.70716C212.265 4.65258 213.894 4.625 215.834 4.625V2.625ZM210.87 2.70856C209.517 2.75364 208.369 2.85006 207.437 3.0035L207.762 4.97696C208.578 4.84265 209.632 4.75092 210.936 4.70745L210.87 2.70856ZM207.447 3.00186C206.537 3.14185 205.749 3.35146 205.143 3.66886L206.071 5.44052C206.395 5.27093 206.935 5.10425 207.751 4.97861L207.447 3.00186ZM205.143 3.66886C204.532 3.98882 204.034 4.43827 203.704 5.03194L205.452 6.00322C205.565 5.80002 205.752 5.60753 206.071 5.44052L205.143 3.66886ZM203.699 5.04049C203.406 5.58082 203.251 6.20112 203.199 6.86712L205.193 7.0235C205.229 6.5606 205.33 6.22908 205.457 5.99467L203.699 5.04049ZM203.198 6.88659C203.163 7.476 203.146 8.16052 203.146 8.9375H205.146C205.146 8.18713 205.163 7.54353 205.194 7.00403L203.198 6.88659ZM204.146 7.9375H200.959V9.9375H204.146V7.9375ZM201.959 8.9375C201.959 7.66319 202.096 6.64202 202.345 5.84971L200.436 5.25185C200.109 6.29679 199.959 7.53342 199.959 8.9375H201.959ZM202.341 5.86013C202.602 5.05869 202.964 4.44548 203.406 3.98635L201.965 2.59959C201.278 3.31363 200.776 4.20563 200.439 5.24144L202.341 5.86013ZM203.406 3.98661C203.868 3.50634 204.445 3.13193 205.156 2.86998L204.465 0.993298C203.493 1.35114 202.654 1.88428 201.965 2.59933L203.406 3.98661ZM205.167 2.86593C205.917 2.57965 206.804 2.36884 207.836 2.24371L207.595 0.258243C206.436 0.398738 205.386 0.641709 204.454 0.997348L205.167 2.86593ZM207.845 2.24263C208.907 2.10448 210.097 2.02346 211.418 2.00182L211.385 0.00208747C210.004 0.0247167 208.738 0.109708 207.587 0.259321L207.845 2.24263ZM211.417 2.00182C212.772 1.97979 214.245 1.96875 215.834 1.96875V-0.03125C214.235 -0.03125 212.752 -0.0201515 211.385 0.0020853L211.417 2.00182ZM215.834 1.96875C217.416 1.96875 218.846 1.99623 220.124 2.05085L220.209 0.0526697C218.898 -0.0033955 217.439 -0.03125 215.834 -0.03125V1.96875ZM220.133 2.05118C221.404 2.09428 222.519 2.20156 223.482 2.369L223.824 0.398577C222.751 0.211848 221.541 0.0977777 220.201 0.0523319L220.133 2.05118ZM223.484 2.36931C224.449 2.53545 225.254 2.7744 225.911 3.07397L226.741 1.25415C225.893 0.86753 224.916 0.586293 223.823 0.398268L223.484 2.36931ZM225.911 3.07397C226.534 3.35802 227.027 3.73701 227.41 4.20687L228.961 2.94352C228.369 2.21807 227.623 1.6563 226.741 1.25415L225.911 3.07397ZM227.423 4.22243C227.809 4.67747 228.114 5.26776 228.315 6.0235L230.247 5.5097C229.984 4.51674 229.557 3.6461 228.948 2.92796L227.423 4.22243ZM228.318 6.03487C228.53 6.79661 228.646 7.75797 228.646 8.9375H230.646C230.646 7.63786 230.519 6.48529 230.244 5.49833L228.318 6.03487ZM228.646 8.9375C228.646 9.69312 228.593 10.2983 228.5 10.7668L230.461 11.159C230.588 10.5207 230.646 9.77563 230.646 8.9375H228.646ZM228.496 10.7857C228.412 11.2549 228.283 11.6114 228.131 11.8779L229.867 12.8702C230.157 12.3619 230.35 11.7777 230.464 11.14L228.496 10.7857ZM228.126 11.8862C227.98 12.1473 227.798 12.3575 227.577 12.5267L228.794 14.1139C229.237 13.774 229.597 13.3533 229.872 12.8618L228.126 11.8862ZM227.594 12.5139C227.335 12.7036 227.006 12.8894 226.596 13.0652L227.384 14.9035C227.903 14.6809 228.371 14.424 228.777 14.1267L227.594 12.5139ZM226.596 14.9035C226.967 15.0623 227.265 15.2565 227.503 15.4791L228.868 14.017C228.442 13.6198 227.943 13.3049 227.384 13.0652L226.596 14.9035ZM227.503 15.4791C227.732 15.6924 227.93 15.9654 228.091 16.314L229.906 15.4731C229.647 14.9141 229.303 14.4234 228.868 14.017L227.503 15.4791ZM228.104 16.3408C228.271 16.6745 228.406 17.0995 228.493 17.6322L230.467 17.3092C230.355 16.6245 230.169 15.9981 229.893 15.4463L228.104 16.3408ZM228.497 17.6528C228.594 18.1752 228.646 18.809 228.646 19.5625H230.646C230.646 18.7222 230.588 17.9615 230.464 17.2886L228.497 17.6528ZM228.646 19.5625C228.646 20.742 228.53 21.7034 228.318 22.4651L230.244 23.0017C230.519 22.0147 230.646 20.8621 230.646 19.5625H228.646ZM228.315 22.4765C228.113 23.233 227.808 23.8322 227.417 24.3012L228.954 25.5816C229.559 24.8553 229.984 23.9825 230.247 22.9903L228.315 22.4765ZM227.416 24.3027C227.033 24.7637 226.538 25.14 225.911 25.426L226.741 27.2458C227.619 26.8456 228.364 26.2923 228.955 25.5802L227.416 24.3027ZM225.911 25.426C225.254 25.7256 224.449 25.9645 223.484 26.1307L223.823 28.1017C224.916 27.9137 225.893 27.6325 226.741 27.2458L225.911 25.426ZM223.482 26.131C222.519 26.2984 221.404 26.4057 220.133 26.4488L220.201 28.4477C221.541 28.4022 222.751 28.2882 223.824 28.1014L223.482 26.131ZM220.124 26.4492C218.846 26.5038 217.416 26.5312 215.834 26.5312V28.5312C217.439 28.5312 218.898 28.5034 220.209 28.4473L220.124 26.4492ZM215.834 26.5312C214.245 26.5312 212.772 26.5202 211.417 26.4982L211.385 28.4979C212.752 28.5202 214.235 28.5312 215.834 28.5312V26.5312ZM211.418 26.4982C210.1 26.4766 208.913 26.3903 207.854 26.2421L207.577 28.2228C208.732 28.3844 210.002 28.4752 211.385 28.4979L211.418 26.4982ZM207.856 26.2423C206.821 26.096 205.931 25.8694 205.177 25.5718L204.443 27.4321C205.372 27.7986 206.419 28.059 207.576 28.2226L207.856 26.2423ZM205.188 25.576C204.475 25.2854 203.893 24.8812 203.424 24.3671L201.947 25.715C202.629 26.4625 203.463 27.0323 204.433 27.4279L205.188 25.576ZM203.431 24.3742C202.98 23.8708 202.611 23.2038 202.346 22.3405L200.434 22.9271C200.767 24.0117 201.262 24.9495 201.94 25.7078L203.431 24.3742ZM202.349 22.3504C202.097 21.4973 201.959 20.3987 201.959 19.0312H199.959C199.959 20.5193 200.108 21.8223 200.431 22.9171L202.349 22.3504ZM200.959 20.0312H204.146V18.0312H200.959V20.0312ZM203.146 19.0312C203.146 19.8885 203.169 20.6438 203.215 21.2939L205.21 21.1514C205.168 20.5619 205.146 19.8563 205.146 19.0312H203.146ZM203.215 21.2952C203.266 21.9979 203.417 22.6487 203.696 23.2212L205.493 22.3452C205.352 22.0544 205.247 21.6649 205.21 21.1501L203.215 21.2952ZM203.696 23.2212C204.002 23.8496 204.485 24.3417 205.096 24.705L206.119 22.9864C205.799 22.7964 205.608 22.5801 205.493 22.3452L203.696 23.2212ZM205.111 24.7139C205.718 25.0608 206.509 25.2969 207.423 25.4608L207.776 23.4923C206.963 23.3463 206.426 23.1619 206.103 22.9775L205.111 24.7139ZM207.425 25.4612C208.359 25.6267 209.508 25.7347 210.861 25.7911L210.945 23.7929C209.642 23.7386 208.589 23.6363 207.774 23.4919L207.425 25.4612ZM210.862 25.7911C212.219 25.8472 213.878 25.875 215.834 25.875V23.875C213.894 23.875 212.265 23.8474 210.944 23.7928L210.862 25.7911ZM215.834 25.875C217.253 25.875 218.502 25.8695 219.579 25.8583L219.559 23.8585C218.49 23.8695 217.248 23.875 215.834 23.875V25.875ZM219.59 25.8582C220.687 25.8356 221.653 25.7731 222.484 25.6678L222.232 23.6837C221.491 23.7777 220.598 23.837 219.548 23.8586L219.59 25.8582ZM222.484 25.6678C223.323 25.5615 224.067 25.3908 224.692 25.138L223.942 23.2838C223.527 23.4516 222.965 23.5909 222.232 23.6837L222.484 25.6678ZM224.685 25.1407C225.36 24.8736 225.935 24.4691 226.368 23.9118L224.79 22.6839C224.603 22.9235 224.337 23.1277 223.949 23.2811L224.685 25.1407ZM226.368 23.9118C226.789 23.3711 227.063 22.7215 227.22 22.0003L225.266 21.5739C225.158 22.0702 224.989 22.4277 224.79 22.6839L226.368 23.9118ZM227.22 22.0003C227.373 21.2991 227.442 20.4757 227.442 19.5459H225.442C225.442 20.387 225.379 21.0577 225.266 21.5739L227.22 22.0003ZM227.442 19.5459C227.442 18.5804 227.374 17.7504 227.215 17.0879L225.271 17.5547C225.377 17.9989 225.442 18.652 225.442 19.5459H227.442ZM227.216 17.0922C227.061 16.4341 226.807 15.8283 226.393 15.362L224.898 16.6907C225.015 16.8221 225.159 17.0796 225.27 17.5503L227.216 17.0922ZM226.407 15.3779C226.005 14.9066 225.484 14.6028 224.883 14.4691L224.449 16.4215C224.644 16.4649 224.776 16.5484 224.884 16.6748L226.407 15.3779ZM224.883 14.4691C224.395 14.3608 223.855 14.3125 223.271 14.3125V16.3125C223.75 16.3125 224.139 16.3527 224.449 16.4215L224.883 14.4691ZM223.271 14.3125H211.584V16.3125H223.271V14.3125ZM212.584 15.3125V12.6562H210.584V15.3125H212.584ZM211.584 13.6562H223.271V11.6562H211.584V13.6562ZM257.229 1.33398L257.049 2.31764L257.058 2.31926L257.229 1.33398ZM260.533 2.41309L260.042 3.28411L260.05 3.28883L260.533 2.41309ZM263.538 6.7959L262.56 7.00469L262.562 7.01515L263.538 6.7959ZM263.92 10.1328L262.92 10.1596L262.92 10.1685L263.92 10.1328ZM263.92 18.3672L262.92 18.3315L262.92 18.3404L263.92 18.3672ZM263.538 21.7041L262.562 21.4848L262.56 21.4953L263.538 21.7041ZM260.533 26.1035L261.016 26.9793L261.024 26.9745L260.533 26.1035ZM257.229 27.166L257.058 26.1807L257.049 26.1824L257.229 27.166ZM240.993 27.166L241.172 26.1821L241.165 26.181L240.993 27.166ZM237.706 26.1035L237.215 26.9745L237.223 26.9793L237.706 26.1035ZM235.697 24.2773L234.853 24.8143L234.859 24.8232L235.697 24.2773ZM234.668 21.7041L233.69 21.9129L233.692 21.9234L234.668 21.7041ZM234.668 6.7959L233.692 6.57663L233.69 6.58712L234.668 6.7959ZM235.697 4.22266L234.859 3.67674L234.854 3.68578L235.697 4.22266ZM237.706 2.41309L238.189 3.28887L238.197 3.28406L237.706 2.41309ZM240.993 1.33398L241.165 2.31904L241.172 2.31785L240.993 1.33398ZM255.885 24.7588L255.965 25.7556L255.976 25.7546L255.885 24.7588ZM259.736 23.1484L260.547 23.7332L259.736 23.1484ZM260.749 18.3672L259.749 18.3384L259.749 18.3478L260.749 18.3672ZM260.749 10.1494L259.749 10.1686L259.749 10.1785L260.749 10.1494ZM258.275 4.25586L257.895 5.1809L257.901 5.18321L258.275 4.25586ZM255.885 3.75781L255.793 4.75369L255.805 4.75466L255.885 3.75781ZM242.338 3.75781L242.418 4.75464L242.428 4.75371L242.338 3.75781ZM237.474 10.1494L238.473 10.1688L238.473 10.1686L237.474 10.1494ZM237.474 18.3672L236.474 18.3864L236.474 18.3963L237.474 18.3672ZM238.486 23.1484L237.666 23.7206C237.669 23.7248 237.672 23.7291 237.675 23.7332L238.486 23.1484ZM242.338 24.7588L242.246 25.7547L242.259 25.7556L242.338 24.7588ZM252.315 1.96875C254.227 1.96875 255.8 2.08862 257.049 2.31759L257.41 0.350378C256.002 0.0923654 254.3 -0.03125 252.315 -0.03125V1.96875ZM257.058 2.31926C258.324 2.53889 259.307 2.86975 260.042 3.28406L261.024 1.54211C260.032 0.982468 258.813 0.593924 257.4 0.348713L257.058 2.31926ZM260.05 3.28883C260.787 3.69516 261.319 4.18907 261.682 4.75953L263.369 3.68578C262.802 2.79531 262.005 2.08283 261.016 1.53734L260.05 3.28883ZM261.682 4.75953C262.073 5.37455 262.371 6.11745 262.56 7.00468L264.516 6.58712C264.285 5.50429 263.907 4.5317 263.369 3.68578L261.682 4.75953ZM262.562 7.01515C262.767 7.92457 262.888 8.97074 262.92 10.1596L264.919 10.106C264.885 8.81572 264.752 7.63728 264.514 6.57665L262.562 7.01515ZM262.92 10.1685C262.964 11.394 262.986 12.7543 262.986 14.25H264.986C264.986 12.7353 264.964 11.3508 264.919 10.0971L262.92 10.1685ZM262.986 14.25C262.986 15.7457 262.964 17.106 262.92 18.3315L264.919 18.4029C264.964 17.1492 264.986 15.7647 264.986 14.25H262.986ZM262.92 18.3404C262.888 19.5293 262.767 20.5754 262.562 21.4849L264.514 21.9234C264.752 20.8627 264.885 19.6843 264.919 18.394L262.92 18.3404ZM262.56 21.4953C262.371 22.3825 262.073 23.1254 261.682 23.7405L263.369 24.8142C263.907 23.9683 264.285 22.9957 264.516 21.9129L262.56 21.4953ZM261.682 23.7405C261.317 24.3134 260.783 24.8145 260.042 25.2325L261.024 26.9745C262.01 26.4186 262.804 25.7022 263.369 24.8142L261.682 23.7405ZM260.05 25.2278C259.313 25.6341 258.327 25.9606 257.058 26.1807L257.4 28.1513C258.811 27.9066 260.026 27.5247 261.016 26.9793L260.05 25.2278ZM257.049 26.1824C255.8 26.4114 254.227 26.5312 252.315 26.5312V28.5312C254.3 28.5312 256.002 28.4076 257.41 28.1496L257.049 26.1824ZM252.315 26.5312H245.924V28.5312H252.315V26.5312ZM245.924 26.5312C244.013 26.5312 242.433 26.4114 241.172 26.1821L240.814 28.1499C242.232 28.4076 243.939 28.5312 245.924 28.5312V26.5312ZM241.165 26.181C239.909 25.9611 238.927 25.6348 238.189 25.2278L237.223 26.9793C238.211 27.5241 239.421 27.9061 240.821 28.151L241.165 26.181ZM238.197 25.2325C237.455 24.8136 236.912 24.3099 236.535 23.7315L234.859 24.8232C235.434 25.7058 236.231 26.4195 237.215 26.9745L238.197 25.2325ZM236.541 23.7405C236.147 23.1221 235.844 22.3755 235.644 21.4849L233.692 21.9234C233.935 23.0027 234.317 23.9716 234.854 24.8142L236.541 23.7405ZM235.646 21.4953C235.451 20.582 235.334 19.5322 235.302 18.3404L233.303 18.394C233.337 19.6813 233.464 20.8561 233.69 21.9129L235.646 21.4953ZM235.302 18.3404C235.269 17.1114 235.253 15.7481 235.253 14.25H233.253C233.253 15.7623 233.27 17.1438 233.303 18.394L235.302 18.3404ZM235.253 14.25C235.253 12.7519 235.269 11.3886 235.302 10.1596L233.303 10.106C233.27 11.3562 233.253 12.7377 233.253 14.25H235.253ZM235.302 10.1596C235.334 8.96779 235.451 7.91799 235.646 7.00468L233.69 6.58712C233.464 7.64386 233.337 8.81867 233.303 10.106L235.302 10.1596ZM235.644 7.01515C235.844 6.12448 236.147 5.37785 236.541 4.75953L234.854 3.68578C234.317 4.5284 233.935 5.49726 233.692 6.57665L235.644 7.01515ZM236.535 4.76854C236.91 4.19257 237.45 3.69604 238.189 3.28883L237.223 1.53734C236.235 2.08195 235.436 2.7918 234.859 3.67678L236.535 4.76854ZM238.197 3.28406C238.933 2.86906 239.912 2.53841 241.165 2.31901L240.821 0.348954C239.418 0.594398 238.206 0.98315 237.215 1.54211L238.197 3.28406ZM241.172 2.31785C242.433 2.08859 244.013 1.96875 245.924 1.96875V-0.03125C243.939 -0.03125 242.232 0.0924041 240.814 0.350114L241.172 2.31785ZM245.924 1.96875H252.315V-0.03125H245.924V1.96875ZM252.315 25.875C253.748 25.875 254.966 25.8359 255.965 25.7556L255.804 23.762C254.877 23.8366 253.716 23.875 252.315 23.875V25.875ZM255.976 25.7546C256.999 25.6606 257.899 25.4743 258.65 25.1715L257.901 23.3168C257.39 23.5231 256.696 23.6799 255.793 23.763L255.976 25.7546ZM258.65 25.1715C259.427 24.8578 260.077 24.3854 260.547 23.7332L258.925 22.5636C258.709 22.8633 258.385 23.1214 257.901 23.3168L258.65 25.1715ZM260.547 23.7332C260.999 23.1062 261.291 22.3277 261.464 21.4493L259.502 21.0624C259.366 21.7557 259.159 22.2389 258.925 22.5636L260.547 23.7332ZM261.464 21.4493C261.634 20.5878 261.726 19.5627 261.749 18.3866L259.749 18.3478C259.728 19.4516 259.642 20.3524 259.502 21.0624L261.464 21.4493ZM261.749 18.396C261.782 17.2325 261.799 15.85 261.799 14.25H259.799C259.799 15.8375 259.782 17.1998 259.749 18.3384L261.749 18.396ZM261.799 14.25C261.799 12.65 261.782 11.2729 261.749 10.1203L259.749 10.1785C259.782 11.3058 259.799 12.6625 259.799 14.25H261.799ZM261.749 10.1302C261.726 8.94365 261.634 7.91277 261.464 7.05068L259.502 7.4376C259.642 8.14712 259.728 9.0531 259.749 10.1686L261.749 10.1302ZM261.464 7.05068C261.291 6.17232 260.999 5.3938 260.547 4.76676L258.925 5.93636C259.159 6.26115 259.366 6.74435 259.502 7.4376L261.464 7.05068ZM260.547 4.76676C260.077 4.11457 259.427 3.64222 258.65 3.32851L257.901 5.18321C258.385 5.37862 258.709 5.63674 258.925 5.93636L260.547 4.76676ZM258.655 3.33084C257.907 3.02335 256.998 2.84324 255.964 2.76096L255.805 4.75466C256.719 4.82733 257.404 4.97925 257.895 5.18088L258.655 3.33084ZM255.976 2.76201C254.973 2.66971 253.75 2.625 252.315 2.625V4.625C253.714 4.625 254.871 4.66883 255.793 4.75361L255.976 2.76201ZM252.315 2.625H245.924V4.625H252.315V2.625ZM245.924 2.625C244.489 2.625 243.261 2.66973 242.247 2.76192L242.428 4.75371C243.362 4.66881 244.525 4.625 245.924 4.625V2.625ZM242.258 2.76103C241.233 2.84351 240.328 3.02384 239.573 3.32851L240.321 5.18321C240.828 4.97877 241.517 4.82706 242.418 4.75459L242.258 2.76103ZM239.573 3.32851C238.796 3.64222 238.145 4.11457 237.675 4.76676L239.297 5.93636C239.513 5.63674 239.837 5.37862 240.321 5.18321L239.573 3.32851ZM237.675 4.76676C237.223 5.3938 236.931 6.17232 236.758 7.05068L238.72 7.4376C238.857 6.74435 239.063 6.26115 239.297 5.93636L237.675 4.76676ZM236.758 7.05068C236.588 7.91277 236.497 8.94365 236.474 10.1302L238.473 10.1686C238.495 9.0531 238.58 8.14712 238.72 7.4376L236.758 7.05068ZM236.474 10.13C236.451 11.2784 236.44 12.6521 236.44 14.25H238.44C238.44 12.6604 238.451 11.3004 238.473 10.1688L236.474 10.13ZM236.44 14.25C236.44 15.8479 236.451 17.2271 236.474 18.3864L238.473 18.348C238.451 17.2052 238.44 15.8396 238.44 14.25H236.44ZM236.474 18.3963C236.508 19.5704 236.606 20.592 236.775 21.4493L238.737 21.0624C238.596 20.3482 238.505 19.444 238.473 18.3381L236.474 18.3963ZM236.775 21.4493C236.947 22.3227 237.231 23.0965 237.666 23.7206L239.306 22.5763C239.078 22.2486 238.875 21.7606 238.737 21.0624L236.775 21.4493ZM237.675 23.7332C238.145 24.3854 238.796 24.8578 239.573 25.1715L240.321 23.3168C239.837 23.1214 239.513 22.8633 239.297 22.5636L237.675 23.7332ZM239.573 25.1715C240.323 25.4743 241.224 25.6606 242.246 25.7546L242.429 23.763C241.526 23.6799 240.833 23.5231 240.321 23.3168L239.573 25.1715ZM242.259 25.7556C243.268 25.8359 244.491 25.875 245.924 25.875V23.875C244.523 23.875 243.356 23.8366 242.417 23.7619L242.259 25.7556ZM245.924 25.875H252.315V23.875H245.924V25.875Z" fill="white"/>
</g>
<defs>
<filter id="filter0_b_317_484" x="-64.875" y="-64.0312" width="393.861" height="156.562" filterUnits="userSpaceOnUse" color-interpolation-filters="sRGB">
<feFlood flood-opacity="0" result="BackgroundImageFix"/>
<feGaussianBlur in="BackgroundImageFix" stdDeviation="32.5"/>
<feComposite in2="SourceAlpha" operator="in" result="effect1_backgroundBlur_317_484"/>
<feBlend mode="normal" in="SourceGraphic" in2="effect1_backgroundBlur_317_484" result="shape"/>
</filter>
<linearGradient id="paint0_linear_317_484" x1="193" y1="-1" x2="193" y2="25" gradientUnits="userSpaceOnUse">
<stop stop-color="white"/>
<stop offset="1" stop-color="white" stop-opacity="0"/>
</linearGradient>
</defs>
</svg>
