<svg width="141" height="46" viewBox="0 0 141 46" fill="none" xmlns="http://www.w3.org/2000/svg">
<g clip-path="url(#clip0_221_651)">
<path d="M121.332 38.3657C111.135 38.495 101.97 30.0984 102.229 18.86C102.358 8.39656 110.748 0 121.461 0C132.303 0 140.565 8.78408 140.694 19.2475C140.565 29.9692 131.658 38.6241 121.332 38.3657ZM128.431 5.68382C127.27 5.813 125.979 5.94217 124.946 6.20053C121.848 7.10478 119.267 8.78408 118.751 12.4011C118.363 15.1138 118.879 17.5682 121.461 19.2475C123.01 20.1516 124.817 20.6684 126.495 21.0559C128.173 21.4435 129.722 21.7018 131.142 22.6061C133.207 24.0271 133.207 26.4814 130.884 27.5148C129.98 28.0316 128.818 28.2898 127.657 28.2898C125.333 28.4191 123.397 27.5148 121.719 25.8355C121.332 25.448 120.945 25.1896 120.428 25.7064C119.525 26.4814 118.751 27.1273 117.847 27.9023C117.46 28.1607 117.46 28.5482 117.718 28.9357C119.396 31.0026 121.59 32.2944 124.172 32.6819C126.108 32.9403 128.044 32.9403 129.851 32.6819C133.078 32.4237 136.821 30.3568 137.596 26.3523C137.983 24.0271 137.725 21.831 136.047 20.0225C134.498 18.3432 132.304 17.8266 130.109 17.1807C128.431 16.7932 126.882 16.2764 125.333 15.7597C124.172 15.3722 123.526 14.3387 123.655 13.0469C123.785 11.7552 124.688 10.9801 125.721 10.5926C125.85 10.5926 125.85 10.4634 125.979 10.4634C128.431 9.81751 130.755 10.205 132.562 12.0135C133.078 12.5302 133.594 12.6594 134.111 12.1427C134.885 11.4968 135.66 10.9801 136.434 10.4634C137.079 10.0759 137.079 9.68833 136.563 9.17162C134.498 6.71724 131.658 5.68382 128.431 5.68382Z" fill="white"/>
<path d="M32.786 10.0762C33.9477 8.65522 35.1095 7.49263 36.6582 6.71756C40.0144 5.16744 43.2412 5.16744 46.3391 7.1051C47.2426 7.75099 48.0171 8.65522 48.6624 9.55947C49.1787 10.2054 49.3078 10.3345 49.8242 9.55947C53.0512 4.90908 59.634 4.65071 63.5064 7.36345C65.7006 8.91358 66.8623 11.2388 66.9915 13.8223C67.2495 19.6353 67.2495 25.4483 67.3787 31.2613C67.3787 32.1656 67.1204 32.424 66.2169 32.424C65.1843 32.424 64.1517 32.2947 63.119 32.424C62.4738 32.424 62.2155 32.1656 62.2155 31.5197C62.2155 29.4529 62.2155 27.2567 62.2155 25.1899C62.2155 22.3481 62.2155 19.6353 62.2155 16.7935C62.2155 15.6308 61.9574 14.4682 61.5701 13.4348C60.7957 11.368 59.3759 10.4637 57.1815 10.4637C55.1163 10.3345 53.3092 10.7221 51.8894 12.2722C50.9859 13.3056 50.5985 14.4682 50.3405 15.76C50.2114 16.5351 50.0822 17.3101 50.0822 18.0851C50.0822 22.4772 50.0822 26.7401 50.0822 31.1322C50.0822 32.2947 50.0822 32.2947 48.9206 32.2947C48.0171 32.2947 47.1135 32.2947 46.21 32.2947C45.4356 32.2947 45.3065 32.0365 45.3065 31.3906C45.3065 26.9985 45.3065 22.6065 45.3065 18.0851C45.3065 16.6642 45.0484 15.2433 44.7901 13.8223C44.4029 11.8847 42.3377 10.4637 40.4016 10.3345C35.8839 10.0762 33.4314 13.4348 33.1732 17.0517C32.9151 20.9271 33.0442 24.8024 32.9151 28.6778C32.9151 29.582 32.9151 30.6154 32.9151 31.5197C32.9151 32.0365 32.786 32.2947 32.2697 32.2947C31.1081 32.2947 29.9463 32.2947 28.7846 32.2947C28.2683 32.2947 28.0102 32.0365 28.0102 31.5197C28.0102 31.0029 28.0102 30.3572 28.0102 29.8404C28.0102 22.3481 28.0102 14.9849 28.0102 7.49263C28.0102 6.33003 28.0102 6.33003 29.1718 6.33003C30.0754 6.33003 30.8498 6.33003 31.7533 6.33003C32.3988 6.33003 32.6569 6.58839 32.6569 7.23428C32.786 8.13851 32.786 9.04276 32.786 10.0762Z" fill="white"/>
<path d="M76.9303 29.0652C76.9303 30.4861 76.9303 31.9071 76.9303 33.328C76.9303 36.945 76.9303 40.4328 76.9303 44.0498C76.9303 45.0832 76.8013 45.2123 75.7687 45.2123C74.8652 45.2123 73.9615 45.2123 72.9289 45.2123C72.1545 45.2123 71.8962 44.9541 71.8962 44.0498C71.8962 38.2368 71.8962 32.2946 71.8962 26.4816C71.8962 20.1519 71.8962 13.8222 71.8962 7.62169C71.8962 6.45909 71.8962 6.32991 73.1871 6.32991C74.0906 6.32991 75.1232 6.45909 76.0267 6.32991C76.8013 6.32991 77.0594 6.71746 77.0594 7.36334C77.0594 8.00923 77.0594 8.52594 77.0594 9.17182C77.0594 9.30101 77.1885 9.43019 77.1885 9.68853C77.5757 9.30101 77.8339 8.91346 78.2211 8.52594C80.9316 6.07157 84.0295 5.16732 87.6437 5.55485C90.6125 5.81321 93.194 6.84662 95.3883 9.04264C97.7118 11.497 99.0025 14.3389 99.2607 17.5684C99.5188 20.7978 99.0025 23.8982 97.3244 26.6109C95.1302 30.2278 91.9032 32.1655 87.7728 32.553C86.0948 32.6821 84.4167 32.6821 82.7388 32.1655C80.6736 31.6487 78.8664 30.6153 77.4466 28.9359C77.3176 28.8068 77.3176 28.8068 77.1885 28.6777C77.1885 29.0652 77.0594 29.0652 76.9303 29.0652ZM77.0594 19.3768C77.0594 19.8936 77.0594 20.4102 77.1885 20.7978C77.4466 23.6398 78.8666 25.8357 81.1899 27.2566C82.7388 28.1609 84.5458 28.2902 86.2239 28.2902C88.8055 28.1609 90.8706 26.9984 92.4195 24.9316C94.0976 22.4771 94.4848 19.6352 93.7104 16.7934C93.0649 13.8222 91.2579 11.6262 88.2891 10.8511C87.1274 10.4636 85.7076 10.4636 84.4167 10.4636C82.0934 10.4636 80.2864 11.6262 78.8665 13.3055C77.5757 15.114 76.9303 17.0516 77.0594 19.3768Z" fill="white"/>
<path d="M17.9417 28.8068C16.9091 29.7111 15.8764 30.7445 14.8438 31.5195C13.6822 32.4238 12.2623 32.6821 10.8425 32.9405C9.03539 33.1988 7.09924 33.0697 5.42123 32.5529C1.80708 31.3904 0 28.8068 0 25.0607C0 21.8311 1.67799 19.5059 4.51769 18.085C7.09924 16.7932 9.93893 16.4057 12.7786 16.2766C14.1985 16.2766 15.6183 16.2766 17.0382 16.2766C17.6836 16.2766 17.9417 16.0182 17.9417 15.3723C17.9417 12.9179 16.5219 10.8511 14.0694 10.076C11.1006 9.17178 8.26092 9.81766 5.80846 11.6261C4.13046 12.7888 4.38862 12.7888 3.09785 11.497C2.71062 11.1094 2.32338 10.7219 1.93615 10.3344C1.41985 9.81766 1.41985 9.43014 2.06524 9.0426C3.35601 8.26753 4.77584 7.3633 6.1957 6.71741C9.55169 5.42563 13.0368 5.29645 16.651 6.45905C19.8778 7.49246 22.5885 10.2052 22.5885 13.9514C22.5885 18.085 22.5885 22.2186 22.5885 26.3525C22.5885 28.0318 22.7175 29.8402 22.7175 31.5195C22.7175 32.2945 22.4594 32.4238 21.814 32.4238C20.9105 32.4238 20.007 32.4238 19.1034 32.4238C18.5871 32.4238 18.3289 32.1654 18.3289 31.6486C18.0708 30.6152 17.9417 29.7111 17.9417 28.8068ZM17.6836 21.8311C17.6836 19.8936 17.6836 19.8936 16.1347 19.8936C14.5857 19.8936 13.0368 19.8936 11.4878 20.1518C9.68078 20.4102 8.00276 20.7977 6.32477 21.8311C4.25955 23.1229 4.25955 27.1275 6.45386 28.1609C7.35738 28.5484 8.26092 28.9359 9.29355 29.0652C12.2623 29.3234 14.8438 28.6777 16.5219 25.965C17.4254 24.5439 17.6836 22.9938 17.6836 21.8311Z" fill="white"/>
<path d="M63.1186 37.0743C63.8931 37.0743 64.5384 37.0743 65.3129 37.0743C66.2164 37.0743 66.4745 37.462 66.0873 38.3661C65.7001 39.1413 65.3129 39.9163 64.7966 40.6913C64.5384 41.2081 64.5384 41.4664 65.0547 41.7247C65.8293 42.3707 66.6036 43.0166 67.5072 43.7916C67.7654 44.05 68.0235 44.3084 67.6363 44.6959C67.2491 45.0834 66.9908 45.2125 66.4745 44.825C65.8293 44.1791 65.1838 43.5332 64.5384 42.8874C64.0221 42.3707 63.6349 42.3707 62.9894 42.8874C62.2151 43.6625 61.1824 44.3084 60.2789 44.9543C59.8917 45.2125 59.6335 45.2125 59.2463 44.6959C58.9881 44.1791 58.9881 43.9209 59.5044 43.6625C61.4405 42.7582 62.7314 41.3372 63.8931 39.5288C64.0221 39.2704 64.1512 38.8829 64.2803 38.4954C63.8931 38.3661 63.6349 38.3661 63.2477 38.237C62.3442 38.237 61.4405 38.237 60.537 38.237C60.1498 38.237 59.7626 38.1077 59.7626 37.5911C59.7626 37.0743 60.0207 36.9452 60.408 36.9452C61.4405 37.0743 62.3442 37.0743 63.1186 37.0743Z" fill="white"/>
<path d="M52.1465 37.2035C52.792 37.2035 53.4373 37.2035 53.9536 37.2035C54.7281 37.2035 55.3735 37.2035 55.8899 36.4284C56.2771 35.9117 57.0514 35.9117 57.4386 36.4284C57.955 36.9452 57.826 37.7202 57.3097 38.1077C56.6642 38.4954 56.406 38.8829 56.2771 39.5288C55.5025 42.1122 53.6955 43.7915 51.3722 45.0833C51.1139 45.2125 50.7267 45.3417 50.4685 45.0833C50.2104 44.9542 49.9522 44.5666 49.8232 44.179C49.8232 44.0499 50.2104 43.7915 50.4685 43.6624C52.4046 42.8874 53.8246 41.4663 54.599 39.3995C54.9862 38.6245 54.8572 38.3661 53.9536 38.3661C52.5337 38.3661 50.9848 38.3661 49.565 38.3661C49.1778 38.3661 48.7906 38.3661 48.7906 37.8494C48.7906 37.2035 49.1778 37.2035 49.6941 37.2035C50.4685 37.2035 51.3722 37.2035 52.1465 37.2035ZM56.6643 36.4284C56.406 36.6868 56.1479 36.9452 56.1479 37.0743C56.2771 37.3327 56.406 37.5911 56.6643 37.7202C56.7934 37.5911 57.1806 37.3327 57.1806 37.2035C57.1806 36.9451 56.9223 36.816 56.6643 36.4284Z" fill="white"/>
<path d="M31.8818 36.8159C32.9145 36.8159 33.9471 36.8159 34.9797 36.8159C36.2704 36.8159 36.6578 37.4618 35.8832 38.4952C35.238 39.3994 34.4634 40.1746 33.689 40.9496C33.3017 41.3371 33.0436 41.208 32.6564 40.8203C32.269 40.4328 32.5273 40.1746 32.9145 39.9162C33.4308 39.5286 33.818 39.141 34.2053 38.7535C34.3343 38.6244 34.3343 38.4952 34.4634 38.2368C34.3343 38.1076 34.0762 37.9784 33.9471 37.9784C32.7853 37.9784 31.6238 37.9784 30.462 37.9784C29.8166 37.9784 29.0422 37.9784 28.3968 37.9784C28.1387 37.9784 27.7515 37.7201 27.7515 37.4618C27.6224 37.0742 27.8804 36.8159 28.3968 36.8159C29.5585 36.8159 30.7202 36.8159 31.8818 36.8159Z" fill="white"/>
<path d="M38.9809 44.9539C38.8518 44.6955 38.5936 44.4371 38.5936 44.1787C38.4646 43.7912 38.7227 43.5328 39.1099 43.5328C42.0787 43.1453 44.273 41.5952 45.4348 38.8825C45.5639 38.7532 45.9511 38.495 45.9511 38.495C46.3383 38.7532 46.9837 39.0116 46.5964 39.6575C45.9511 40.6909 45.3057 41.7244 44.5313 42.4994C43.1113 43.9205 41.1752 44.5662 38.9809 44.9539Z" fill="white"/>
<path d="M32.1401 39.6581C32.269 41.7249 31.6237 43.4042 29.8166 44.5669C29.5585 44.8251 29.1711 44.9544 28.7839 45.0835C28.2676 45.3419 28.0096 44.9544 27.8804 44.5669C27.6224 44.1792 27.8804 43.921 28.2676 43.7917C28.655 43.5335 29.0422 43.4042 29.4294 43.1458C30.462 42.3708 30.8492 41.2083 30.7201 39.9165C30.7201 39.3997 30.5911 38.8831 31.3655 38.8831C32.0109 38.8831 32.269 39.0122 32.1401 39.6581Z" fill="white"/>
<path d="M41.8206 39.1421C41.6917 39.4004 41.4334 39.659 41.1754 39.7881C41.0462 39.9174 40.659 39.7881 40.5299 39.659C39.8845 39.2712 39.3682 38.7542 38.8519 38.2373C38.7229 38.1082 38.4647 37.7203 38.5938 37.5912C38.8519 37.3327 39.3682 36.945 39.4973 37.0743C40.2717 37.5912 41.0462 38.2373 41.8206 38.7542C41.8206 39.0128 41.8206 39.0128 41.8206 39.1421Z" fill="white"/>
</g>
<defs>
<clipPath id="clip0_221_651">
<rect width="141" height="46" fill="white"/>
</clipPath>
</defs>
</svg>
