<svg width="186" height="34" viewBox="0 0 186 34" fill="none" xmlns="http://www.w3.org/2000/svg">
<g clip-path="url(#clip0_221_880)">
<path d="M46.4971 9.9999L45.4846 15.7142L44.1821 14.8904C44.1821 14.8904 45.111 10.2189 45.1651 9.89038L46.4971 9.9999ZM51.2301 8.62371C51.1658 8.61403 51.1001 8.61867 51.038 8.6373C50.9759 8.65593 50.9189 8.68805 50.8715 8.73121C50.8241 8.77438 50.7875 8.82745 50.7645 8.88639C50.7415 8.94533 50.7326 9.00858 50.7386 9.07133V17.3094C50.7763 17.7659 50.6399 18.22 50.3553 18.5856C50.1645 18.7472 49.9407 18.868 49.6985 18.9402C49.4563 19.0124 49.2011 19.0344 48.9496 19.0047H47.9224L47.5931 17.3618L48.6301 17.438C49.043 17.438 49.2494 17.2475 49.2494 16.8618V8.93324C49.2551 8.88772 49.2499 8.84155 49.2343 8.79827C49.2187 8.75498 49.1931 8.71574 49.1594 8.68356C49.1257 8.65137 49.0848 8.62709 49.04 8.61259C48.9951 8.59809 48.9473 8.59375 48.9004 8.5999C48.8555 8.59843 48.8108 8.60616 48.7692 8.62259C48.7275 8.63901 48.6899 8.66376 48.6589 8.69523C48.6278 8.72669 48.6039 8.76415 48.5888 8.80516C48.5737 8.84617 48.5677 8.88982 48.5711 8.93324C48.5711 9.33323 48.5711 9.30466 48.5711 9.52847V9.8999C48.6315 11.7585 48.4331 13.6165 47.9814 15.4237C47.503 16.8814 46.7313 18.2329 45.7107 19.3999L44.4033 18.4094C45.367 17.4174 46.0906 16.2299 46.5216 14.9332C46.905 13.7047 47.0967 11.6523 47.0967 9.21895C47.0967 8.55704 46.5708 8.60466 46.5708 8.60466H44.4574V7.05228H47.5292C47.5292 7.05228 48.0207 7.09514 48.0207 6.57609V6.0999C48.0247 6.03501 48.015 5.97 47.9921 5.90889C47.9692 5.84777 47.9336 5.79185 47.8876 5.74456C47.8415 5.69727 47.786 5.65961 47.7243 5.63392C47.6627 5.60822 47.5963 5.59502 47.5292 5.59514H45.0717V4.06181H47.6815C47.7442 4.06133 47.806 4.04838 47.8633 4.02379C47.9205 3.99919 47.9719 3.96345 48.0143 3.9188C48.0567 3.87415 48.0892 3.82154 48.1097 3.76422C48.1303 3.70691 48.1384 3.64611 48.1337 3.58562V2.40466H49.79V3.69038C49.79 3.69038 49.7311 4.06181 50.1783 4.06181H51.6528C51.6528 4.06181 52.5621 3.9999 52.5621 4.84276C52.5621 5.68562 51.6086 5.57133 51.6086 5.57133H50.3307C50.2636 5.57121 50.1972 5.58441 50.1355 5.61011C50.0739 5.6358 50.0183 5.67346 49.9723 5.72075C49.9262 5.76804 49.8907 5.82396 49.8678 5.88508C49.8449 5.94619 49.8352 6.0112 49.8392 6.07609V6.66657C49.8392 6.66657 49.8392 7.05228 50.3307 7.05228H51.8691C51.9774 7.04159 52.0869 7.05312 52.1904 7.08611C52.2939 7.1191 52.3891 7.17283 52.4697 7.24379C52.5504 7.31475 52.6147 7.40136 52.6586 7.49799C52.7024 7.59462 52.7248 7.69911 52.7242 7.80466C52.7242 8.58085 51.8691 8.5999 51.8691 8.5999L51.2301 8.62371ZM52.7931 13.0475L51.4267 13.4523L50.7878 10.2809L52.0607 9.98562L52.7931 13.0475ZM54.7197 10.357L53.9235 16.1904L52.5424 15.1285L53.314 10.1094L54.7197 10.357ZM59.5855 8.62371C59.5275 8.62019 59.4694 8.62932 59.4156 8.65042C59.3617 8.67153 59.3135 8.70407 59.2743 8.74566C59.2352 8.78724 59.2062 8.8368 59.1894 8.89069C59.1727 8.94459 59.1686 9.00143 59.1775 9.05704V17.1523V17.5999C59.2094 18.0551 59.0717 18.5063 58.7893 18.8713C58.5958 19.0354 58.369 19.1582 58.1235 19.2321C57.878 19.3059 57.6192 19.329 57.3639 19.2999H56.3465L55.9878 17.6189L57.0445 17.6904C57.4573 17.6904 57.6637 17.4999 57.6637 17.1142V8.91419C57.6637 8.91419 57.6637 8.5999 57.246 8.5999C56.8282 8.5999 56.8577 8.91419 56.8577 8.91419V9.8999C56.9198 11.7585 56.7214 13.6168 56.2679 15.4237C55.7663 16.9229 54.972 18.3148 53.9284 19.5237L52.5915 18.5047C53.5752 17.4993 54.3274 16.3031 54.7983 14.9951C55.2014 13.7856 55.4029 9.84752 55.4029 9.0999C55.4029 8.51895 54.9114 8.5999 54.9114 8.5999H53.26V7.05228H55.7174C55.7797 7.0598 55.8428 7.05427 55.9027 7.03606C55.9625 7.01785 56.0176 6.98739 56.0642 6.94675C56.1108 6.9061 56.1479 6.85622 56.1728 6.80048C56.1978 6.74475 56.2101 6.68446 56.2089 6.62371V6.09514C56.2169 6.02362 56.2081 5.95127 56.1831 5.88353C56.1582 5.81579 56.1177 5.7544 56.0647 5.704C56.0117 5.65359 55.9476 5.61547 55.8773 5.59249C55.8069 5.56951 55.7321 5.56228 55.6585 5.57133H53.5254V4.06181H55.8452C55.9049 4.06935 55.9657 4.06366 56.0228 4.04517C56.0799 4.02669 56.132 3.99588 56.175 3.95508C56.2181 3.91428 56.251 3.86454 56.2714 3.80962C56.2917 3.7547 56.2989 3.69601 56.2925 3.638V2.40466H57.9537V3.67133C57.9537 3.67133 57.9537 4.06181 58.3076 4.06181H60.5439C60.6428 4.0572 60.7415 4.07333 60.8334 4.1091C60.9253 4.14486 61.0081 4.19942 61.0762 4.26903C61.1444 4.33865 61.1962 4.4217 61.2281 4.51249C61.2601 4.60329 61.2715 4.6997 61.2615 4.79514C61.275 4.89329 61.2664 4.9931 61.2363 5.08773C61.2062 5.18235 61.1553 5.26954 61.0871 5.3433C61.0189 5.41705 60.9351 5.47563 60.8413 5.51499C60.7475 5.55435 60.6461 5.57357 60.5439 5.57133H58.4501C58.3982 5.56353 58.345 5.56754 58.2949 5.58306C58.2448 5.59858 58.1992 5.62517 58.1615 5.66073C58.1238 5.6963 58.0952 5.73986 58.0779 5.78798C58.0606 5.8361 58.0551 5.88746 58.0618 5.938V6.66657C58.0618 7.11419 58.5533 7.07133 58.5533 7.07133H61.0108C61.1158 7.06113 61.2219 7.07351 61.3214 7.10758C61.4209 7.14164 61.5114 7.19656 61.5865 7.26841C61.6616 7.34027 61.7195 7.42729 61.7559 7.52327C61.7923 7.61926 61.8064 7.72184 61.7972 7.82371C61.8011 7.92637 61.7838 8.02875 61.7461 8.12477C61.7084 8.2208 61.6512 8.3085 61.5778 8.38268C61.5045 8.45686 61.4165 8.516 61.3191 8.55659C61.2217 8.59718 61.1168 8.61838 61.0108 8.61895L59.5855 8.62371ZM60.1703 16.8856L59.6297 10.4713L61.0698 10.2428L61.748 16.4951L60.1703 16.8856Z" fill="white"/>
<path d="M71.2322 14.867L70.4114 19.3956H68.814L69.6496 14.6813L71.2322 14.867Z" fill="white"/>
<path d="M74.6384 5.07608L76.0736 5.68084L72.2006 11.7332C72.2006 11.7332 71.8025 12.2094 72.2301 12.2094C72.9379 12.1618 74.5549 11.9618 74.5499 11.9285L74.0093 10.5761L75.2774 10.2094L76.6781 13.5427L75.2479 14.0189L74.9481 13.3332L70.1904 13.8094C70.1904 13.8094 68.9863 13.9285 69.5416 13.0094L72.3825 8.80465L70.1413 9.03798C70.1413 9.03798 68.9469 9.15703 69.2369 8.2856C69.2369 8.23322 71.9991 2.46655 71.9991 2.46655L73.6112 2.88084L71.483 7.09036C71.483 7.09036 71.2619 7.50465 71.7583 7.47131C72.2547 7.43798 73.2819 7.27132 73.2819 7.27132" fill="white"/>
<path d="M72.0783 19.0049L71.8669 14.7382L73.307 14.5525L73.6756 18.8239L72.0783 19.0049Z" fill="white"/>
<path d="M74.579 17.7238L74.1563 14.3619L75.4686 14.0857L76.0092 17.3333L74.579 17.7238Z" fill="white"/>
<path d="M76.0974 4.25708V2.76184H85.5586C85.5586 2.76184 86.5023 2.76184 86.5023 3.45232C86.5023 4.32851 85.5439 4.25708 85.5439 4.25708H76.0974Z" fill="white"/>
<path d="M79.7886 12.7048H76.5104V11.1143H79.9508C80.0003 11.1137 80.0492 11.1035 80.0946 11.0845C80.14 11.0654 80.181 11.0378 80.2153 11.0032C80.2496 10.9687 80.2764 10.9279 80.2943 10.8832C80.3122 10.8385 80.3207 10.7908 80.3194 10.7429V9.5238H82.0151V10.8095C82.0151 10.8095 82.0151 11.1143 82.2952 11.1143H85.6177C85.7284 11.1061 85.8395 11.1208 85.9439 11.1572C86.0483 11.1937 86.1436 11.2511 86.2234 11.3258C86.3033 11.4004 86.3659 11.4906 86.4072 11.5904C86.4485 11.6902 86.4676 11.7973 86.4631 11.9048C86.4666 12.0128 86.447 12.1204 86.4056 12.2207C86.3642 12.3211 86.3019 12.4121 86.2226 12.4881C86.1432 12.5641 86.0486 12.6234 85.9445 12.6623C85.8404 12.7012 85.7292 12.7189 85.6177 12.7143C85.6177 12.7143 83.0521 12.7143 82.5705 12.7143C82.0888 12.7143 82.3493 13.0762 82.3493 13.0762L86.409 19.4571H84.1285L82.0151 15.5667V19.5714H80.3194V15.5619L77.2869 19.5238H75.2866L79.8673 13.2048C80.0442 12.9667 80.2408 12.7048 79.7886 12.7048Z" fill="white"/>
<path d="M77.5105 9.75665L76.4145 6.43761L78.0315 6.00427L79.2799 9.32332L77.5105 9.75665Z" fill="white"/>
<path d="M80.4909 8.8807L80.0879 5.7426L81.7442 5.53784L82.2406 8.70927L80.4909 8.8807Z" fill="white"/>
<path d="M86.2324 5.89528L84.5564 9.86671L82.8608 9.11909L84.6351 5.33813L86.2324 5.89528Z" fill="white"/>
<path d="M95.9827 4.53323C95.9827 4.53323 96.8477 4.57609 96.3857 3.78562L95.8058 2.62847L97.5358 2.40466L98.0568 3.54276C98.0568 3.54276 98.4844 4.54276 99.2216 4.54276C99.9589 4.54276 100.028 4.54276 100.028 4.54276C100.028 4.54276 100.966 4.4999 100.966 5.31895C100.968 5.43496 100.944 5.54995 100.896 5.65629C100.848 5.76263 100.777 5.85789 100.689 5.93578C100.6 6.01367 100.495 6.0724 100.381 6.10808C100.267 6.14376 100.147 6.15558 100.028 6.14276H93.6383V4.53323H95.9827ZM94.1691 7.27609H99.3494C99.3494 7.27609 100.293 7.27609 100.293 8.04752C100.293 8.81895 99.3494 8.7999 99.3494 8.7999H94.1691V7.27609ZM94.1691 9.99514H99.3642C99.3642 9.99514 100.347 9.95704 100.347 10.7761C100.347 11.5951 99.3642 11.5285 99.3642 11.5285H94.1691V9.99514ZM94.2281 12.9094H99.3101C99.3101 12.9094 100.332 12.8047 100.332 13.9618V19.3809H98.5975V18.5428H95.9581V19.5666H94.2281V12.9094ZM98.5975 14.419H95.9581V17.0332H98.5975V14.419ZM109.056 4.02371V6.91895C109.018 7.20107 109.082 7.48732 109.238 7.72847C109.439 7.87244 109.688 7.93713 109.936 7.90943H110.28C110.28 7.90943 111.15 7.90943 111.15 8.66181C111.15 9.41419 110.28 9.47609 110.28 9.47609H109.297C108.742 9.51719 108.19 9.35775 107.749 9.02847C107.405 8.72847 107.258 8.14752 107.258 7.27609V4.47609H104.599V5.07609C104.625 5.94191 104.457 6.803 104.107 7.5999C103.547 8.54981 102.805 9.3871 101.92 10.0666L100.514 8.86181C101.297 8.34697 101.95 7.66632 102.421 6.87133C102.761 5.91713 102.905 4.90762 102.844 3.8999V2.90943H107.98C107.98 2.90943 109.056 2.79514 109.056 4.02371ZM110.093 11.7951C110.093 13.0761 110.049 14.519 109.391 15.6047C108.975 16.3459 108.404 16.9947 107.715 17.5094C108.502 17.7395 109.32 17.8597 110.143 17.8666C110.255 17.858 110.367 17.872 110.473 17.9076C110.579 17.9432 110.677 17.9996 110.759 18.0734C110.842 18.1472 110.908 18.2366 110.953 18.3363C110.999 18.4359 111.022 18.5435 111.022 18.6523C111.022 19.4713 110.089 19.4428 110.089 19.4428C108.66 19.4693 107.245 19.1793 105.95 18.5951C104.603 19.419 100.991 19.3856 100.991 19.3856V17.7237C102.057 17.8231 103.133 17.708 104.151 17.3856C103.638 16.8198 103.194 16.1982 102.829 15.5332C102.426 14.6439 102.167 13.6994 102.062 12.7332H103.763C103.78 13.3245 103.873 13.9115 104.038 14.4809C104.385 15.4463 105.085 16.2558 106.004 16.757C106.727 16.3389 107.323 15.7445 107.734 15.0332C108.28 13.9285 108.127 12.0142 108.127 12.0142H101.33V10.4761H108.398C108.398 10.4761 110.093 10.257 110.093 11.7951Z" fill="white"/>
<path d="M126.913 5.36181C126.913 6.10943 126.068 6.15704 126.068 6.15704H118.386V4.56657H121.084C121.084 4.56657 121.91 4.62847 121.64 4.11419C121.369 3.5999 120.868 2.62847 120.868 2.62847L122.736 2.40466L123.547 4.07609C123.609 4.2311 123.722 4.3619 123.868 4.44804C124.015 4.53419 124.187 4.57084 124.358 4.55228H126.068C126.18 4.54764 126.291 4.56534 126.395 4.60425C126.499 4.64317 126.594 4.70247 126.673 4.77845C126.752 4.85443 126.815 4.94545 126.856 5.04583C126.897 5.1462 126.917 5.25377 126.913 5.36181ZM119 7.34752H125.498C125.604 7.34021 125.711 7.3554 125.811 7.39203C125.911 7.42865 126.001 7.48585 126.076 7.55966C126.151 7.63347 126.208 7.72213 126.244 7.81952C126.28 7.91691 126.294 8.0207 126.284 8.12371C126.297 8.22317 126.286 8.32412 126.251 8.41861C126.217 8.5131 126.16 8.59856 126.086 8.66826C126.011 8.73795 125.921 8.78999 125.823 8.82027C125.724 8.85055 125.62 8.85825 125.518 8.84276H119V7.34752ZM119 10.0904H125.459C125.459 10.0904 126.324 10.0904 126.324 10.8285C126.324 11.5666 125.459 11.5666 125.459 11.5666H119V10.0904ZM119.059 12.9999H125.075C125.228 12.9837 125.383 13.0013 125.529 13.0513C125.674 13.1013 125.805 13.1825 125.914 13.2887C126.022 13.395 126.104 13.5236 126.154 13.6648C126.203 13.8061 126.219 13.9565 126.201 14.1047C126.201 15.138 126.201 19.3809 126.201 19.3809H124.348V18.5713H120.907V19.5618H119.079L119.059 12.9999ZM124.348 14.457H120.907V17.1428H124.348V14.457ZM132.585 2.40466V7.09038C132.58 7.17458 132.592 7.25899 132.623 7.33802C132.653 7.41705 132.701 7.4889 132.762 7.54879C132.824 7.60868 132.897 7.65524 132.979 7.6854C133.06 7.71556 133.147 7.72862 133.234 7.72371H135.288C135.405 7.71207 135.524 7.72616 135.634 7.76493C135.745 7.8037 135.845 7.86616 135.927 7.94763C136.009 8.02911 136.071 8.12751 136.109 8.2355C136.146 8.34349 136.158 8.45828 136.144 8.57133C136.152 8.68583 136.135 8.80077 136.095 8.9086C136.054 9.01643 135.99 9.11471 135.908 9.197C135.825 9.27929 135.726 9.34372 135.615 9.38608C135.505 9.42843 135.387 9.44775 135.269 9.44276H133.146C132.462 9.44276 132.566 10.138 132.566 10.138V19.5666H130.659V9.9999C130.665 9.91789 130.652 9.83554 130.62 9.75941C130.587 9.68328 130.537 9.61547 130.473 9.56137C130.409 9.50727 130.333 9.46838 130.251 9.44779C130.169 9.4272 130.083 9.42548 130 9.44276H127.105V7.72371H130.088C130.17 7.72836 130.252 7.71511 130.328 7.68495C130.404 7.65478 130.471 7.60848 130.526 7.54947C130.581 7.49047 130.621 7.42027 130.644 7.34409C130.667 7.26791 130.672 7.18771 130.659 7.10943V2.40466H132.585Z" fill="white"/>
<path d="M156.241 12.3043C156.241 12.3043 157.327 12.2472 157.376 13.0472C157.425 13.9996 156.241 14.2234 156.241 14.2234L153.12 15.2377H159.829C159.829 15.2377 160.905 15.1329 160.929 15.9377C160.954 16.7424 159.829 16.7091 159.829 16.7091H153.12V17.8472C153.12 18.8821 152.548 19.3996 151.404 19.3996H148.431V17.9234L150.8 17.9996C150.876 18.0109 150.954 18.0047 151.027 17.9814C151.101 17.9581 151.167 17.9185 151.222 17.8656C151.276 17.8128 151.317 17.7482 151.341 17.6772C151.365 17.6061 151.372 17.5306 151.36 17.4567V16.7043H143.187V15.2377H151.35C151.402 15.004 151.51 14.7853 151.665 14.5996C151.886 14.3853 152.048 14.3234 152.79 14.1234L154.643 13.6472H146.725V12.3043H156.241ZM158.86 11.5186H145.285V14.2043H143.609V10.8282C143.597 10.7213 143.611 10.6131 143.65 10.5125C143.689 10.4118 143.752 10.3216 143.834 10.2491C143.916 10.1767 144.015 10.124 144.122 10.0956C144.229 10.0671 144.341 10.0636 144.45 10.0853V3.08529L148.48 2.56149L149.306 3.9091L146.077 4.38529V5.33768H148.962V6.58529H146.077V7.61863H148.962V8.89006H146.077V10.1043H158.035V8.87101H155.312V7.61863H158.015V6.57577H155.312V5.32815H158.015V4.33291H155.1V2.90434H158.565C158.565 2.90434 159.632 2.86149 159.632 4.09482V10.0853C159.632 10.0853 160.531 9.97577 160.531 10.9901V14.2043H158.841L158.86 11.5186ZM152.363 4.97101L150.284 6.19006L149.34 4.98053L151.223 4.02815L150.205 3.07577L151.188 2.21863L152.451 3.37577L153.719 2.51387L154.599 3.42339L153.444 4.17577L154.545 5.16149L153.385 5.92815L152.363 4.97101ZM152.392 8.71863L150.426 9.84244L149.63 8.69006L151.341 7.73768L150.358 6.7853L151.517 6.03768L152.535 7.07577L154.009 6.12339L154.82 7.17101L153.582 7.94244L154.565 8.93291L153.454 9.7853L152.392 8.71863Z" fill="white"/>
<path d="M173.734 4.28598C173.734 4.28598 172.849 7.77169 172.716 8.23836C172.638 8.66629 172.686 9.10684 172.854 9.50979L173.989 13.0003C173.989 13.0003 174.668 14.8479 172.736 15.3812L170.441 15.5193V13.8098H171.773C172.535 13.7717 172.299 12.9812 172.299 12.9812L171.085 9.76217C170.85 9.29722 170.802 8.76394 170.952 8.26693C171.109 7.76693 171.935 4.70027 171.935 4.70027H169.93V19.5669H168.141V3.07646H172.603C174.043 3.07646 173.734 4.28598 173.734 4.28598ZM176.142 12.4146H174.274V10.805H184.36C184.36 10.805 185.343 10.7574 185.294 11.6384C185.288 11.7498 185.258 11.8589 185.208 11.9592C185.157 12.0594 185.086 12.1487 184.999 12.2216C184.911 12.2945 184.81 12.3496 184.7 12.3836C184.59 12.4176 184.475 12.4297 184.36 12.4193H182.345C182.345 12.4193 181.632 12.386 181.632 13.2146V17.1431C181.62 17.2309 181.63 17.32 181.66 17.4036C181.69 17.4872 181.739 17.5629 181.805 17.6248C181.87 17.6866 181.949 17.7329 182.036 17.7601C182.123 17.7872 182.215 17.7945 182.305 17.7812H185.254C185.356 17.7818 185.456 17.8021 185.55 17.841C185.643 17.8799 185.727 17.9366 185.797 18.0077C185.867 18.0788 185.922 18.1628 185.958 18.2548C185.994 18.3468 186.01 18.4448 186.006 18.5431C186.018 18.6433 186.007 18.7447 185.974 18.8403C185.941 18.9358 185.886 19.0232 185.815 19.0963C185.743 19.1693 185.656 19.2263 185.559 19.2632C185.462 19.3001 185.358 19.316 185.254 19.3098H181.814C181.292 19.3483 180.775 19.1915 180.369 18.8717C180.05 18.5812 179.878 18.0098 179.878 17.1622V13.1622C179.889 13.0661 179.878 12.9688 179.846 12.8773C179.813 12.7858 179.761 12.7024 179.691 12.6332C179.621 12.5639 179.537 12.5105 179.443 12.4768C179.35 12.4431 179.25 12.43 179.15 12.4384C178.511 12.4384 178.516 13.1384 178.511 13.1907C178.388 14.7765 178.162 15.8812 177.425 16.9431C176.491 18.1395 175.227 19.0557 173.778 19.586L172.638 18.0574C174.206 17.5384 175.292 16.8669 175.896 16.0574C176.474 15.2095 176.783 14.2163 176.786 13.2003C176.786 13.2003 176.938 12.4193 176.142 12.4193V12.4146ZM183.515 9.08122H175.719V8.20503H174.245V4.11931H178.177C178.668 4.11931 178.433 3.73836 178.433 3.73836L177.843 2.62884L179.671 2.40979L180.335 3.70027C180.401 3.82392 180.5 3.92807 180.622 4.0018C180.744 4.07553 180.884 4.11612 181.028 4.11931H184.099C184.217 4.11782 184.334 4.14071 184.441 4.18643C184.549 4.23215 184.646 4.29966 184.724 4.38442C184.803 4.46919 184.862 4.56926 184.897 4.67794C184.933 4.78661 184.944 4.90138 184.93 5.01455V8.22408H183.485L183.515 9.08122ZM183.205 5.74788H176.005V7.53836H183.19L183.205 5.74788Z" fill="white"/>
<path d="M48.2211 29.6997H45.6653L45.0018 31.1759H44.1663L46.5254 26.1188H47.4101L49.7693 31.1759H48.8895L48.2211 29.6997ZM46.9383 26.814L45.9553 29.0521H47.9213L46.9383 26.814Z" fill="white"/>
<path d="M50.4834 27.4668H51.2157V27.9811C51.3976 27.7783 51.6251 27.6187 51.8808 27.5146C52.1365 27.4106 52.4134 27.3649 52.6902 27.3811C52.9642 27.368 53.2381 27.409 53.4952 27.5016C53.7523 27.5941 53.9874 27.7364 54.1861 27.9196C54.3848 28.1029 54.543 28.3233 54.651 28.5676C54.7591 28.8119 54.8149 29.0749 54.8149 29.3406C54.8149 29.6064 54.7591 29.8694 54.651 30.1137C54.543 30.358 54.3848 30.5784 54.1861 30.7617C53.9874 30.9449 53.7523 31.0871 53.4952 31.1797C53.2381 31.2723 52.9642 31.3133 52.6902 31.3002C52.4133 31.3175 52.136 31.2723 51.8801 31.1682C51.6243 31.064 51.3968 30.9039 51.2157 30.7002V32.6049H50.4834V27.4668ZM52.5919 27.9764C52.4 27.9654 52.2078 27.9925 52.0271 28.0561C51.8464 28.1197 51.681 28.2184 51.5411 28.3462C51.4012 28.4739 51.2898 28.628 51.2136 28.7991C51.1374 28.9701 51.0981 29.1544 51.0981 29.3406C51.0981 29.5269 51.1374 29.7112 51.2136 29.8822C51.2898 30.0532 51.4012 30.2074 51.5411 30.3351C51.681 30.4629 51.8464 30.5616 52.0271 30.6252C52.2078 30.6888 52.4 30.7159 52.5919 30.7049C52.951 30.6844 53.2884 30.5317 53.5351 30.2781C53.7818 30.0245 53.9192 29.6891 53.9192 29.3406C53.9192 28.9921 53.7818 28.6568 53.5351 28.4032C53.2884 28.1496 52.951 27.9969 52.5919 27.9764Z" fill="white"/>
<path d="M55.7811 27.4669H56.5233V27.9812C56.7061 27.7795 56.9338 27.6207 57.1892 27.5167C57.4447 27.4128 57.7211 27.3665 57.9978 27.3812C58.2717 27.3681 58.5456 27.4091 58.8028 27.5017C59.0599 27.5942 59.2949 27.7365 59.4936 27.9197C59.6923 28.103 59.8505 28.3234 59.9586 28.5677C60.0667 28.812 60.1224 29.075 60.1224 29.3407C60.1224 29.6065 60.0667 29.8695 59.9586 30.1138C59.8505 30.3581 59.6923 30.5785 59.4936 30.7618C59.2949 30.945 59.0599 31.0872 58.8028 31.1798C58.5456 31.2724 58.2717 31.3134 57.9978 31.3003C57.721 31.3161 57.4442 31.2702 57.1886 31.1662C56.933 31.0622 56.7054 30.9028 56.5233 30.7003V32.605H55.7959L55.7811 27.4669ZM57.8847 27.9765C57.6928 27.9655 57.5006 27.9926 57.3199 28.0562C57.1392 28.1198 56.9738 28.2185 56.8339 28.3463C56.694 28.474 56.5826 28.6281 56.5064 28.7992C56.4302 28.9702 56.3909 29.1545 56.3909 29.3407C56.3909 29.527 56.4302 29.7113 56.5064 29.8823C56.5826 30.0533 56.694 30.2075 56.8339 30.3352C56.9738 30.463 57.1392 30.5617 57.3199 30.6253C57.5006 30.6889 57.6928 30.716 57.8847 30.705C58.2438 30.6845 58.5812 30.5318 58.8279 30.2782C59.0746 30.0246 59.2121 29.6892 59.2121 29.3407C59.2121 28.9922 59.0746 28.6569 58.8279 28.4033C58.5812 28.1497 58.2438 27.997 57.8847 27.9765Z" fill="white"/>
<path d="M61.6816 29.5242C61.7165 29.8576 61.8824 30.1652 62.1451 30.3833C62.4077 30.6014 62.7468 30.7132 63.0922 30.6956C63.3417 30.7152 63.5916 30.6633 63.8109 30.5465C64.0302 30.4297 64.2092 30.253 64.3259 30.0385H65.1024C64.9436 30.4152 64.6708 30.7365 64.3199 30.9601C63.969 31.1836 63.5564 31.299 63.1365 31.2909C61.662 31.2909 60.9149 30.3814 60.9149 29.3099C60.9149 28.2385 61.6472 27.329 63.1365 27.329C63.4218 27.3115 63.7077 27.3546 63.9741 27.4552C64.2406 27.5558 64.4811 27.7115 64.6791 27.9114C64.877 28.1114 65.0275 28.3507 65.1202 28.6128C65.2128 28.8749 65.2453 29.1535 65.2155 29.429V29.5242H61.6816ZM64.4291 28.9718C64.3828 28.6664 64.2196 28.3891 63.9719 28.195C63.7242 28.0009 63.4101 27.9042 63.0922 27.9242C62.7695 27.907 62.4513 28.0037 62.1965 28.1963C61.9417 28.3889 61.7675 28.6644 61.7062 28.9718H64.4291Z" fill="white"/>
<path d="M69.6267 30.7003C69.4444 30.9026 69.2167 31.0618 68.9612 31.1658C68.7056 31.2698 68.4289 31.3158 68.1522 31.3003C67.8782 31.3134 67.6043 31.2725 67.3472 31.1799C67.0901 31.0873 66.855 30.9451 66.6563 30.7619C66.4576 30.5786 66.2994 30.3582 66.1914 30.1139C66.0833 29.8696 66.0275 29.6066 66.0275 29.3408C66.0275 29.075 66.0833 28.812 66.1914 28.5678C66.2994 28.3235 66.4576 28.103 66.6563 27.9198C66.855 27.7365 67.0901 27.5943 67.3472 27.5018C67.6043 27.4092 67.8782 27.3682 68.1522 27.3813C68.429 27.3655 68.7058 27.4113 68.9614 27.5153C69.217 27.6193 69.4446 27.7788 69.6267 27.9813V26.0765H70.359V31.1765H69.6267V30.7003ZM68.2554 30.7003C68.5348 30.7003 68.8079 30.6199 69.0401 30.4693C69.2723 30.3187 69.4531 30.1047 69.5595 29.8545C69.666 29.6042 69.6934 29.3289 69.6381 29.0635C69.5829 28.7982 69.4476 28.5547 69.2493 28.3639C69.0511 28.1732 68.7988 28.0438 68.5245 27.9921C68.2503 27.9405 67.9663 27.9689 67.7088 28.0738C67.4512 28.1787 67.2316 28.3554 67.0778 28.5813C66.924 28.8073 66.8429 29.0725 66.8448 29.3432C66.8316 29.5258 66.8591 29.7089 66.9254 29.8803C66.9917 30.0516 67.0953 30.2072 67.229 30.3363C67.3628 30.4655 67.5237 30.5653 67.7008 30.6289C67.8779 30.6925 68.067 30.7185 68.2554 30.7051V30.7003Z" fill="white"/>
<path d="M75.3903 31.1761H74.658V30.6142C74.4912 30.839 74.2688 31.0196 74.0111 31.1394C73.7535 31.2593 73.4689 31.3144 73.1835 31.2999C72.2595 31.2999 71.5764 30.9189 71.5764 29.9904V27.4666H72.2497V29.8475C72.2497 30.3904 72.5937 30.6999 73.385 30.6999C73.5436 30.7152 73.7037 30.6981 73.855 30.6498C74.0063 30.6015 74.1455 30.523 74.2636 30.4193C74.3817 30.3157 74.4761 30.1892 74.5406 30.0481C74.6051 29.9069 74.6384 29.7543 74.6383 29.5999V27.4666H75.3707L75.3903 31.1761Z" fill="white"/>
<path d="M83.7154 27.9376C83.5975 27.2329 83.0273 26.6424 81.9313 26.6424C80.7026 26.6424 79.9162 27.3233 79.9162 28.7091C79.8929 28.9666 79.9274 29.226 80.0174 29.4694C80.1074 29.7128 80.2507 29.9344 80.4375 30.119C80.6243 30.3036 80.8502 30.4468 81.0996 30.5388C81.3489 30.6308 81.6159 30.6694 81.8822 30.6519C82.3176 30.685 82.7495 30.5554 83.0894 30.2898C83.4294 30.0242 83.6516 29.6426 83.7105 29.2233H84.4821C84.3987 29.8235 84.0824 30.3703 83.5976 30.7525C83.1127 31.1346 82.4958 31.3235 81.8723 31.2805C80.56 31.2805 79.1347 30.5757 79.1347 28.6138C79.1108 28.2603 79.1651 27.906 79.294 27.5745C79.423 27.243 79.6235 26.9421 79.8823 26.6918C80.1411 26.4415 80.452 26.2478 80.7944 26.1234C81.1368 25.9991 81.5026 25.9471 81.8674 25.971C82.9192 25.971 84.3249 26.4138 84.4821 27.9186L83.7154 27.9376Z" fill="white"/>
<path d="M87.6097 27.3383C89.0842 27.3383 89.8313 28.2525 89.8313 29.3192C89.8313 30.3859 89.0989 31.3002 87.6097 31.3002C86.1205 31.3002 85.3882 30.3906 85.3882 29.3192C85.3882 28.2478 86.1205 27.3383 87.6097 27.3383ZM87.6097 27.9335C87.3275 27.9363 87.0524 28.02 86.8192 28.1739C86.5859 28.3279 86.4049 28.5453 86.2989 28.7987C86.1929 29.0522 86.1667 29.3303 86.2235 29.5982C86.2804 29.8661 86.4177 30.1116 86.6183 30.304C86.8189 30.4964 87.0738 30.6269 87.3508 30.6793C87.6279 30.7316 87.9147 30.7033 88.1751 30.598C88.4356 30.4927 88.6581 30.3151 88.8147 30.0876C88.9712 29.86 89.0547 29.5927 89.0547 29.3192C89.068 29.1327 89.0397 28.9455 88.9716 28.7706C88.9035 28.5957 88.7972 28.437 88.66 28.3055C88.5229 28.1739 88.358 28.0726 88.1768 28.0084C87.9955 27.9442 87.8021 27.9187 87.6097 27.9335Z" fill="white"/>
<path d="M96.6611 28.8191C96.6754 28.6991 96.6614 28.5774 96.6202 28.4633C96.579 28.3493 96.5116 28.2457 96.4231 28.1605C96.3347 28.0752 96.2275 28.0105 96.1095 27.9712C95.9915 27.9319 95.8659 27.919 95.7421 27.9334C95.0785 27.9334 94.4838 28.2382 94.4838 28.9287V31.1763H93.7515V28.8191C93.7658 28.6991 93.7518 28.5774 93.7106 28.4633C93.6693 28.3493 93.602 28.2457 93.5135 28.1605C93.4251 28.0752 93.3178 28.0105 93.1999 27.9712C93.0819 27.9319 92.9563 27.919 92.8324 27.9334C92.6724 27.918 92.5108 27.9355 92.3582 27.9846C92.2056 28.0337 92.0654 28.1135 91.9467 28.2186C91.828 28.3237 91.7335 28.4519 91.6693 28.5947C91.6051 28.7376 91.5727 28.8919 91.5742 29.0477V31.1858H90.8468V27.4668H91.5742V28.0239C91.7449 27.7972 91.9715 27.6156 92.2334 27.4958C92.4954 27.376 92.7841 27.3218 93.0733 27.3382C93.3335 27.3309 93.5911 27.3905 93.8199 27.5109C94.0487 27.6314 94.2404 27.8084 94.3757 28.0239C94.557 27.7965 94.7927 27.6153 95.0624 27.4958C95.3321 27.3764 95.6278 27.3223 95.9239 27.3382C96.1115 27.3216 96.3005 27.3432 96.479 27.4015C96.6574 27.4598 96.8213 27.5537 96.9601 27.677C97.0989 27.8003 97.2096 27.9503 97.2851 28.1175C97.3606 28.2846 97.3992 28.4652 97.3984 28.6477V31.1763H96.6661L96.6611 28.8191Z" fill="white"/>
<path d="M98.5788 27.4666H99.3112V27.9809C99.4899 27.782 99.7126 27.6247 99.9628 27.5209C100.213 27.417 100.484 27.3691 100.756 27.3809C101.03 27.3678 101.304 27.4088 101.561 27.5014C101.818 27.5939 102.053 27.7362 102.252 27.9194C102.451 28.1027 102.609 28.3231 102.717 28.5674C102.825 28.8117 102.881 29.0747 102.881 29.3404C102.881 29.6062 102.825 29.8692 102.717 30.1135C102.609 30.3578 102.451 30.5782 102.252 30.7615C102.053 30.9447 101.818 31.0869 101.561 31.1795C101.304 31.2721 101.03 31.3131 100.756 31.3C100.483 31.3135 100.211 31.2665 99.9595 31.1626C99.7082 31.0586 99.4848 30.9004 99.3062 30.7V32.6047H98.5739L98.5788 27.4666ZM100.682 27.9762C100.491 27.9652 100.298 27.9923 100.118 28.0559C99.9369 28.1195 99.7715 28.2182 99.6316 28.346C99.4917 28.4737 99.3803 28.6279 99.3041 28.7989C99.2279 28.9699 99.1886 29.1542 99.1886 29.3404C99.1886 29.5267 99.2279 29.711 99.3041 29.882C99.3803 30.053 99.4917 30.2072 99.6316 30.3349C99.7715 30.4627 99.9369 30.5614 100.118 30.625C100.298 30.6886 100.491 30.7157 100.682 30.7047C101.041 30.6842 101.379 30.5315 101.626 30.2779C101.872 30.0243 102.01 29.6889 102.01 29.3404C102.01 28.9919 101.872 28.6566 101.626 28.403C101.379 28.1494 101.041 27.9967 100.682 27.9762Z" fill="white"/>
<path d="M107.726 31.1761H106.998V30.6142C106.831 30.8384 106.608 31.0185 106.351 31.1383C106.093 31.258 105.809 31.3136 105.524 31.2999C104.6 31.2999 103.917 30.9189 103.917 29.9904V27.4666H104.644V29.8475C104.644 30.3904 104.988 30.6999 105.78 30.6999C105.938 30.7159 106.099 30.6994 106.251 30.6514C106.403 30.6034 106.543 30.525 106.661 30.4213C106.78 30.3175 106.875 30.1908 106.94 30.0493C107.004 29.9078 107.038 29.7547 107.038 29.5999V27.4666H107.765L107.726 31.1761Z" fill="white"/>
<path d="M109.235 26.3235H109.963V27.4663H111.078V28.0187H109.982V30.3044C109.982 30.6092 110.204 30.7044 110.577 30.7044C110.742 30.7022 110.907 30.6863 111.069 30.6568V31.2521C110.799 31.2929 110.526 31.3089 110.253 31.2997C109.53 31.2997 109.245 30.9616 109.245 30.4235V28.0425H108.454V27.4663H109.245L109.235 26.3235Z" fill="white"/>
<path d="M112.514 29.5242C112.548 29.8576 112.714 30.1652 112.977 30.3833C113.24 30.6014 113.579 30.7132 113.924 30.6956C114.174 30.7152 114.423 30.6633 114.643 30.5465C114.862 30.4297 115.041 30.253 115.158 30.0385H115.934C115.776 30.4152 115.503 30.7365 115.152 30.9601C114.801 31.1836 114.388 31.299 113.968 31.2909C112.494 31.2909 111.747 30.3814 111.747 29.3099C111.747 28.2385 112.479 27.329 113.968 27.329C114.254 27.3115 114.54 27.3546 114.806 27.4552C115.072 27.5558 115.313 27.7115 115.511 27.9114C115.709 28.1114 115.859 28.3507 115.952 28.6128C116.045 28.8749 116.077 29.1535 116.047 29.429V29.5242H112.514ZM115.261 28.9718C115.215 28.6664 115.052 28.3891 114.804 28.195C114.556 28.0009 114.242 27.9042 113.924 27.9242C113.601 27.907 113.283 28.0037 113.028 28.1963C112.774 28.3889 112.599 28.6644 112.538 28.9718H115.261Z" fill="white"/>
<path d="M117.073 27.4665H117.806V28.1426C117.926 27.9035 118.112 27.7015 118.344 27.5593C118.576 27.4171 118.844 27.3405 119.118 27.3379C119.259 27.3309 119.4 27.3454 119.536 27.3807V28.1426C119.366 28.0962 119.191 28.0738 119.015 28.076C118.848 28.0633 118.681 28.0862 118.524 28.1431C118.368 28.2001 118.226 28.2897 118.11 28.4055C117.993 28.5214 117.904 28.6607 117.849 28.8136C117.794 28.9664 117.774 29.1292 117.791 29.2903V31.195H117.073V27.4665Z" fill="white"/>
<path d="M123.189 26.1188H125.823C127.391 26.1188 128.104 27.1093 128.104 28.5759C128.104 30.0426 127.47 31.1759 125.868 31.1759H123.179L123.189 26.1188ZM125.823 30.5235C127.096 30.5235 127.298 29.4902 127.298 28.5902C127.298 27.6902 126.998 26.7712 125.651 26.7712H123.921V30.5235H125.823Z" fill="white"/>
<path d="M129.789 29.524C129.824 29.8574 129.99 30.165 130.253 30.3831C130.515 30.6012 130.854 30.713 131.2 30.6954C131.449 30.7149 131.699 30.6631 131.918 30.5463C132.138 30.4294 132.317 30.2528 132.433 30.0383H133.195C133.036 30.415 132.764 30.7363 132.413 30.9598C132.062 31.1834 131.649 31.2987 131.229 31.2906C129.755 31.2906 129.008 30.3811 129.008 29.3097C129.008 28.2383 129.755 27.3383 131.229 27.3383C132.237 27.3383 133.303 27.9049 133.303 29.4383V29.524H129.789ZM132.537 28.9716C132.49 28.6662 132.327 28.3888 132.079 28.1947C131.832 28.0006 131.518 27.904 131.2 27.924C130.877 27.9076 130.558 28.0045 130.303 28.1968C130.048 28.3892 129.872 28.6642 129.809 28.9716H132.537Z" fill="white"/>
<path d="M134.863 29.9999C134.863 30.3333 135.138 30.7428 136.067 30.7428C136.996 30.7428 137.237 30.4285 137.237 30.1666C137.237 29.9047 137.099 29.7475 136.514 29.6904L135.305 29.5237C135.036 29.5157 134.78 29.4098 134.588 29.2272C134.396 29.0445 134.282 28.7985 134.268 28.538C134.268 27.7809 134.936 27.3428 136.018 27.3428C137.266 27.3428 137.826 27.8666 137.885 28.5904H137.153C137.153 28.2142 136.77 27.8952 136.008 27.8952C135.516 27.8952 135 28.0285 135 28.4618C135 28.7094 135.118 28.8571 135.634 28.938L136.671 29.0761C137.654 29.2094 138.008 29.5523 138.008 30.0571C138.008 30.9237 137.256 31.3237 136.087 31.3237C135.212 31.3237 134.209 31.1047 134.121 30.0285L134.863 29.9999Z" fill="white"/>
<path d="M138.975 26.0765H139.701V26.8575H138.975V26.0765ZM138.975 27.467H139.701V31.1765H138.975V27.467Z" fill="white"/>
<path d="M144.312 27.4667H145.044V30.8619C145.044 32.1953 144.386 32.7334 142.818 32.7334C141.992 32.7334 141.038 32.6048 140.886 31.5762H141.618C141.756 32.0524 142.189 32.181 142.891 32.181C143.919 32.181 144.312 31.6715 144.312 31.0619V30.5238C144.147 30.7503 143.924 30.9322 143.666 31.0522C143.408 31.1722 143.123 31.2264 142.837 31.2096C141.815 31.2096 140.739 30.6715 140.739 29.3048C140.739 27.9381 141.805 27.4 142.827 27.4C143.108 27.3803 143.388 27.4272 143.645 27.5368C143.902 27.6463 144.128 27.8152 144.302 28.0286L144.312 27.4667ZM142.901 27.9762C142.716 27.9617 142.529 27.9858 142.354 28.0469C142.179 28.1081 142.02 28.2048 141.886 28.3307C141.753 28.4566 141.649 28.6087 141.582 28.7767C141.515 28.9447 141.485 29.1248 141.496 29.3048C141.517 29.6527 141.674 29.9796 141.936 30.2186C142.198 30.4577 142.544 30.5908 142.904 30.5908C143.263 30.5908 143.609 30.4577 143.871 30.2186C144.133 29.9796 144.291 29.6527 144.312 29.3048C144.321 29.1248 144.29 28.945 144.222 28.7773C144.153 28.6096 144.049 28.458 143.916 28.3323C143.782 28.2067 143.623 28.11 143.448 28.0486C143.273 27.9872 143.087 27.9625 142.901 27.9762Z" fill="white"/>
<path d="M146.184 27.4665H146.916V28.0237C147.084 27.8001 147.307 27.6205 147.564 27.5008C147.822 27.3811 148.106 27.3252 148.391 27.338C149.315 27.338 150.003 27.7189 150.003 28.6475V31.1761H149.271V28.7951C149.271 28.2475 148.926 27.938 148.14 27.938C147.983 27.9275 147.826 27.9485 147.678 27.9995C147.53 28.0506 147.394 28.1306 147.279 28.2347C147.164 28.3388 147.073 28.4647 147.01 28.6045C146.948 28.7444 146.916 28.8952 146.916 29.0475V31.1856H146.184V27.4665Z" fill="white"/>
<path d="M154.138 26.1188H154.909V31.1759H154.138V26.1188Z" fill="white"/>
<path d="M156.296 27.4664H157.028V28.0236C157.197 27.8003 157.42 27.6209 157.677 27.5012C157.934 27.3816 158.218 27.3255 158.503 27.3379C159.422 27.3379 160.11 27.7188 160.11 28.6474V31.176H159.378V28.795C159.378 28.2474 159.034 27.9379 158.247 27.9379C158.089 27.9253 157.93 27.9447 157.78 27.9949C157.63 28.045 157.493 28.1247 157.377 28.229C157.26 28.3333 157.167 28.4599 157.104 28.6008C157.041 28.7417 157.008 28.8937 157.009 29.0474V31.1855H156.296V27.4664Z" fill="white"/>
<path d="M161.825 30.0002C161.825 30.3335 162.1 30.743 163.029 30.743C163.958 30.743 164.199 30.4287 164.199 30.1668C164.199 29.9049 164.061 29.7478 163.476 29.6906L162.272 29.524C161.998 29.5207 161.736 29.4164 161.539 29.2324C161.342 29.0484 161.224 28.7984 161.211 28.5335C161.211 27.7764 161.879 27.3383 162.96 27.3383C164.209 27.3383 164.769 27.8621 164.828 28.5859H164.101C164.076 28.2097 163.712 27.8906 162.95 27.8906C162.484 27.8906 161.943 28.024 161.943 28.4573C161.943 28.7049 162.061 28.8525 162.577 28.9335L163.614 29.0716C164.597 29.2049 164.956 29.5478 164.956 30.0525C164.956 30.9192 164.199 31.3192 163.034 31.3192C162.154 31.3192 161.157 31.1002 161.068 30.024L161.825 30.0002Z" fill="white"/>
<path d="M166.259 26.3235H166.991V27.4663H168.092V28.0187H166.996V30.3044C166.996 30.6092 167.217 30.7044 167.586 30.7044C167.751 30.7022 167.915 30.6862 168.077 30.6568V31.2521C167.806 31.2929 167.531 31.3089 167.256 31.2997C166.534 31.2997 166.249 30.9616 166.249 30.4235V28.0425H165.462V27.4663H166.249L166.259 26.3235Z" fill="white"/>
<path d="M168.933 26.0765H169.664V26.8575H168.933V26.0765ZM168.933 27.467H169.664V31.1765H168.933V27.467Z" fill="white"/>
<path d="M171.168 26.3235H171.901V27.4663H173.007V28.0187H171.911V30.3044C171.911 30.6092 172.132 30.7044 172.5 30.7044C172.665 30.7022 172.83 30.6862 172.992 30.6568V31.2521C172.722 31.2929 172.449 31.3089 172.176 31.2997C171.449 31.2997 171.164 30.9616 171.164 30.4235V28.0425H170.377V27.4663H171.164L171.168 26.3235Z" fill="white"/>
<path d="M177.693 31.1761H176.961V30.6142C176.794 30.8387 176.571 31.0191 176.314 31.1388C176.056 31.2586 175.772 31.314 175.486 31.2999C174.562 31.2999 173.879 30.9189 173.879 29.9904V27.4666H174.607V29.8475C174.607 30.3904 174.951 30.6999 175.742 30.6999C175.9 30.7152 176.06 30.6981 176.212 30.6498C176.363 30.6015 176.502 30.523 176.62 30.4193C176.739 30.3157 176.833 30.1892 176.897 30.0481C176.962 29.9069 176.995 29.7543 176.995 29.5999V27.4666H177.727L177.693 31.1761Z" fill="white"/>
<path d="M179.197 26.3235H179.93V27.4663H181.026V28.0187H179.93V30.3044C179.93 30.6092 180.151 30.7044 180.52 30.7044C180.684 30.7022 180.849 30.6862 181.011 30.6568V31.2521C180.741 31.2928 180.468 31.3087 180.195 31.2997C179.468 31.2997 179.183 30.9616 179.183 30.4235V28.0425H178.411V27.4663H179.197V26.3235Z" fill="white"/>
<path d="M182.481 29.524C182.516 29.8574 182.682 30.165 182.945 30.3831C183.207 30.6012 183.547 30.713 183.892 30.6954C184.141 30.7149 184.391 30.6631 184.611 30.5463C184.83 30.4294 185.009 30.2528 185.126 30.0383H185.902C185.743 30.415 185.471 30.7363 185.12 30.9598C184.769 31.1834 184.356 31.2987 183.936 31.2906C182.462 31.2906 181.715 30.3811 181.715 29.3097C181.715 28.2383 182.447 27.3287 183.936 27.3287C184.919 27.3287 186.01 27.8954 186.01 29.4287V29.524H182.481ZM185.229 28.9716C185.183 28.6662 185.019 28.3888 184.772 28.1947C184.524 28.0006 184.21 27.904 183.892 27.924C183.569 27.9076 183.251 28.0045 182.995 28.1968C182.74 28.3892 182.564 28.6642 182.501 28.9716H185.229Z" fill="white"/>
<path d="M11.3682 19.262C10.92 17.8462 10.0681 16.5818 8.91074 15.6144L7.79505 14.8335L7.30356 14.4906L6.88088 14.1954L6.75801 14.1097L6.26652 13.7811L6.01585 13.6049L5.68164 13.3668C3.81397 12.043 2.42305 10.9144 1.74971 9.98108L0.412853 13.9001L0.240831 14.4049V14.4335L0 15.1192C0.00276678 15.2111 0.0176316 15.3023 0.0442342 15.3906C0.324384 16.2763 1.94139 17.6716 5.45064 20.0573C5.51945 20.1049 5.57351 20.1477 5.64232 20.1906L6.00602 20.443L6.37464 20.6906C8.68465 22.3001 10.2673 23.5477 11.0192 24.5763C11.0328 24.5989 11.0493 24.6197 11.0684 24.6382C11.8204 22.9367 11.9266 21.0322 11.3682 19.262Z" fill="#92C767"/>
<path d="M10.6579 25.6382C10.4367 24.8001 8.94256 23.4239 6.18037 21.5287C6.1558 21.5906 6.13614 21.6477 6.11648 21.7096C4.68133 25.9382 4.26847 28.1334 4.78454 28.7858C4.86746 28.8291 4.9607 28.8505 5.05486 28.8477C6.13614 28.8477 8.41666 27.3049 10.6579 25.6382Z" fill="#B7BABB"/>
<path d="M7.01857 13.3046C7.93274 12.9427 8.98454 9.92362 9.64805 7.75696H9.0042C4.52671 7.75696 2.34449 8.06648 1.95129 8.76648C1.76453 9.72362 5.13616 12.057 7.01857 13.3046Z" fill="#B7BABB"/>
<path d="M17.9501 6.0619C18.4841 6.7898 19.1935 7.38027 20.0167 7.78195C20.8398 8.18363 21.7519 8.38436 22.6734 8.36667C23.339 8.35786 24.0003 8.26175 24.6393 8.08095C24.5263 7.75238 24.4083 7.4 24.2855 7.03333L24.1085 6.5C23.101 3.39048 21.8919 0.204762 20.845 0C19.8375 0.166667 18.6333 3.80952 17.9501 6.0619Z" fill="#B7BABB"/>
<path d="M24.0097 25.8904C23.9786 25.8878 23.9474 25.8878 23.9163 25.8904C22.8694 25.8904 20.7855 27.2571 18.5394 28.9047L18.7556 29.0523C22.083 31.4333 24.0686 32.5142 25.0123 32.5142C25.1305 32.5145 25.2469 32.4867 25.3514 32.4333C26.0494 31.7333 24.7764 27.9714 24.0097 25.8904Z" fill="#B7BABB"/>
<path d="M29.3491 21.3383C28.1745 18.2002 27.8747 17.2764 27.4225 15.7479L27.1964 15.0098C26.0108 15.9837 25.1008 17.2341 24.5522 18.6431C24.1472 19.5974 23.9449 20.6209 23.9575 21.6526C23.9549 21.697 23.9549 21.7415 23.9575 21.786C23.9575 21.8336 23.9575 21.8812 23.9575 21.9288V21.9812C23.9865 23.2242 24.2845 24.4474 24.8323 25.5717C24.8815 25.705 24.9355 25.8383 24.9798 25.9669L25.1911 26.6669C25.9578 28.8621 26.4198 30.5431 26.4051 31.6764L29.0346 29.7717L29.8111 29.2098L30.2633 28.8812L30.8777 28.4383C31.5854 27.7002 30.5041 24.4383 29.3491 21.3383Z" fill="#EA6143"/>
<path d="M17.8556 23.3337C16.3242 23.3327 14.824 23.7539 13.5305 24.548C13.1864 24.7956 12.8178 25.0623 12.4344 25.348L11.9429 25.7147L11.5448 26.0099L11.4269 26.1004L10.96 26.448L10.7142 26.629L10.3849 26.8671C8.5025 28.2385 6.98379 29.1909 5.8681 29.5242L9.33803 31.9052L9.7902 32.2147L10.3947 32.629C10.4853 32.6567 10.58 32.6696 10.6749 32.6671C11.6284 32.6671 13.4764 31.5766 16.8677 29.0195L17.0544 28.8814L17.4083 28.6147L17.7622 28.348C20.028 26.6814 21.6941 25.5766 22.9622 25.1861L23.0359 25.1576C21.5812 23.9833 19.7489 23.3383 17.8556 23.3337Z" fill="#48BEE5"/>
<path d="M15.2714 0.0666667H14.7062H13.9346C13.1482 0.214286 12.1849 2.24762 10.8677 6.66667C10.8431 6.75238 10.8185 6.82857 10.7989 6.90952C10.7792 6.99048 10.7153 7.18572 10.6711 7.32381C10.6268 7.46191 10.5875 7.60476 10.5433 7.7381C9.7274 10.4048 9.01966 12.281 8.25293 13.2905C8.38563 13.2905 8.51833 13.2905 8.65104 13.2905H9C10.6496 13.2468 12.2465 12.7177 13.5783 11.7736C14.9101 10.8294 15.9138 9.51489 16.4559 8.00476L16.6476 7.37619C16.7262 7.12381 16.8049 6.87619 16.8786 6.62381C16.8786 6.62381 16.8786 6.62381 16.8786 6.59524L17.0359 6.09524C17.0359 6.03333 17.0752 5.96667 17.0899 5.9C17.144 5.7381 17.1932 5.56667 17.2472 5.42381C17.3013 5.28095 17.3504 5.09048 17.4045 4.92381C17.4045 4.86667 17.4389 4.80476 17.4586 4.75238C18.186 2.51429 18.8347 0.904762 19.5277 0L15.2714 0.0666667Z" fill="#AB1C87"/>
<path d="M32.3256 7.81911C31.8734 7.78577 31.4213 7.76196 30.9789 7.76196C29.379 7.77122 27.7892 8.00869 26.2606 8.46673L25.72 8.62387L25.3317 8.74768C25.3016 8.76002 25.2703 8.76959 25.2383 8.77625L24.9188 8.86673C24.1959 9.07456 23.4465 9.18354 22.6924 9.19053C21.7651 9.1949 20.8468 9.01501 19.9941 8.66196C19.5695 8.48442 19.1644 8.26586 18.785 8.00958C18.6916 7.94768 18.5934 7.88101 18.5049 7.81434C18.5049 7.81434 18.5049 7.84768 18.5049 7.86196C18.7721 9.31561 19.5205 10.6455 20.6368 11.6506C21.7532 12.6558 23.1769 13.2815 24.6928 13.4334C25.3486 13.5014 26.0112 13.4741 26.6587 13.3524C26.9487 13.281 27.2239 13.2143 27.4746 13.162C28.2466 12.9833 29.0415 12.9159 29.8338 12.962C31.0463 13.0598 32.2471 13.2638 33.4216 13.5715L37.216 8.83339C35.6332 8.30844 33.9915 7.96795 32.3256 7.81911Z" fill="#F5D44F"/>
</g>
<defs>
<clipPath id="clip0_221_880">
<rect width="186" height="34" fill="white"/>
</clipPath>
</defs>
</svg>
