<svg width="164" height="34" viewBox="0 0 164 34" fill="none" xmlns="http://www.w3.org/2000/svg">
<path d="M44.709 29.6125H43.3388V33.9587H42.3155V29.6125H40.9453V28.7219H44.709V29.6125Z" fill="white"/>
<path d="M49.6043 33.9584H48.5365L48.2251 33.0233H46.3566L46.0452 33.9584H44.9686L46.8816 28.6949H47.6824L49.6043 33.9584ZM47.9493 32.1772L47.3087 30.2624L46.6503 32.1772H47.9493Z" fill="white"/>
<path d="M51.2782 33.9584H50.2362V28.6949H51.2604L51.2782 33.9584Z" fill="white"/>
<path d="M58.385 28.6949L56.9792 33.9584H56.0894L55.1196 30.7612L54.1586 33.9584H53.2689L51.8719 28.6949H52.9397L53.7493 32.008L54.7103 28.6949H55.5733L56.5343 32.008L57.3529 28.6949H58.385Z" fill="white"/>
<path d="M63.101 33.9584H62.0333L61.7218 33.0233H59.8534L59.5419 33.9584H58.4653L60.3783 28.6949H61.1791L63.101 33.9584ZM61.446 32.1772L60.8054 30.2624L60.1381 32.1772H61.446Z" fill="white"/>
<path d="M67.7742 33.9584H66.8844L64.8024 30.7255V33.9584H63.7792V28.6949H64.6689L66.7421 31.9189V28.6949H67.7742V33.9584Z" fill="white"/>
<path d="M74.419 31.7767C74.4675 32.3569 74.2924 32.9336 73.9296 33.3887C73.7415 33.5876 73.5134 33.7444 73.2603 33.8488C73.0073 33.9532 72.7351 34.0028 72.4615 33.9944C72.1994 34.001 71.9386 33.9538 71.6953 33.8558C71.452 33.7578 71.2313 33.611 71.0468 33.4244C70.8071 33.1805 70.6459 32.8703 70.5842 32.5337C70.513 31.7427 70.513 30.9469 70.5842 30.1558C70.6438 29.8186 70.8052 29.5078 71.0468 29.2652C71.2305 29.077 71.4509 28.9285 71.6942 28.829C71.9376 28.7294 72.1987 28.6808 72.4615 28.6863C72.7659 28.679 73.0686 28.7335 73.3513 28.8467C73.6176 28.9747 73.8587 29.1497 74.0631 29.3632L73.3691 30.0579C73.2463 29.9259 73.1055 29.812 72.9509 29.7194C72.7976 29.6385 72.6259 29.5986 72.4526 29.6036C72.3292 29.6028 72.2068 29.6277 72.0935 29.6768C71.9801 29.7259 71.8782 29.798 71.7942 29.8886C71.6472 30.094 71.5665 30.3396 71.5629 30.5922C71.5487 30.8473 71.5487 31.103 71.5629 31.3581C71.5486 31.6162 71.5486 31.8749 71.5629 32.133C71.5663 32.3884 71.647 32.6368 71.7942 32.8455C71.879 32.9345 71.9812 33.005 72.0946 33.0525C72.2079 33.1 72.3298 33.1235 72.4526 33.1216C72.5842 33.1277 72.7156 33.1045 72.8371 33.0537C72.9587 33.0029 73.0674 32.9257 73.1556 32.8277C73.3172 32.6235 73.3965 32.3661 73.378 32.1063V31.9192H72.4882V31.0286H74.4457L74.419 31.7767Z" fill="white"/>
<path d="M79.1084 31.3222C79.1191 31.7213 79.0953 32.1206 79.0372 32.5156C78.9823 32.8525 78.8236 33.1639 78.5834 33.4062C78.2011 33.7715 77.6928 33.9753 77.1642 33.9753C76.6357 33.9753 76.1274 33.7715 75.7451 33.4062C75.5053 33.1623 75.3441 32.8521 75.2824 32.5156C75.2112 31.7245 75.2112 30.9287 75.2824 30.1377C75.342 29.8004 75.5035 29.4896 75.7451 29.247C76.1242 28.8755 76.6337 28.6675 77.1642 28.6675C77.6948 28.6675 78.2043 28.8755 78.5834 29.247C78.8236 29.4894 78.9823 29.8007 79.0372 30.1377C79.095 30.5297 79.1189 30.926 79.1084 31.3222ZM78.0762 31.3222C78.0762 30.9214 78.0762 30.6631 78.0762 30.5562C78.0724 30.3007 77.9849 30.0536 77.8271 29.8527C77.7467 29.76 77.6467 29.6863 77.5344 29.637C77.4221 29.5877 77.3002 29.564 77.1776 29.5677C77.0526 29.5656 76.9286 29.5899 76.8136 29.639C76.6986 29.6881 76.5953 29.7609 76.5103 29.8527C76.3632 30.0581 76.2825 30.3036 76.2789 30.5562C76.2648 30.8114 76.2648 31.0671 76.2789 31.3222C76.2646 31.5803 76.2646 31.8389 76.2789 32.097C76.2825 32.3497 76.3632 32.5952 76.5103 32.8006C76.5953 32.8923 76.6986 32.9651 76.8136 33.0142C76.9286 33.0633 77.0526 33.0876 77.1776 33.0856C77.3157 33.0856 77.452 33.0534 77.5755 32.9915C77.699 32.9297 77.8065 32.8399 77.8894 32.7293C78.0642 32.2822 78.1283 31.7994 78.0762 31.3222Z" fill="white"/>
<path d="M83.8593 31.3222C83.8701 31.7213 83.8463 32.1206 83.7881 32.5156C83.7333 32.8525 83.5746 33.1639 83.3344 33.4062C82.952 33.7715 82.4438 33.9753 81.9152 33.9753C81.3866 33.9753 80.8784 33.7715 80.496 33.4062C80.2563 33.1623 80.0951 32.8521 80.0334 32.5156C79.9622 31.7245 79.9622 30.9287 80.0334 30.1377C80.093 29.8004 80.2544 29.4896 80.496 29.247C80.8752 28.8755 81.3846 28.6675 81.9152 28.6675C82.4458 28.6675 82.9552 28.8755 83.3344 29.247C83.5746 29.4894 83.7333 29.8007 83.7881 30.1377C83.846 30.5297 83.8698 30.926 83.8593 31.3222V31.3222ZM82.8272 31.3222C82.8272 30.9214 82.8272 30.6631 82.8272 30.5562C82.819 30.3015 82.732 30.0557 82.5781 29.8527C82.4977 29.76 82.3977 29.6863 82.2854 29.637C82.173 29.5877 82.0511 29.564 81.9285 29.5677C81.8036 29.5656 81.6795 29.5899 81.5646 29.639C81.4496 29.6881 81.3462 29.7609 81.2612 29.8527C81.1144 30.0588 81.031 30.3033 81.021 30.5562C81.021 30.6453 81.021 30.9036 81.021 31.3222C81.021 31.7408 81.021 32.0079 81.021 32.097C81.031 32.3499 81.1144 32.5945 81.2612 32.8006C81.3462 32.8923 81.4496 32.9651 81.5646 33.0142C81.6795 33.0633 81.8036 33.0876 81.9285 33.0856C82.0667 33.0856 82.2029 33.0534 82.3265 32.9915C82.45 32.9297 82.5575 32.8399 82.6404 32.7293C82.8152 32.2822 82.8793 31.7994 82.8272 31.3222V31.3222Z" fill="white"/>
<path d="M88.7192 31.3051C88.7273 31.6886 88.7124 32.0723 88.6747 32.454C88.622 32.8302 88.4506 33.1797 88.1854 33.4515C88.0012 33.627 87.783 33.7627 87.5442 33.85C87.3054 33.9373 87.0511 33.9745 86.7973 33.9591H84.9377V28.6956H86.8329C87.0867 28.6803 87.3409 28.7174 87.5798 28.8048C87.8186 28.8921 88.0368 29.0278 88.2209 29.2033C88.4847 29.4653 88.6564 29.806 88.7103 30.174C88.7361 30.5505 88.739 30.9282 88.7192 31.3051V31.3051ZM87.696 31.3051C87.7167 31.0086 87.7167 30.711 87.696 30.4145C87.6834 30.2433 87.6216 30.0794 87.518 29.9425C87.4262 29.8279 87.3074 29.7379 87.1724 29.6804C87.0373 29.6229 86.8901 29.5997 86.7439 29.613H85.9699V33.0418H86.7173C86.8634 33.055 87.0106 33.0319 87.1457 32.9744C87.2807 32.9169 87.3995 32.8269 87.4913 32.7123C87.5946 32.5685 87.6562 32.399 87.6693 32.2224C87.6981 31.9176 87.707 31.6111 87.696 31.3051Z" fill="white"/>
<path d="M95.2837 31.3045C95.3112 31.687 95.3112 32.0709 95.2837 32.4534C95.2372 32.8296 95.0684 33.1801 94.8032 33.4509C94.6182 33.6251 94.3998 33.7599 94.1612 33.8471C93.9226 33.9344 93.6688 33.9723 93.4152 33.9585H91.52V28.695H93.4152C93.6688 28.6812 93.9226 28.7191 94.1612 28.8064C94.3998 28.8937 94.6182 29.0285 94.8032 29.2027C95.0643 29.4656 95.2329 29.8063 95.2837 30.1734C95.3112 30.5499 95.3112 30.928 95.2837 31.3045ZM94.2605 31.3045C94.2799 31.0079 94.2799 30.7104 94.2605 30.4139C94.2453 30.2417 94.1803 30.0777 94.0736 29.9419C93.9826 29.8286 93.8653 29.7394 93.7319 29.6819C93.5986 29.6245 93.4532 29.6006 93.3084 29.6123H92.5343V33.0412H93.3084C93.4532 33.0529 93.5986 33.029 93.7319 32.9716C93.8653 32.9141 93.9826 32.8249 94.0736 32.7117C94.1836 32.5709 94.2487 32.4002 94.2605 32.2218C94.2792 31.9163 94.2792 31.61 94.2605 31.3045V31.3045Z" fill="white"/>
<path d="M99.796 33.9584H96.3348V28.6949H99.796V29.5856H97.3937V30.8235H99.4668V31.7141H97.3937V32.9966H99.8316L99.796 33.9584Z" fill="white"/>
<path d="M104.2 32.4C104.208 32.6258 104.163 32.8504 104.067 33.0549C103.971 33.2594 103.827 33.438 103.648 33.5757C103.244 33.8702 102.751 34.0179 102.251 33.9942C101.901 34.0162 101.551 33.9667 101.22 33.8488C100.89 33.7309 100.587 33.5471 100.33 33.3085L100.997 32.6405C101.168 32.7964 101.369 32.9161 101.588 32.9926C101.806 33.0691 102.038 33.1008 102.269 33.0858C102.883 33.0858 103.159 32.8632 103.159 32.4357C103.164 32.3551 103.154 32.2744 103.128 32.198C103.102 32.1216 103.061 32.051 103.008 31.9904C102.869 31.8887 102.707 31.8243 102.536 31.8033L101.896 31.7143C101.706 31.7159 101.518 31.6784 101.344 31.604C101.169 31.5297 101.012 31.4202 100.882 31.2823C100.751 31.1444 100.651 30.981 100.587 30.8025C100.522 30.624 100.495 30.4342 100.508 30.2448C100.499 30.029 100.539 29.814 100.623 29.6154C100.708 29.4167 100.836 29.2393 100.997 29.0959C101.37 28.7847 101.847 28.6257 102.332 28.6506C102.641 28.6352 102.951 28.6815 103.243 28.787C103.535 28.8925 103.803 29.0551 104.031 29.2651L103.381 29.9064C103.083 29.6507 102.697 29.5227 102.305 29.5501C102.087 29.5361 101.872 29.6026 101.7 29.7371C101.634 29.7967 101.582 29.8696 101.547 29.951C101.511 30.0324 101.494 30.1204 101.495 30.2092C101.493 30.2807 101.507 30.3518 101.534 30.4178C101.562 30.4838 101.603 30.5432 101.655 30.5921C101.791 30.707 101.959 30.7783 102.136 30.797L102.75 30.886C103.118 30.9119 103.47 31.052 103.755 31.2868C103.904 31.4299 104.021 31.6033 104.098 31.7953C104.175 31.9873 104.209 32.1935 104.2 32.4Z" fill="white"/>
<path d="M106.184 33.9584H105.16V28.6949H106.184V33.9584Z" fill="white"/>
<path d="M111.112 31.7771C111.163 32.3561 110.991 32.9327 110.632 33.3891C110.444 33.588 110.216 33.7448 109.962 33.8491C109.709 33.9535 109.437 34.0031 109.164 33.9947C108.902 34.0013 108.641 33.9542 108.397 33.8562C108.154 33.7581 107.933 33.6113 107.749 33.4247C107.509 33.1808 107.348 32.8706 107.286 32.5341C107.215 31.743 107.215 30.9472 107.286 30.1562C107.346 29.8189 107.507 29.5081 107.749 29.2656C107.933 29.0774 108.153 28.9289 108.396 28.8293C108.64 28.7297 108.901 28.6812 109.164 28.6867C109.468 28.6803 109.77 28.7348 110.053 28.847C110.318 28.9732 110.557 29.1485 110.756 29.3635L110.062 30.0582C109.944 29.9248 109.806 29.8107 109.653 29.7198C109.5 29.6388 109.328 29.5989 109.155 29.604C109.031 29.6031 108.909 29.6281 108.796 29.6771C108.682 29.7262 108.58 29.7983 108.496 29.889C108.35 30.0951 108.266 30.3396 108.256 30.5926C108.256 30.6816 108.256 30.9399 108.256 31.3585C108.256 31.7771 108.256 32.0443 108.256 32.1333C108.266 32.3889 108.35 32.6362 108.496 32.8458C108.581 32.9348 108.683 33.0053 108.797 33.0528C108.91 33.1003 109.032 33.1239 109.155 33.1219C109.285 33.1267 109.415 33.1029 109.534 33.0521C109.654 33.0013 109.762 32.9248 109.849 32.828C110.017 32.6269 110.1 32.3681 110.08 32.1066V31.9196H109.19V31.029H111.139L111.112 31.7771Z" fill="white"/>
<path d="M116.122 33.9584H115.232L113.159 30.7255V33.9584H112.127V28.6949H113.017L115.099 31.9189V28.6949H116.122V33.9584Z" fill="white"/>
<path d="M123.116 33.9584H122.048L121.737 33.0233H119.868L119.557 33.9584H118.489L120.393 28.6949H121.203L123.116 33.9584ZM121.461 32.1772L120.821 30.2624L120.162 32.1772H121.461Z" fill="white"/>
<path d="M127.163 32.4C127.174 32.6261 127.129 32.8514 127.033 33.0563C126.937 33.2612 126.792 33.4394 126.612 33.5756C126.207 33.8702 125.715 34.0178 125.215 33.9942C124.866 34.017 124.516 33.9679 124.187 33.8499C123.858 33.732 123.557 33.5476 123.302 33.3084L123.96 32.6404C124.31 32.9501 124.767 33.11 125.233 33.0857C125.855 33.0857 126.122 32.8631 126.122 32.4356C126.13 32.3549 126.12 32.2736 126.094 32.1969C126.068 32.1202 126.026 32.0498 125.971 31.9903C125.833 31.8872 125.671 31.8226 125.5 31.8033L124.868 31.7142C124.678 31.7171 124.489 31.6805 124.313 31.6067C124.138 31.5329 123.979 31.4235 123.848 31.2855C123.717 31.1475 123.616 30.9837 123.551 30.8046C123.486 30.6255 123.459 30.4348 123.471 30.2447C123.464 30.0283 123.506 29.8131 123.592 29.6145C123.678 29.4159 123.807 29.2388 123.969 29.0958C124.342 28.7847 124.819 28.6257 125.304 28.6505C125.612 28.6353 125.921 28.6818 126.211 28.7873C126.501 28.8928 126.768 29.0552 126.994 29.265L126.345 29.9063C126.047 29.6498 125.66 29.5217 125.268 29.55C125.053 29.5382 124.842 29.6047 124.672 29.7371C124.604 29.795 124.549 29.8674 124.512 29.9491C124.475 30.0307 124.457 30.1195 124.459 30.2091C124.456 30.2815 124.47 30.3536 124.499 30.4199C124.529 30.4863 124.572 30.5451 124.628 30.592C124.761 30.7053 124.925 30.7765 125.099 30.7969L125.722 30.8859C126.09 30.9157 126.44 31.0554 126.727 31.2867C126.874 31.4317 126.988 31.6055 127.063 31.7972C127.138 31.989 127.172 32.1943 127.163 32.4V32.4Z" fill="white"/>
<path d="M131.523 32.4005C131.532 32.6263 131.486 32.8508 131.39 33.0553C131.294 33.2598 131.151 33.4384 130.972 33.5761C130.567 33.8707 130.074 34.0183 129.575 33.9947C129.222 34.0176 128.868 33.9669 128.536 33.8458C128.203 33.7247 127.9 33.5358 127.644 33.2911L128.302 32.6231C128.474 32.779 128.675 32.8987 128.893 32.9752C129.112 33.0517 129.344 33.0834 129.575 33.0684C130.198 33.0684 130.465 32.8458 130.465 32.4183C130.472 32.3376 130.462 32.2563 130.436 32.1796C130.41 32.1029 130.368 32.0325 130.313 31.973C130.175 31.8699 130.013 31.8053 129.842 31.786L129.21 31.6969C129.02 31.6997 128.831 31.6631 128.655 31.5894C128.48 31.5156 128.321 31.4062 128.19 31.2682C128.059 31.1302 127.958 30.9664 127.893 30.7873C127.828 30.6082 127.801 30.4175 127.813 30.2274C127.805 30.0116 127.844 29.7966 127.929 29.5979C128.014 29.3993 128.141 29.2219 128.302 29.0785C128.676 28.7673 129.152 28.6083 129.637 28.6332C129.947 28.6173 130.257 28.6634 130.549 28.769C130.841 28.8745 131.108 29.0372 131.337 29.2477L130.687 29.889C130.389 29.6324 130.002 29.5043 129.61 29.5327C129.396 29.5209 129.184 29.5873 129.014 29.7197C128.946 29.7777 128.891 29.8501 128.855 29.9317C128.818 30.0134 128.799 30.1022 128.801 30.1918C128.798 30.2642 128.812 30.3363 128.841 30.4026C128.871 30.469 128.915 30.5278 128.97 30.5747C129.103 30.688 129.267 30.7592 129.441 30.7796L130.064 30.8686C130.43 30.8963 130.778 31.0363 131.061 31.2694C131.215 31.4129 131.337 31.5885 131.417 31.7838C131.497 31.9792 131.533 32.1896 131.523 32.4005V32.4005Z" fill="white"/>
<path d="M136.186 31.3222C136.197 31.7213 136.173 32.1206 136.115 32.5156C136.06 32.8525 135.902 33.1639 135.661 33.4062C135.279 33.7715 134.771 33.9753 134.242 33.9753C133.714 33.9753 133.205 33.7715 132.823 33.4062C132.583 33.1639 132.424 32.8525 132.369 32.5156C132.286 31.7251 132.286 30.9281 132.369 30.1377C132.422 29.8002 132.581 29.4883 132.823 29.247C133.202 28.8755 133.712 28.6675 134.242 28.6675C134.773 28.6675 135.282 28.8755 135.661 29.247C135.902 29.4894 136.06 29.8007 136.115 30.1377C136.173 30.5297 136.197 30.926 136.186 31.3222ZM135.163 31.3222C135.163 30.9214 135.163 30.6631 135.163 30.5562C135.162 30.3018 135.077 30.0547 134.923 29.8527C134.839 29.7594 134.737 29.6847 134.623 29.6336C134.509 29.5826 134.385 29.5562 134.26 29.5562C134.135 29.5562 134.011 29.5826 133.897 29.6336C133.783 29.6847 133.681 29.7594 133.597 29.8527C133.45 30.0581 133.369 30.3036 133.366 30.5562C133.366 30.6453 133.366 30.9036 133.366 31.3222C133.366 31.7408 133.366 32.0079 133.366 32.097C133.369 32.3497 133.45 32.5952 133.597 32.8006C133.682 32.8923 133.785 32.9651 133.9 33.0142C134.015 33.0633 134.139 33.0876 134.264 33.0856C134.403 33.0856 134.539 33.0534 134.662 32.9915C134.786 32.9297 134.893 32.8399 134.976 32.7293C135.153 32.2827 135.217 31.7995 135.163 31.3222V31.3222Z" fill="white"/>
<path d="M140.448 33.3979C140.257 33.5902 140.03 33.7421 139.779 33.8446C139.528 33.9471 139.26 33.9981 138.989 33.9946C138.727 34.0013 138.466 33.9541 138.223 33.8561C137.979 33.7581 137.759 33.6112 137.574 33.4246C137.334 33.1808 137.173 32.8705 137.111 32.534C137.04 31.743 137.04 30.9471 137.111 30.1561C137.171 29.8189 137.333 29.508 137.574 29.2655C137.758 29.0773 137.978 28.9288 138.222 28.8292C138.465 28.7296 138.726 28.6811 138.989 28.6866C139.26 28.6847 139.529 28.7374 139.78 28.8414C140.03 28.9454 140.258 29.0987 140.448 29.2922L139.772 29.978C139.673 29.8659 139.553 29.7749 139.419 29.7107C139.284 29.6464 139.138 29.61 138.989 29.6039C138.851 29.5984 138.714 29.6273 138.589 29.6879C138.465 29.7485 138.358 29.839 138.277 29.9512C138.1 30.3978 138.033 30.8804 138.081 31.3584C138.081 31.7681 138.081 32.0264 138.081 32.1332C138.087 32.3896 138.171 32.6381 138.322 32.8457C138.405 32.9336 138.506 33.0035 138.618 33.051C138.73 33.0985 138.85 33.1226 138.971 33.1218C139.12 33.1157 139.266 33.0793 139.401 33.015C139.535 32.9508 139.656 32.8598 139.754 32.7478L140.448 33.3979Z" fill="white"/>
<path d="M142.407 33.9584H141.383V28.6949H142.407V33.9584Z" fill="white"/>
<path d="M147.682 33.9584H146.614L146.33 33.0233H144.47L144.15 33.9584H143.082L144.986 28.6949H145.796L147.682 33.9584ZM146.036 32.1772L145.386 30.2624L144.728 32.1772H146.036Z" fill="white"/>
<path d="M151.711 29.6125H150.341V33.9587H149.309V29.6125H147.939V28.7219H151.711V29.6125Z" fill="white"/>
<path d="M34.3158 16.9008H25.8898V33.7688H34.3158V16.9008Z" fill="#DFAD77"/>
<path fill-rule="evenodd" clip-rule="evenodd" d="M8.426 0H33.6951V8.43404H8.426V25.3018H12.6349V16.8677H21.0609V33.7358H21.0605V33.7358H0V33.7273V25.3018V8.43404V0H8.426Z" fill="#DFAD77"/>
<path d="M50.4303 13.7684C51.9142 14.7947 53.2419 16.0306 54.3719 17.4378L53.2597 18.3284C52.9944 17.9221 52.6969 17.5379 52.37 17.1795C48.5529 17.3487 44.5223 17.4823 42.031 17.5535C42.0154 17.61 41.9817 17.6597 41.9351 17.6951C41.8884 17.7305 41.8315 17.7496 41.773 17.7494L41.3014 16.2978H43.6681C44.6115 14.9768 45.4222 13.5658 46.0883 12.0852L47.7343 12.6908C47.681 12.7977 47.5386 12.8333 47.3606 12.8333C46.7193 14.0217 45.9969 15.1643 45.1985 16.2532C47.0848 16.2532 49.1846 16.1553 51.2578 16.1018C50.693 15.5591 50.0989 15.0477 49.4783 14.57L50.4303 13.7684ZM43.3122 24.4557V18.7826H52.2098V24.3845H50.8485V23.9214H44.6202V24.4379L43.3122 24.4557ZM50.893 20.0027H44.6647V22.7458H50.893V20.0027Z" fill="white"/>
<path d="M60.2545 15.7993C61.0008 16.1249 61.696 16.5569 62.3188 17.0818L61.5536 18.0436C60.9411 17.4976 60.2626 17.0309 59.5338 16.6543L60.2545 15.7993ZM60.5748 12.2992C61.3004 12.6683 61.9737 13.1326 62.5768 13.6797L61.776 14.5703C61.1958 13.9819 60.5335 13.481 59.8096 13.0829L60.5748 12.2992ZM59.8274 23.6188C60.5069 22.2375 61.1012 20.8158 61.6069 19.3617L62.648 20.0029C62.2177 21.3453 61.7127 22.6625 61.1354 23.9483C61.1936 23.9912 61.2333 24.0546 61.2465 24.1257C61.2598 24.1969 61.2455 24.2703 61.2066 24.3313L59.8274 23.6188ZM63.8758 18.8095V16.9304H63.7513C63.6134 17.5439 63.3695 18.1286 63.0306 18.6581C62.8367 18.4965 62.6282 18.3534 62.4077 18.2306C62.7151 17.7094 62.9232 17.1357 63.0217 16.5385L63.9114 16.7701V16.1644L63.0217 16.2179C63.0108 16.2606 62.9871 16.299 62.9536 16.3277C62.9202 16.3564 62.8787 16.374 62.8348 16.3782L62.5412 15.4163H63.2708C63.422 15.2293 63.5911 15.0334 63.7424 14.8196C63.4182 14.4866 63.0604 14.1881 62.6747 13.929L63.1373 13.3056L63.2975 13.4125C63.5615 13.0017 63.7849 12.5662 63.9648 12.1122L64.908 12.5575C64.8755 12.6029 64.8301 12.6375 64.7777 12.6566C64.7253 12.6756 64.6683 12.6783 64.6143 12.6644C64.3962 13.0723 64.1556 13.4677 63.8936 13.8489C64.0192 13.9379 64.1354 14.0393 64.2406 14.1517C64.4809 13.8222 64.6855 13.4926 64.8546 13.2076L65.6642 13.6529V13.457H69.0275V13.7954L69.4012 13.2967L69.597 13.4125C69.8578 12.9939 70.0925 12.5597 70.2999 12.1122L71.1896 12.5753C71.1561 12.6146 71.1134 12.6449 71.0652 12.6636C71.0171 12.6822 70.965 12.6886 70.9138 12.6822C70.7092 12.9939 70.4155 13.457 70.1397 13.8489L70.5312 14.1873C70.7857 13.8664 71.0205 13.5304 71.2341 13.1809L72.1239 13.6797C72.0794 13.7687 71.937 13.7865 71.8125 13.7687C71.3879 14.3492 70.9273 14.9025 70.4333 15.4252H71.4299C71.3498 15.2738 71.2608 15.1135 71.1807 14.9799L71.8303 14.7039C72.1345 15.157 72.3713 15.652 72.5332 16.1733L71.8303 16.4761L71.7235 16.111L71.0829 16.1644V18.8362H70.1931V16.9125C70.1257 16.9516 70.0484 16.9702 69.9707 16.966C69.845 17.5721 69.6066 18.1492 69.2678 18.667C69.0749 18.5124 68.8729 18.3697 68.6627 18.2396C68.9545 17.7232 69.1533 17.1594 69.25 16.5741L70.1931 16.8324V16.1911L69.25 16.2446C69.2336 16.2882 69.206 16.3268 69.1701 16.3565C69.1342 16.3862 69.0912 16.4059 69.0453 16.4138L68.7695 15.452H69.4724L69.9707 14.8731C69.6539 14.5494 69.3117 14.2515 68.9474 13.9825V14.1784H65.5842V13.8043C65.522 13.8106 65.4594 13.8106 65.3973 13.8043C65.077 14.2585 64.5876 14.882 64.125 15.4163H65.0147L64.8101 14.9532L65.4062 14.7306C65.6518 15.1918 65.8371 15.6827 65.9579 16.1911L65.3617 16.3693C65.3437 16.2612 65.3199 16.1542 65.2905 16.0487L64.7389 16.0932V18.765L63.8758 18.8095ZM70.9227 21.8376L71.1807 21.7931L71.9281 22.0068C71.9169 22.1011 71.88 22.1905 71.8214 22.2651C71.3765 24.3847 70.9316 24.4382 69.3656 24.4382C68.983 24.4382 68.4759 24.4382 67.9598 24.4382C67.9216 24.1195 67.8088 23.8144 67.6306 23.5476C68.4047 23.6099 69.2055 23.6277 69.508 23.6277C70.033 23.6277 70.2287 23.6277 70.4778 22.7371H64.641L64.5254 23.1023L63.342 22.933C63.6209 22.165 63.8497 21.3796 64.0271 20.5819H69.9618V19.9317H63.4488V19.1569H71.1807V21.2854H65.0414L64.8902 21.8554L70.9227 21.8376ZM65.5842 16.5741C65.747 17.0315 65.8691 17.5024 65.949 17.9813L65.255 18.1594C65.1739 17.6724 65.0639 17.1906 64.9257 16.7166L65.5842 16.5741ZM68.725 14.5435V15.1937H66.0557V14.5881L68.725 14.5435ZM66.0557 16.2268V15.5855H68.725V16.2268H66.0557ZM66.0557 18.6225V16.6365H68.725V18.6225H66.0557ZM68.5915 12.3883V13.0295H66.1536V12.3883H68.5915ZM66.8832 17.2599V18.008H67.8886V17.2599H66.8832ZM71.848 18.48C71.7223 17.8873 71.5467 17.3064 71.3231 16.7433L72.0082 16.5563C72.2496 17.1047 72.4402 17.6741 72.5777 18.2574L71.848 18.48Z" fill="white"/>
<path d="M82.6493 14.7838L83.3522 14.9441C83.3364 15.0218 83.3094 15.0968 83.2721 15.1667C83.172 17.0925 82.7541 18.9884 82.0353 20.7776C82.6023 21.1939 83.1269 21.6652 83.6013 22.1847L82.8094 23.1911C82.4025 22.7114 81.9495 22.2729 81.457 21.8819C80.8111 22.964 79.8901 23.8552 78.7877 24.4647C78.5738 24.0928 78.3037 23.7563 77.9869 23.4672C79.0129 22.9363 79.8605 22.1157 80.4249 21.1071C80.0334 20.831 79.6508 20.5727 79.2593 20.3233L79.1258 20.831L78.0492 20.2788C78.3784 19.1478 78.761 17.607 79.1347 15.9683H77.9069V14.8105H79.3838C79.5796 13.8575 79.7576 12.9402 79.9088 12.1387L81.4303 12.299C81.4303 12.4148 81.3235 12.4771 81.1189 12.4949C80.9765 13.2074 80.7986 14.0089 80.6206 14.8372H82.4001L82.6493 14.7838ZM80.3893 15.9683C80.1312 17.0726 79.8643 18.177 79.6063 19.1745C80.0601 19.4416 80.496 19.7266 80.9854 20.0651C81.5127 18.768 81.8427 17.399 81.9641 16.0039L80.3893 15.9683ZM90.8261 17.9365V19.1121H87.6052V22.9774C87.6052 24.242 87.0536 24.4469 84.6423 24.4201C84.5425 23.9935 84.3838 23.5828 84.1707 23.2H85.6922C86.1638 23.2 86.2884 23.2 86.2884 22.9417V19.0854H83.1564V17.9098H86.324V15.7812H86.8222C87.4335 15.2043 87.9905 14.5723 88.4861 13.8932H83.6992V12.8066H89.4559L89.6872 12.7443L90.7105 13.3499C90.6332 13.4217 90.5378 13.4709 90.4346 13.4924C89.6231 14.6142 88.6857 15.6392 87.6408 16.5472V17.9632L90.8261 17.9365Z" fill="white"/>
<path d="M101.493 14.3211V15.3186H96.1545V14.3211H101.493ZM100.995 19.7538V23.6992H97.8718V24.2692H96.7507V19.7538H100.995ZM103.735 13.6265V14.1252C103.785 14.8316 103.647 15.5387 103.334 16.174C103.021 16.8093 102.546 17.3501 101.956 17.7411C101.677 17.428 101.353 17.1579 100.995 16.9395V17.1265H96.7774V16.1469H100.995V16.9128C101.484 16.6346 101.884 16.2233 102.148 15.7268C102.413 15.2302 102.531 14.6686 102.49 14.1074V12.5221H107.018V15.6659C107.018 15.9776 107.018 16.0311 107.25 16.0311H107.801C108.015 16.0311 108.068 15.8619 108.095 14.6239C108.424 14.8405 108.788 14.9973 109.172 15.087C109.083 16.6812 108.762 17.0998 107.944 17.0998H107.054C106.093 17.0998 105.8 16.7792 105.8 15.6748V13.6265H103.735ZM96.7774 18.9166V17.937H100.995V18.9166H96.7774ZM100.968 12.5577V13.5285H96.8308V12.5577H100.968ZM99.847 20.7513H97.8718V22.6928H99.847V20.7513ZM107.641 17.8123L108.487 18.1329C108.452 18.2016 108.404 18.2622 108.344 18.311C107.946 19.7277 107.179 21.0127 106.12 22.0338C107.061 22.6486 108.103 23.0918 109.198 23.343C108.858 23.6632 108.559 24.0253 108.309 24.4206C107.142 24.1056 106.044 23.5772 105.07 22.862C104.039 23.5752 102.892 24.1027 101.68 24.4206C101.503 24.0243 101.266 23.6578 100.977 23.3341C102.09 23.0841 103.148 22.6345 104.1 22.007C103.34 21.2307 102.722 20.3263 102.276 19.3352L103.442 18.979C103.831 19.8298 104.385 20.5955 105.07 21.2322C105.768 20.6014 106.326 19.8307 106.707 18.9701H101.644V17.839H107.365L107.641 17.8123Z" fill="white"/>
<path d="M120.001 14.3207V15.3181H114.378V14.3207H120.001ZM119.423 19.7533V23.6988H116.158V24.2687H115.01V19.7533H119.423ZM115.036 17.1261V16.1464H119.485V17.1261H115.036ZM115.036 18.9073V17.9276H119.485V18.9073H115.036ZM119.485 12.5483V13.5191H115.143V12.5483H119.485ZM118.266 20.7419H116.175V22.6834H118.266V20.7419ZM127.493 16.6184V17.8475H124.45V24.3845H123.107V17.8207H119.966V16.5917H123.107V12.1387L124.762 12.2366C124.762 12.3524 124.655 12.4326 124.432 12.4593V16.6184H127.493Z" fill="white"/>
<path d="M137.103 16.6898H135.555V24.3846H134.292V16.6541H132.646V15.5053H134.292V12.0764L135.867 12.1655C135.867 12.2724 135.76 12.3436 135.555 12.3792V15.5053H137.103V16.6898ZM140.022 19.0588H140.6C140.556 19.3794 140.6 23.3871 140.093 23.966C139.808 24.3401 139.497 24.4291 138.313 24.3846C138.299 24.0432 138.211 23.7089 138.055 23.4049C138.328 23.4192 138.601 23.4192 138.874 23.4049C138.934 23.4121 138.995 23.4025 139.05 23.3774C139.105 23.3523 139.151 23.3125 139.185 23.2624C139.354 23.0487 139.452 22.2115 139.523 19.9583H138.634C138.549 21.6258 137.867 23.2068 136.712 24.4113C136.531 24.1064 136.288 23.8425 136 23.6365C136.94 22.6427 137.489 21.343 137.548 19.9761H136.329V19.041H137.628C137.628 18.6224 137.673 18.1504 137.682 17.7318L139.079 17.8208C139.079 17.9277 138.972 18.0079 138.776 18.0346C138.776 18.373 138.776 18.7114 138.723 19.041H140.093L140.022 19.0588ZM144.657 13.9111C144.382 17.331 144.115 17.518 142.442 17.518H141.552C141.518 17.1456 141.406 16.7845 141.223 16.4582C141.775 16.5116 142.299 16.5116 142.522 16.5116C142.744 16.5116 142.851 16.5116 142.958 16.3959C143.065 16.2801 143.269 15.7101 143.394 14.5256H141.081C140.801 15.2985 140.34 15.9926 139.736 16.5492C139.132 17.1058 138.403 17.5084 137.61 17.7229C137.441 17.3895 137.216 17.0881 136.943 16.8323C137.568 16.6914 138.152 16.4074 138.65 16.0025C139.147 15.5977 139.543 15.083 139.808 14.4989H137.522V13.4925H140.102C140.192 13.0312 140.249 12.5639 140.271 12.0942L141.775 12.2011C141.775 12.308 141.668 12.3792 141.472 12.4059C141.472 12.78 141.392 13.1451 141.339 13.4925H143.732H143.99L144.684 13.5905L144.657 13.9111ZM144.657 19.0588H145.271C145.271 19.1567 145.271 19.2814 145.271 19.415C145.191 22.4965 145.12 23.6009 144.826 23.966C144.533 24.3312 144.221 24.4291 142.931 24.3846C142.911 24.0335 142.817 23.6905 142.655 23.3782C143.047 23.3782 143.376 23.3782 143.545 23.3782C143.61 23.3854 143.676 23.3762 143.737 23.3513C143.797 23.3264 143.851 23.2866 143.892 23.2357C144.026 23.0398 144.097 22.2204 144.168 19.9583H143.18C143.083 21.6292 142.362 23.2025 141.161 24.3668C140.959 24.0665 140.706 23.8042 140.413 23.592C141.41 22.6389 142 21.3368 142.059 19.9583H140.929V19.041H142.148C142.148 18.6224 142.148 18.1504 142.202 17.7318L143.625 17.8208C143.625 17.9277 143.518 18.0079 143.332 18.0346C143.332 18.373 143.332 18.7114 143.278 19.041H144.675L144.657 19.0588Z" fill="white"/>
<path d="M158.404 12.1478C158.373 12.2069 158.328 12.2569 158.271 12.2928C158.215 12.3288 158.151 12.3494 158.084 12.3526C159.829 13.7464 161.843 14.7624 164.001 15.3361C163.708 15.6511 163.452 15.9976 163.236 16.3692L162.239 16.0041V19.424H152.603V15.9863C152.229 16.1466 151.847 16.3069 151.455 16.4316C151.263 16.0914 151.037 15.772 150.779 15.4786C152.976 14.8042 154.99 13.6377 156.669 12.0676L158.404 12.1478ZM162.123 15.9685C161.347 15.6467 160.589 15.281 159.855 14.873V15.3629H154.961V14.8107C154.227 15.239 153.469 15.6255 152.692 15.9685H162.123ZM153.528 19.994H161.323V24.3847H159.961V24.0285H154.819V24.3847H153.528V19.994ZM155.308 16.8591C155.624 17.31 155.864 17.8093 156.02 18.3375L155.059 18.6403H156.758V16.7789H153.697V18.6403H155.059C154.908 18.1069 154.683 17.5973 154.391 17.1263L155.308 16.8591ZM154.792 20.8312V21.5793H159.935V20.8223L154.792 20.8312ZM159.935 23.1913V22.4254H154.792V23.1913H159.935ZM159.223 14.5168C158.528 14.1152 157.878 13.6404 157.283 13.1007C156.708 13.6327 156.082 14.107 155.415 14.5168H159.223ZM161.002 16.7789H157.897V18.6403H159.392C159.161 18.5423 158.84 18.3998 158.627 18.3375C158.906 17.8442 159.144 17.3289 159.339 16.7967L160.611 17.2064C160.574 17.2489 160.527 17.2816 160.474 17.3018C160.421 17.322 160.364 17.329 160.308 17.3222C160.052 17.7754 159.773 18.2153 159.472 18.6403H161.091L161.002 16.7789Z" fill="white"/>
</svg>
