<svg width="168" height="46" viewBox="0 0 168 46" fill="none" xmlns="http://www.w3.org/2000/svg">
<path d="M65.6499 5H47.1499V39.59H65.6499C70.2349 39.5794 74.6291 37.7534 77.8712 34.5113C81.1133 31.2692 82.9393 26.875 82.9499 22.29V22.29C82.9367 17.7067 81.1095 13.3151 77.8677 10.0752C74.6259 6.83524 70.2332 5.01055 65.6499 5V5Z" fill="#FEFEFE"/>
<path d="M4 5.29004V23.77C4.01581 28.3534 5.84356 32.7446 9.08452 35.9855C12.3255 39.2265 16.7166 41.0542 21.3 41.07V41.07C25.8929 41.0701 30.2983 39.249 33.5507 36.006C36.803 32.7631 38.6368 28.3629 38.65 23.77V5.29004H4Z" fill="#A0A0A0"/>
<path d="M101.71 7.61035V14.6104C101.692 15.1394 101.729 15.6688 101.82 16.1904C101.96 16.7095 102.274 17.1649 102.71 17.4804C103.162 17.7929 103.7 17.9572 104.25 17.9504C104.876 17.9695 105.487 17.7516 105.96 17.3404C106.363 16.9846 106.631 16.5008 106.72 15.9704C106.775 15.5192 106.798 15.0648 106.79 14.6104V7.61035H109.18V15.1004C109.25 16.2599 108.933 17.4099 108.28 18.3704C107.798 18.9942 107.15 19.4691 106.41 19.7404C105.721 20.0084 104.989 20.1441 104.25 20.1404C103.19 20.1612 102.148 19.8728 101.25 19.3104C100.4 18.779 99.7881 17.941 99.5398 16.9704C99.3796 16.3603 99.3056 15.7309 99.3198 15.1004V7.61035H101.71Z" fill="white"/>
<path d="M112.73 19.9103V7.32031H114.38L121.85 15.9103V7.61031H124.24V20.1003H122.59L115.12 11.5803V19.9103H112.73Z" fill="white"/>
<path d="M130.92 7.61035V19.9104H128.53V7.61035H130.92Z" fill="white"/>
<path d="M139.06 19.9104H136.65V9.68035H133.9V7.61035H141.79V9.68035H139.04L139.06 19.9104Z" fill="white"/>
<path d="M151.65 9.68035H147.25V12.4004H151.48V14.4804H147.25V17.7904H151.65V19.9104H144.86V7.61035H151.65V9.68035Z" fill="white"/>
<path d="M99.3198 37.5204V25.2704H102.82C104.41 25.2049 105.972 25.7044 107.23 26.6804C107.97 27.2903 108.553 28.0687 108.93 28.9504C109.252 29.7166 109.419 30.5392 109.42 31.3704C109.442 32.6347 109.064 33.8736 108.34 34.9104C107.769 35.7698 106.978 36.4604 106.05 36.9104C105.03 37.3727 103.919 37.5984 102.8 37.5704L99.3198 37.5204ZM101.71 35.4504H102.34C103.014 35.4685 103.687 35.3911 104.34 35.2204C104.84 35.0795 105.302 34.8264 105.69 34.4804C106.127 34.0773 106.468 33.582 106.69 33.0304C106.899 32.5087 107.007 31.9523 107.01 31.3904C107.011 30.809 106.891 30.2337 106.66 29.7004C106.435 29.1738 106.093 28.7054 105.66 28.3304C105.218 27.9348 104.686 27.6533 104.11 27.5104C103.538 27.3919 102.954 27.3349 102.37 27.3404H101.74L101.71 35.4504Z" fill="white"/>
<path d="M119.15 27.34H114.75V30.06H118.98V32.14H114.75V35.45H119.15V37.52H112.36V25.27H119.15V27.34Z" fill="white"/>
<path d="M129.43 26.4201L128.18 28.0501C127.94 27.7472 127.637 27.5006 127.291 27.3279C126.945 27.1551 126.566 27.0602 126.18 27.0501C125.708 27.0289 125.246 27.1901 124.89 27.5001C124.755 27.6126 124.645 27.7531 124.569 27.9119C124.493 28.0707 124.453 28.244 124.45 28.4201C124.454 28.6247 124.511 28.8247 124.616 29.0001C124.722 29.1756 124.871 29.3204 125.05 29.4201C125.451 29.6446 125.873 29.8289 126.31 29.9701C126.907 30.175 127.488 30.4223 128.05 30.7101C128.61 30.9982 129.077 31.4399 129.396 31.9835C129.715 32.5271 129.872 33.1503 129.85 33.7801C129.882 34.3725 129.774 34.9642 129.537 35.5077C129.299 36.0512 128.937 36.5315 128.48 36.9101C127.654 37.5462 126.632 37.875 125.59 37.8401C124.748 37.8437 123.918 37.6315 123.181 37.2236C122.444 36.8157 121.824 36.2257 121.38 35.5101L122.93 34.0201C123.095 34.3507 123.319 34.6489 123.59 34.9001C124.103 35.3935 124.788 35.6663 125.5 35.6601C125.773 35.6746 126.046 35.6293 126.3 35.5274C126.554 35.4255 126.783 35.2694 126.97 35.0701C127.25 34.7598 127.406 34.3578 127.41 33.9401C127.412 33.6925 127.35 33.4486 127.231 33.2315C127.112 33.0145 126.94 32.8315 126.73 32.7001C126.196 32.3917 125.629 32.1435 125.04 31.9601C124.294 31.7322 123.594 31.377 122.97 30.9101C122.643 30.6401 122.383 30.2985 122.21 29.9118C122.036 29.5251 121.954 29.1036 121.97 28.6801C121.942 28.0801 122.079 27.4839 122.364 26.9554C122.649 26.427 123.073 25.9861 123.59 25.6801C124.253 25.2692 125.02 25.0574 125.8 25.0701C127.137 25.048 128.432 25.53 129.43 26.4201V26.4201Z" fill="white"/>
<path d="M135.1 25.27V37.52H132.71V25.27H135.1Z" fill="white"/>
<path d="M144.85 30.91H150.46C150.524 32.1593 150.305 33.4071 149.82 34.56C149.382 35.5017 148.689 36.3019 147.82 36.87C146.829 37.489 145.678 37.802 144.51 37.77C143.662 37.8031 142.816 37.6619 142.025 37.3551C141.234 37.0482 140.515 36.5823 139.911 35.9861C139.307 35.3899 138.832 34.6762 138.516 33.889C138.199 33.1019 138.047 32.2581 138.07 31.41C138.062 30.4503 138.256 29.4996 138.64 28.62C139.014 27.7783 139.575 27.0328 140.28 26.44C141.484 25.4429 143.007 24.9138 144.57 24.95C145.975 24.9197 147.347 25.3715 148.46 26.23C149.008 26.7039 149.465 27.2731 149.81 27.91L147.72 29.05C147.407 28.482 146.944 28.0109 146.381 27.6882C145.819 27.3655 145.178 27.2035 144.53 27.22C143.991 27.2086 143.456 27.3114 142.959 27.5217C142.463 27.732 142.017 28.0449 141.65 28.44C140.909 29.2599 140.514 30.3353 140.55 31.44C140.528 32.0317 140.636 32.6211 140.866 33.1669C141.096 33.7126 141.442 34.2017 141.88 34.6C142.618 35.2605 143.579 35.6177 144.57 35.6C145.099 35.6266 145.627 35.5207 146.106 35.292C146.584 35.0633 146.998 34.7189 147.31 34.29C147.571 33.9055 147.732 33.4622 147.78 33H144.85V30.91Z" fill="white"/>
<path d="M153.4 37.52V24.98H155.05L162.52 33.52V25.27H164.9V37.77H163.25L155.78 29.24V37.52H153.4Z" fill="white"/>
</svg>
