<svg width="193" height="46" viewBox="0 0 193 46" fill="none" xmlns="http://www.w3.org/2000/svg">
<path d="M191.11 11.8577C190.807 12.1642 190.446 12.4076 190.048 12.5736C189.65 12.7396 189.223 12.8251 188.792 12.8251C188.361 12.8251 187.935 12.7396 187.537 12.5736C187.139 12.4076 186.778 12.1642 186.474 11.8577C186.164 11.5547 185.919 11.1919 185.753 10.7912C185.587 10.3904 185.504 9.96008 185.508 9.52623C185.508 8.65984 185.852 7.82886 186.463 7.21578C187.074 6.6027 187.903 6.25763 188.768 6.25635C189.416 6.25754 190.048 6.45064 190.586 6.81131C191.124 7.17198 191.543 7.68409 191.791 8.28309C192.039 8.88209 192.105 9.54118 191.979 10.1773C191.854 10.8134 191.543 11.3981 191.086 11.8577H191.11ZM186.807 7.53334C186.539 7.79229 186.326 8.10358 186.183 8.44799C186.039 8.79241 185.967 9.16265 185.972 9.5359C185.967 9.90979 186.037 10.2809 186.179 10.6267C186.321 10.9726 186.532 11.286 186.798 11.5481C187.059 11.8139 187.371 12.0249 187.715 12.1689C188.058 12.313 188.427 12.3871 188.8 12.3871C189.172 12.3871 189.541 12.313 189.885 12.1689C190.228 12.0249 190.54 11.8139 190.801 11.5481C191.324 11.0122 191.617 10.2926 191.617 9.54316C191.617 8.79375 191.324 8.0741 190.801 7.53818C190.54 7.27609 190.23 7.06816 189.889 6.92628C189.547 6.78441 189.181 6.71138 188.812 6.71138C188.442 6.71138 188.076 6.78441 187.735 6.92628C187.393 7.06816 187.083 7.27609 186.822 7.53818L186.807 7.53334ZM188.739 7.71232C189.066 7.69967 189.393 7.74386 189.705 7.84292C189.884 7.91591 190.035 8.04474 190.135 8.2103C190.235 8.37586 190.279 8.56932 190.26 8.76196C190.27 8.90119 190.243 9.04051 190.181 9.16552C190.119 9.29053 190.025 9.39668 189.908 9.47302C189.75 9.56662 189.574 9.62595 189.391 9.64715C189.514 9.65834 189.633 9.69615 189.74 9.75796C189.846 9.81977 189.938 9.9041 190.009 10.0051C190.132 10.1653 190.201 10.3598 190.207 10.5614V10.8226C190.203 10.9128 190.203 11.0032 190.207 11.0934C190.204 11.1561 190.214 11.2186 190.236 11.2773V11.3256H189.647C189.647 11.3256 189.647 11.3014 189.647 11.2869C189.644 11.2742 189.644 11.261 189.647 11.2482V11.1321V10.8468C189.669 10.6917 189.649 10.5338 189.591 10.3886C189.532 10.2435 189.437 10.1163 189.314 10.0196C189.091 9.92645 188.85 9.8867 188.609 9.90352H188.126V11.3256H187.469V7.71232H188.739ZM189.42 8.28793C189.181 8.18097 188.919 8.13447 188.657 8.15249H188.111V9.45851H188.681C188.887 9.46978 189.094 9.44188 189.29 9.37628C189.405 9.33704 189.504 9.2607 189.571 9.15919C189.638 9.05768 189.67 8.93671 189.662 8.81517C189.674 8.71244 189.658 8.60818 189.613 8.51474C189.569 8.4213 189.498 8.34259 189.41 8.28793H189.42Z" fill="white"/>
<path d="M160.482 9.90822C158.396 7.21396 155.653 6.08691 151.128 6.08691C144.343 6.08691 139.948 9.95659 139.948 15.8965V39.8402H144.232V16.4528C144.232 12.3123 146.554 10.2952 151.326 10.2952C155.851 10.2952 158.338 12.3413 158.338 16.0562V39.8402H162.622V16.0562C162.622 12.3413 165.119 10.2952 169.634 10.2952C174.41 10.2952 176.738 12.3123 176.738 16.4528V39.8402H181.017V15.9014C181.017 9.94208 176.627 6.09175 169.842 6.09175C165.307 6.08692 162.573 7.19461 160.482 9.90822Z" fill="white"/>
<path d="M123.379 6.00488H117.83C109.929 6.00488 106.336 11.2531 106.336 16.1338V29.8711C106.336 34.7518 109.919 40 117.796 40H123.417C131.294 40 134.877 34.7518 134.877 29.8711V16.1338C134.877 11.2531 131.284 6.00488 123.379 6.00488ZM130.594 29.3149C130.594 33.4264 127.908 35.7821 123.219 35.7821H117.989C113.237 35.7821 110.615 33.4844 110.615 29.3149V16.69C110.615 12.5737 113.304 10.218 117.989 10.218H123.219C127.908 10.218 130.594 12.5737 130.594 16.69V29.3149Z" fill="white"/>
<path d="M89.7272 6.00488C81.8554 6.00488 78.272 11.2531 78.272 16.1338V29.8711C78.272 34.7518 81.8554 40 89.7272 40H94.6049C98.6133 40 101.226 39.4099 103.336 38.0652L103.612 37.8862L101.153 34.2826L100.898 34.4373C99.3232 35.4048 97.3335 35.7772 94.0447 35.7772H89.9252C85.1731 35.7772 82.5556 33.4796 82.5556 29.31V16.6852C82.5556 12.5156 85.1731 10.2132 89.9252 10.2132H94.0447C97.3335 10.2132 99.3183 10.605 100.898 11.5627L101.153 11.7127L103.612 8.16223L103.336 7.98325C101.231 6.60952 98.6133 6.04841 94.6049 6.04841L89.7272 6.00488Z" fill="white"/>
<path d="M57.9934 6.00484C54.1975 6.00484 52.4058 6.42083 50.4306 7.18025L50.0829 7.31569L52.2223 11.1322L52.4831 11.0306C53.9319 10.4308 55.5353 10.2179 58.5488 10.2179H61.7651C66.4448 10.2179 69.1299 12.5736 69.1299 16.69V29.3148C69.1299 33.4263 66.4448 35.782 61.7651 35.782H56.5446C51.7442 35.782 49.4116 33.8472 49.4116 29.8275C49.4116 25.8079 51.7442 23.9118 56.5446 23.9118H63.8369V19.7083H56.3466C49.2185 19.7083 45.1328 23.4087 45.1328 29.8662C45.1328 36.1109 49.4309 39.9951 56.3466 39.9951H61.9776C69.8495 39.9951 73.4377 34.7469 73.4377 29.8662V16.1289C73.4377 11.2483 69.8495 6 61.9776 6L57.9934 6.00484Z" fill="white"/>
<path d="M36.8458 6.22791V29.6153C36.8458 33.7558 34.5278 35.7632 29.7515 35.7632C25.2264 35.7632 22.7344 33.7171 22.7344 30.0119V6.22791H18.4508V30.0119C18.4508 33.7171 15.9637 35.7632 11.4337 35.7632C6.66232 35.7632 4.34422 33.7558 4.34422 29.6153V6.22791H0.0412598V30.1667C0.0412598 36.126 4.43115 39.9812 11.2212 39.9812C15.7512 39.9812 18.4653 38.8541 20.5757 36.155C22.662 38.8541 25.4051 39.9812 29.9302 39.9812C36.7203 39.9812 41.1102 36.1115 41.1102 30.1667V6.22791H36.8458Z" fill="white"/>
</svg>
