<svg width="273" height="424" viewBox="0 0 273 424" fill="none" xmlns="http://www.w3.org/2000/svg">
<g filter="url(#filter0_b_221_356)">
<path d="M53.4895 204.194V204.677H60.0097C61.4586 204.677 62.666 204.435 63.6319 204.073C64.5979 203.711 65.443 202.866 66.2882 201.78C67.0127 200.573 67.3749 199.246 67.3749 197.798C67.3749 196.35 67.0127 195.143 66.2882 193.936C65.5638 192.729 64.7186 191.884 63.7527 191.522C62.666 191.16 61.4586 190.919 60.0097 190.919H53.4895V191.402H55.6629V204.194H53.4895ZM58.0777 191.402H59.8889C60.8548 191.402 61.7 191.522 62.3037 191.764C62.9074 192.005 63.5111 192.488 63.8734 193.333C64.3563 194.177 64.4771 195.505 64.4771 197.194C64.4771 198.643 64.3564 199.729 64.2357 200.694C64.1149 201.539 63.8734 202.263 63.3904 202.866C63.0282 203.47 62.5452 203.832 61.9415 203.953C61.3378 204.073 60.6133 204.194 59.6474 204.194H57.8362V191.402H58.0777Z" fill="url(#paint0_linear_221_356)"/>
<path d="M78.9659 204.677H85.6067V204.194H83.7956L78.9659 190.557H78.6037L73.5324 204.194H71.6006V204.677H76.551V204.194H74.0154L75.4644 200.453H79.8111L81.1393 204.194H78.8452V204.677H78.9659ZM75.7059 199.85L77.7584 194.298L79.6904 199.85H75.7059Z" fill="url(#paint1_linear_221_356)"/>
<path d="M100.941 191.402H102.752V190.919H97.9226V191.402H100.338L96.3529 197.556L92.3684 191.402H94.6625V190.919H87.6594V191.402H89.5914L94.1796 198.401V204.194H91.8854V204.677H98.8885V204.194H96.5944V198.039L100.941 191.402Z" fill="url(#paint2_linear_221_356)"/>
<path d="M89.7122 411.285L97.9227 402.716V367.477L89.9537 359.633L89.7122 411.285Z" fill="url(#paint3_linear_221_356)"/>
<path d="M69.1857 152.421H79.5695V133.595H113.74V144.577H124.003V22.8088L113.981 12.7921V21.3606H78.1207L69.5479 12.7921L69.1857 80.8569L79.5695 91.1149V78.6846H103.718H104.443V71.0817H103.718V76.271H79.5695V23.7742H113.981L113.74 131.181H79.5695V99.3213L79.6903 99.2006L58.1981 77.8399L57.7151 78.4433L69.5479 90.2701L69.1857 152.421Z" fill="url(#paint4_linear_221_356)"/>
<path d="M165.297 351.547V349.133H130.886V351.547H156.725C156.121 359.995 151.533 394.993 113.619 411.405L114.585 413.457C114.706 413.457 163.969 397.768 165.297 351.547Z" fill="url(#paint5_linear_221_356)"/>
<path d="M228.325 96.1835L228.446 88.4598H227.601V93.8905H207.92V80.9775L197.898 71.0816L197.777 94.0112H162.158V96.4249H197.777L197.536 136.25C197.053 153.749 181.115 173.903 181.115 173.903L181.96 174.868C190.774 170.644 196.691 163.645 200.554 156.766C205.625 147.956 207.92 137.698 207.92 127.561V96.4249L228.325 96.1835Z" fill="url(#paint6_linear_221_356)"/>
<path d="M230.74 65.289V57.6861H229.895V62.9961H185.22V30.1705H221.322V30.0499H221.563V22.3262H220.839V27.7569H185.22V9.89592L175.198 0L175.077 27.7569H139.7V30.1705H175.077L174.957 62.9961H130.402V65.4097H230.74V65.289Z" fill="url(#paint7_linear_221_356)"/>
<path d="M69.4272 170.403L0.603715 101.494L0 102.097L68.8235 170.886L69.4272 170.403Z" fill="url(#paint8_linear_221_356)"/>
<path d="M204.176 228.21L203.573 228.813L272.396 297.602L273 296.999L204.176 228.21Z" fill="url(#paint9_linear_221_356)"/>
<path d="M163.003 143.008L180.149 115.975L179.424 115.493L175.319 122.009C167.471 105.959 142.115 84.8393 142.115 84.8393L141.028 86.1668C142.96 88.0978 145.013 90.6321 146.944 93.5285H132.817V96.6662H148.997C157.811 111.269 165.418 132.388 166.625 135.767L162.279 142.525L163.003 143.008Z" fill="url(#paint10_linear_221_356)"/>
<path d="M103.96 280.465L96.5943 272.862C93.455 286.861 84.3993 299.895 80.0525 305.688C70.8761 298.809 63.0278 294.947 63.0278 294.947L62.4241 295.55C81.743 314.618 86.8141 325.479 86.8141 325.479L93.8173 317.876C89.8327 313.532 85.4859 309.791 81.3807 306.653C95.9906 297.119 103.96 280.465 103.96 280.465Z" fill="url(#paint11_linear_221_356)"/>
<path d="M153.947 277.81C171.696 273.104 183.288 258.501 183.288 258.501L176.888 251.26C170.489 265.983 153.947 277.81 153.947 277.81Z" fill="url(#paint12_linear_221_356)"/>
<path d="M60.975 358.788C67.0121 356.857 72.5663 354.323 77.7582 351.426H105.167H106.012V343.582H105.167V349.013H81.7428C110.48 330.91 124.969 301.102 124.969 301.102L118.086 292.654C100.579 331.031 60.2505 357.46 60.2505 357.46L60.975 358.788Z" fill="url(#paint13_linear_221_356)"/>
<path d="M122.192 399.216L122.796 399.82L134.508 387.631L134.266 387.39C125.211 373.39 102.632 359.633 102.632 359.633L100.7 361.564C119.415 377.132 125.331 392.338 126.297 395.113L122.192 399.216Z" fill="url(#paint14_linear_221_356)"/>
<path d="M68.8236 380.873C65.322 387.39 60.0093 392.579 53.7307 396.682L55.3004 399.578C70.6347 392.7 81.9845 377.856 84.0372 360.96L74.0155 360.719C74.257 367.598 72.2044 374.839 68.8236 380.873Z" fill="url(#paint15_linear_221_356)"/>
<path d="M131.852 332.238L132.214 331.997L122.434 319.928L121.83 320.411L125.211 324.514C119.174 342.617 103.235 358.064 103.235 358.064C120.743 351.064 131.852 332.238 131.852 332.238Z" fill="url(#paint16_linear_221_356)"/>
<path d="M200.933 373.313C201.536 372.831 202.14 372.348 202.744 371.865C213.49 362.452 219.286 350.384 219.286 350.384L211.92 342.781C209.747 352.194 205.038 361.125 200.812 367.762C200.329 368.607 199.725 369.331 199.242 370.176C199.121 370.055 199.121 369.934 199.001 369.814C198.397 368.486 197.673 367.159 197.069 365.831C191.756 354.487 188.013 342.419 185.598 330.23H202.382V336.626H212.886V284.853L202.623 274.595V283.405H150.341L141.527 274.595L141.165 343.022H151.67V330.23H171.834L171.592 386.709C171.109 403.605 155.654 423.035 155.654 423.035L156.378 424C164.83 420.018 170.505 413.259 174.369 406.501C179.199 397.933 181.493 388.157 181.493 378.262V350.263C181.976 351.349 182.459 352.556 182.942 353.642C185.598 360.038 188.738 366.193 192.239 372.227C192.481 372.71 192.843 373.314 193.205 373.796C200.57 386.227 209.868 397.691 220.976 407.467C222.666 408.794 226.772 412.053 228.462 413.501L230.756 410.966C229.187 409.639 225.443 406.139 223.874 404.691C214.697 395.398 206.97 384.778 200.933 373.313ZM151.67 309.473H193.084V309.231V301.387H192.239V307.059H151.549V285.698H202.382L202.14 327.816H151.549V309.473H151.67Z" fill="url(#paint17_linear_221_356)"/>
<path d="M128.712 214.452C130.765 214.572 132.817 215.176 134.629 215.9C136.077 216.503 136.802 218.314 136.198 219.762C135.474 221.693 134.387 223.382 133.059 224.951L124.245 235.209L134.508 226.399C136.078 225.072 137.889 223.986 139.7 223.262C141.149 222.658 142.96 223.382 143.564 224.83C144.409 226.641 144.892 228.692 145.013 230.744L146.099 244.26L147.186 230.744C147.307 228.692 147.91 226.641 148.635 224.83C149.359 223.382 151.05 222.658 152.619 223.262C154.43 223.986 156.121 224.951 157.811 226.279L168.074 235.088L159.26 224.83C157.932 223.261 156.845 221.451 156.121 219.641C155.517 218.193 156.242 216.383 157.691 215.779C159.502 214.934 161.554 214.452 163.607 214.21L174.112 213.486H258.028V213.004H173.749L163.607 212.279C161.554 212.159 159.502 211.555 157.691 210.711C156.242 210.107 155.517 208.297 156.121 206.849C156.845 205.038 157.811 203.228 159.26 201.659L168.074 191.401L157.811 200.211C156.242 201.659 154.43 202.625 152.619 203.349C151.17 203.952 149.359 203.228 148.756 201.78C147.91 199.97 147.427 197.918 147.307 195.867L146.22 182.35L145.133 195.867C145.013 197.918 144.409 199.97 143.684 201.78C143.081 203.228 141.269 203.952 139.821 203.349C137.889 202.625 136.198 201.539 134.629 200.211L124.365 191.401L133.18 201.659C134.508 203.228 135.595 205.038 136.319 206.849C136.923 208.297 136.198 210.107 134.749 210.711C132.938 211.555 130.886 212.038 128.833 212.279L118.691 213.004H34.7742V213.486H118.328L128.712 214.452Z" fill="url(#paint18_linear_221_356)"/>
<path d="M182.081 204.194V204.677H193.672L194.034 200.212H193.551C193.31 201.057 193.189 201.66 192.947 202.143C192.706 202.625 192.464 202.988 192.223 203.35C191.861 203.712 191.498 203.953 191.257 203.953C190.895 204.074 190.412 204.074 189.808 204.074H186.669V191.281H188.963V190.799H182.081V191.281H184.254V204.074H182.081V204.194Z" fill="url(#paint19_linear_221_356)"/>
<path d="M206.833 191.402V190.919H199.95V191.402H202.124V204.194H199.95V204.677H206.833V204.194H204.659V191.402H206.833Z" fill="url(#paint20_linear_221_356)"/>
<path d="M215.768 191.402L224.824 205.039H225.186V191.402H227.359V190.919H222.409V191.402H224.703V200.573L218.183 190.919H212.991V191.402H215.164V204.194H213.111V204.677H218.062V204.194H215.647V191.402H215.768Z" fill="url(#paint21_linear_221_356)"/>
<path d="M245.954 200.091H245.471C245.35 201.539 244.988 202.504 244.384 203.228C243.78 203.953 242.694 204.194 241.124 204.194H238.347V197.918H239.554C240.279 197.918 240.882 198.039 241.245 198.401C241.607 198.763 241.848 199.487 241.848 200.573H242.331V194.781H241.848C241.848 195.625 241.727 196.229 241.486 196.591C241.245 196.953 241.003 197.194 240.641 197.315C240.279 197.436 239.916 197.436 239.554 197.436H238.347V191.522H241.245C242.573 191.522 243.418 191.764 244.022 192.246C244.625 192.729 244.988 193.574 245.108 194.66H245.591L245.35 190.919H233.638V191.402H235.811V204.194H233.638V204.677H245.833L245.954 200.091Z" fill="url(#paint22_linear_221_356)"/>
</g>
<defs>
<filter id="filter0_b_221_356" x="-65" y="-65" width="403" height="554" filterUnits="userSpaceOnUse" color-interpolation-filters="sRGB">
<feFlood flood-opacity="0" result="BackgroundImageFix"/>
<feGaussianBlur in="BackgroundImageFix" stdDeviation="32.5"/>
<feComposite in2="SourceAlpha" operator="in" result="effect1_backgroundBlur_221_356"/>
<feBlend mode="normal" in="SourceGraphic" in2="effect1_backgroundBlur_221_356" result="shape"/>
</filter>
<linearGradient id="paint0_linear_221_356" x1="60.4322" y1="190.919" x2="60.4322" y2="204.677" gradientUnits="userSpaceOnUse">
<stop stop-color="white"/>
<stop offset="1" stop-color="white" stop-opacity="0.2"/>
</linearGradient>
<linearGradient id="paint1_linear_221_356" x1="78.6037" y1="190.557" x2="78.6037" y2="204.677" gradientUnits="userSpaceOnUse">
<stop stop-color="white"/>
<stop offset="1" stop-color="white" stop-opacity="0.2"/>
</linearGradient>
<linearGradient id="paint2_linear_221_356" x1="95.2059" y1="190.919" x2="95.2059" y2="204.677" gradientUnits="userSpaceOnUse">
<stop stop-color="white"/>
<stop offset="1" stop-color="white" stop-opacity="0.2"/>
</linearGradient>
<linearGradient id="paint3_linear_221_356" x1="93.8174" y1="359.633" x2="93.8174" y2="411.285" gradientUnits="userSpaceOnUse">
<stop stop-color="white"/>
<stop offset="1" stop-color="white" stop-opacity="0.1"/>
</linearGradient>
<linearGradient id="paint4_linear_221_356" x1="90.8591" y1="12.7921" x2="90.8591" y2="152.421" gradientUnits="userSpaceOnUse">
<stop stop-color="white"/>
<stop offset="1" stop-color="white" stop-opacity="0.1"/>
</linearGradient>
<linearGradient id="paint5_linear_221_356" x1="139.458" y1="349.133" x2="139.458" y2="413.457" gradientUnits="userSpaceOnUse">
<stop stop-color="white"/>
<stop offset="1" stop-color="white" stop-opacity="0.1"/>
</linearGradient>
<linearGradient id="paint6_linear_221_356" x1="195.302" y1="71.0816" x2="195.302" y2="174.868" gradientUnits="userSpaceOnUse">
<stop stop-color="white"/>
<stop offset="1" stop-color="white" stop-opacity="0.1"/>
</linearGradient>
<linearGradient id="paint7_linear_221_356" x1="180.571" y1="0" x2="180.571" y2="65.4097" gradientUnits="userSpaceOnUse">
<stop stop-color="white"/>
<stop offset="1" stop-color="white" stop-opacity="0.1"/>
</linearGradient>
<linearGradient id="paint8_linear_221_356" x1="34.7136" y1="101.494" x2="34.7136" y2="170.886" gradientUnits="userSpaceOnUse">
<stop stop-color="white"/>
<stop offset="1" stop-color="white" stop-opacity="0.1"/>
</linearGradient>
<linearGradient id="paint9_linear_221_356" x1="238.286" y1="228.21" x2="238.286" y2="297.602" gradientUnits="userSpaceOnUse">
<stop stop-color="white"/>
<stop offset="1" stop-color="white" stop-opacity="0.1"/>
</linearGradient>
<linearGradient id="paint10_linear_221_356" x1="156.483" y1="84.8393" x2="156.483" y2="143.008" gradientUnits="userSpaceOnUse">
<stop stop-color="white"/>
<stop offset="1" stop-color="white" stop-opacity="0.1"/>
</linearGradient>
<linearGradient id="paint11_linear_221_356" x1="83.1919" y1="272.862" x2="83.1919" y2="325.479" gradientUnits="userSpaceOnUse">
<stop stop-color="white"/>
<stop offset="1" stop-color="white" stop-opacity="0.1"/>
</linearGradient>
<linearGradient id="paint12_linear_221_356" x1="168.618" y1="251.26" x2="168.618" y2="277.81" gradientUnits="userSpaceOnUse">
<stop stop-color="white"/>
<stop offset="1" stop-color="white" stop-opacity="0.1"/>
</linearGradient>
<linearGradient id="paint13_linear_221_356" x1="92.6096" y1="292.654" x2="92.6096" y2="358.788" gradientUnits="userSpaceOnUse">
<stop stop-color="white"/>
<stop offset="1" stop-color="white" stop-opacity="0.1"/>
</linearGradient>
<linearGradient id="paint14_linear_221_356" x1="117.604" y1="359.633" x2="117.604" y2="399.82" gradientUnits="userSpaceOnUse">
<stop stop-color="white"/>
<stop offset="1" stop-color="white" stop-opacity="0.1"/>
</linearGradient>
<linearGradient id="paint15_linear_221_356" x1="68.8839" y1="360.719" x2="68.8839" y2="399.578" gradientUnits="userSpaceOnUse">
<stop stop-color="white"/>
<stop offset="1" stop-color="white" stop-opacity="0.1"/>
</linearGradient>
<linearGradient id="paint16_linear_221_356" x1="117.725" y1="319.928" x2="117.725" y2="358.064" gradientUnits="userSpaceOnUse">
<stop stop-color="white"/>
<stop offset="1" stop-color="white" stop-opacity="0.1"/>
</linearGradient>
<linearGradient id="paint17_linear_221_356" x1="185.96" y1="274.595" x2="185.96" y2="424" gradientUnits="userSpaceOnUse">
<stop stop-color="white"/>
<stop offset="1" stop-color="white" stop-opacity="0.1"/>
</linearGradient>
<linearGradient id="paint18_linear_221_356" x1="146.401" y1="182.35" x2="146.401" y2="244.26" gradientUnits="userSpaceOnUse">
<stop stop-color="white"/>
<stop offset="1" stop-color="white" stop-opacity="0.1"/>
</linearGradient>
<linearGradient id="paint19_linear_221_356" x1="188.057" y1="190.799" x2="188.057" y2="204.677" gradientUnits="userSpaceOnUse">
<stop stop-color="white"/>
<stop offset="1" stop-color="white" stop-opacity="0.2"/>
</linearGradient>
<linearGradient id="paint20_linear_221_356" x1="203.392" y1="190.919" x2="203.392" y2="204.677" gradientUnits="userSpaceOnUse">
<stop stop-color="white"/>
<stop offset="1" stop-color="white" stop-opacity="0.2"/>
</linearGradient>
<linearGradient id="paint21_linear_221_356" x1="220.175" y1="190.919" x2="220.175" y2="205.039" gradientUnits="userSpaceOnUse">
<stop stop-color="white"/>
<stop offset="1" stop-color="white" stop-opacity="0.2"/>
</linearGradient>
<linearGradient id="paint22_linear_221_356" x1="239.796" y1="190.919" x2="239.796" y2="204.677" gradientUnits="userSpaceOnUse">
<stop stop-color="white"/>
<stop offset="1" stop-color="white" stop-opacity="0.2"/>
</linearGradient>
</defs>
</svg>
