<svg width="70" height="157" viewBox="0 0 70 157" fill="none" xmlns="http://www.w3.org/2000/svg">
<mask id="mask0_220_614" style="mask-type:alpha" maskUnits="userSpaceOnUse" x="0" y="0" width="70" height="70">
<path d="M70 0H0V70H70V0Z" fill="white"/>
</mask>
<g mask="url(#mask0_220_614)">
<mask id="mask1_220_614" style="mask-type:alpha" maskUnits="userSpaceOnUse" x="15" y="10" width="55" height="58">
<path d="M17.768 52.1251C15.2831 46.7475 14.7536 40.6909 16.1751 35.0226C17.2707 30.6515 19.5243 26.5117 22.9423 23.0937C16.3542 29.6819 16.3542 40.3633 22.942 46.9512C26.36 50.3691 30.5005 52.6228 34.8709 53.7184C40.5395 55.1395 46.5961 54.61 51.9737 52.1251C54.6552 50.886 57.168 49.1619 59.3788 46.9512C62.7967 43.5332 65.0504 39.3933 66.1463 35.0226C68.2763 26.527 66.0227 17.1583 59.3788 10.5144C72.9142 24.0498 72.9145 45.9951 59.3791 59.5305C52.7351 66.1745 43.3662 68.4277 34.8709 66.298C30.5001 65.2021 26.3603 62.9485 22.9423 59.5305C20.7315 57.3197 19.0074 54.807 17.768 52.1251Z" fill="white"/>
</mask>
<g mask="url(#mask1_220_614)">
<path fill-rule="evenodd" clip-rule="evenodd" d="M17.768 52.1251C15.2831 46.7475 14.7536 40.6909 16.1751 35.0226C17.2707 30.6515 19.5243 26.5117 22.9423 23.0937C16.3542 29.6819 16.3542 40.3633 22.942 46.9512C26.36 50.3691 30.5005 52.6228 34.8709 53.7184C40.5395 55.1395 46.5961 54.61 51.9737 52.1251C54.6552 50.886 57.168 49.1619 59.3788 46.9512C62.7967 43.5332 65.0504 39.3933 66.1463 35.0226C68.2763 26.527 66.0227 17.1583 59.3788 10.5144C72.9142 24.0498 72.9145 45.9951 59.3791 59.5305C52.7351 66.1745 43.3662 68.4277 34.8709 66.298C30.5001 65.2021 26.3603 62.9485 22.9423 59.5305C20.7315 57.3197 19.0074 54.807 17.768 52.1251Z" fill="url(#paint0_linear_220_614)" stroke="#FBF5B7" stroke-width="0.025945"/>
</g>
<mask id="mask2_220_614" style="mask-type:alpha" maskUnits="userSpaceOnUse" x="2" y="15" width="58" height="55">
<path d="M3.59611 35.0226C4.69203 30.6518 6.94566 26.512 10.3636 23.094C12.5744 20.8832 15.0872 19.1591 17.769 17.9197C23.1463 15.4345 29.2029 14.905 34.8715 16.3268C39.2423 17.4221 43.3821 19.6757 46.8001 23.0937C40.2123 16.5059 29.5308 16.5059 22.943 23.0937C19.525 26.5117 17.2714 30.6515 16.1758 35.0226C14.7543 40.6909 15.2838 46.7475 17.7687 52.1251C19.0081 54.8069 20.7322 57.3197 22.943 59.5305C26.361 62.9484 30.5008 65.2021 34.8715 66.298C43.3668 68.4277 52.7358 66.1744 59.3798 59.5305C45.8444 73.0659 23.8987 73.0659 10.3633 59.5305C3.71968 52.8868 1.46639 43.5179 3.59611 35.0226Z" fill="white"/>
</mask>
<g mask="url(#mask2_220_614)">
<path fill-rule="evenodd" clip-rule="evenodd" d="M3.59611 35.0226C4.69203 30.6518 6.94566 26.512 10.3636 23.094C12.5744 20.8832 15.0872 19.1591 17.769 17.9197C23.1463 15.4345 29.2029 14.905 34.8715 16.3268C39.2423 17.4221 43.3821 19.6757 46.8001 23.0937C40.2123 16.5059 29.5308 16.5059 22.943 23.0937C19.525 26.5117 17.2714 30.6515 16.1758 35.0226C14.7543 40.6909 15.2838 46.7475 17.7687 52.1251C19.0081 54.8069 20.7322 57.3197 22.943 59.5305C26.361 62.9484 30.5008 65.2021 34.8715 66.298C43.3668 68.4277 52.7358 66.1744 59.3798 59.5305C45.8444 73.0659 23.8987 73.0659 10.3633 59.5305C3.71968 52.8868 1.46639 43.5179 3.59611 35.0226Z" fill="url(#paint1_linear_220_614)" stroke="#FBF5B7" stroke-width="0.025945"/>
</g>
<mask id="mask3_220_614" style="mask-type:alpha" maskUnits="userSpaceOnUse" x="10" y="0" width="57" height="55">
<path d="M46.8001 46.9511C50.2181 43.5332 52.4714 39.393 53.567 35.0226C54.9885 29.3536 54.4589 23.297 51.9738 17.9197C50.7347 15.2382 49.0106 12.7255 46.7998 10.5147C43.3818 7.09671 39.2419 4.84308 34.8712 3.74716C26.3756 1.61711 17.0069 3.87074 10.3633 10.5144C23.8987 -3.02104 45.8437 -3.02104 59.3791 10.5144C66.0231 17.1583 68.2767 26.527 66.1466 35.0226C65.0507 39.3933 62.7971 43.5332 59.3791 46.9512C57.1683 49.1619 54.6556 50.886 51.9741 52.1251C46.5965 54.61 40.5398 55.1395 34.8712 53.7183C30.5008 52.6228 26.3603 50.3691 22.9423 46.9511C29.5305 53.5393 40.212 53.5393 46.8001 46.9511Z" fill="white"/>
</mask>
<g mask="url(#mask3_220_614)">
<path fill-rule="evenodd" clip-rule="evenodd" d="M46.8001 46.9511C50.2181 43.5332 52.4714 39.393 53.567 35.0226C54.9885 29.3536 54.4589 23.297 51.9738 17.9197C50.7347 15.2382 49.0106 12.7255 46.7998 10.5147C43.3818 7.09671 39.2419 4.84308 34.8712 3.74716C26.3756 1.61711 17.0069 3.87074 10.3633 10.5144C23.8987 -3.02104 45.8437 -3.02104 59.3791 10.5144C66.0231 17.1583 68.2767 26.527 66.1466 35.0226C65.0507 39.3933 62.7971 43.5332 59.3791 46.9512C57.1683 49.1619 54.6556 50.886 51.9741 52.1251C46.5965 54.61 40.5398 55.1395 34.8712 53.7183C30.5008 52.6228 26.3603 50.3691 22.9423 46.9511C29.5305 53.5393 40.212 53.5393 46.8001 46.9511Z" fill="url(#paint2_linear_220_614)"/>
</g>
<mask id="mask4_220_614" style="mask-type:alpha" maskUnits="userSpaceOnUse" x="0" y="2" width="55" height="58">
<path d="M10.363 10.5142C17.0066 3.87058 26.3753 1.61695 34.8709 3.747C39.2416 4.84292 43.3815 7.09655 46.7994 10.5145C49.0102 12.7253 50.7343 15.2381 51.9734 17.9196C54.4586 23.2968 54.9881 29.3535 53.5666 35.0224C52.4711 39.3928 50.2178 43.533 46.7998 46.951C53.3876 40.3632 53.3876 29.6817 46.7994 23.0935C43.3815 19.6756 39.2416 17.4219 34.8709 16.3267C29.2023 14.9049 23.1456 15.4344 17.7683 17.9196C15.0865 19.159 12.5738 20.8831 10.363 23.0939C6.94501 26.5119 4.69138 30.6517 3.59546 35.0224C1.46574 43.5177 3.71904 52.8867 10.3627 59.5303C-3.17274 45.9949 -3.17241 24.0496 10.363 10.5142Z" fill="white"/>
</mask>
<g mask="url(#mask4_220_614)">
<path fill-rule="evenodd" clip-rule="evenodd" d="M10.363 10.514C17.0066 3.87033 26.3753 1.6167 34.8709 3.74676C39.2416 4.84268 43.3815 7.09631 46.7994 10.5143C49.0102 12.7251 50.7343 15.2378 51.9734 17.9193C54.4586 23.2966 54.9881 29.3532 53.5666 35.0222C52.4711 39.3926 50.2178 43.5328 46.7998 46.9507C53.3876 40.3629 53.3876 29.6814 46.7994 23.0933C43.3815 19.6753 39.2416 17.4217 34.8709 16.3264C29.2023 14.9046 23.1456 15.4341 17.7683 17.9193C15.0865 19.1587 12.5738 20.8829 10.363 23.0936C6.94501 26.5116 4.69138 30.6515 3.59546 35.0222C1.46574 43.5175 3.71904 52.8865 10.3627 59.5301C-3.17274 45.9947 -3.17241 24.0494 10.363 10.514Z" fill="url(#paint3_linear_220_614)" stroke="#FBF5B7" stroke-width="0.025945"/>
</g>
</g>
<path d="M6.69238 85.5039H11.0537V85.8525C11.0537 86.6455 10.9603 87.3473 10.7734 87.958C10.5911 88.5231 10.2835 89.0518 9.85059 89.5439C8.87077 90.6468 7.62435 91.1982 6.11133 91.1982C4.63477 91.1982 3.37012 90.665 2.31738 89.5986C1.26465 88.5277 0.738281 87.2425 0.738281 85.7432C0.738281 84.2119 1.27376 82.9131 2.34473 81.8467C3.41569 80.7757 4.71908 80.2402 6.25488 80.2402C7.07975 80.2402 7.84993 80.4089 8.56543 80.7461C9.24902 81.0833 9.92122 81.6302 10.582 82.3867L9.44727 83.4736C8.58138 82.3206 7.52637 81.7441 6.28223 81.7441C5.16569 81.7441 4.22917 82.1292 3.47266 82.8994C2.71615 83.6559 2.33789 84.6038 2.33789 85.7432C2.33789 86.9189 2.75944 87.8874 3.60254 88.6484C4.39095 89.3548 5.24544 89.708 6.16602 89.708C6.94987 89.708 7.65397 89.4437 8.27832 88.915C8.90267 88.3818 9.2513 87.7438 9.32422 87.001H6.69238V85.5039ZM14.3571 85.6748C14.3571 84.1891 14.9017 82.9131 15.9909 81.8467C17.0755 80.7803 18.3789 80.2471 19.9011 80.2471C21.405 80.2471 22.6947 80.7848 23.7702 81.8604C24.8503 82.9359 25.3903 84.2279 25.3903 85.7363C25.3903 87.2539 24.848 88.5413 23.7634 89.5986C22.6742 90.6605 21.3594 91.1914 19.819 91.1914C18.4564 91.1914 17.2328 90.7197 16.1481 89.7764C14.9541 88.7327 14.3571 87.3656 14.3571 85.6748ZM15.9636 85.6953C15.9636 86.862 16.3555 87.8213 17.1393 88.5732C17.9186 89.3252 18.8187 89.7012 19.8395 89.7012C20.947 89.7012 21.8812 89.3184 22.6423 88.5527C23.4033 87.778 23.7839 86.8346 23.7839 85.7227C23.7839 84.597 23.4079 83.6536 22.6559 82.8926C21.9085 82.127 20.9834 81.7441 19.8805 81.7441C18.7822 81.7441 17.8548 82.127 17.0983 82.8926C16.3418 83.6491 15.9636 84.5833 15.9636 85.6953ZM30.806 80.4453V89.5029H33.9095V91H29.2132V80.4453H30.806ZM37.2403 91V80.4453H39.4551C40.517 80.4453 41.3555 80.5501 41.9707 80.7598C42.6315 80.9648 43.2308 81.3135 43.7686 81.8057C44.8578 82.7992 45.4024 84.1048 45.4024 85.7227C45.4024 87.3451 44.835 88.6576 43.7002 89.6602C43.1306 90.1615 42.5336 90.5101 41.9092 90.7061C41.3259 90.902 40.4987 91 39.4278 91H37.2403ZM38.833 89.5029H39.5508C40.2663 89.5029 40.861 89.4277 41.335 89.2773C41.809 89.1178 42.2373 88.8649 42.6202 88.5186C43.404 87.8031 43.7959 86.8711 43.7959 85.7227C43.7959 84.5651 43.4086 83.6263 42.6338 82.9062C41.9366 82.2637 40.9089 81.9424 39.5508 81.9424H38.833V89.5029ZM55.0564 81.9424H50.8249V84.4785H54.9333V85.9756H50.8249V89.5029H55.0564V91H49.2321V80.4453H55.0564V81.9424ZM58.9682 91V79.7275L66.6654 87.7803V80.4453H68.2582V91.6426L60.5609 83.6104V91H58.9682Z" fill="#AD9B7D"/>
<path d="M1.26465 111V100.445H3.47949C4.54134 100.445 5.37988 100.55 5.99512 100.76C6.65592 100.965 7.25521 101.313 7.79297 101.806C8.88216 102.799 9.42676 104.105 9.42676 105.723C9.42676 107.345 8.85938 108.658 7.72461 109.66C7.15495 110.161 6.55794 110.51 5.93359 110.706C5.35026 110.902 4.52311 111 3.45215 111H1.26465ZM2.85742 109.503H3.5752C4.29069 109.503 4.88542 109.428 5.35938 109.277C5.83333 109.118 6.26172 108.865 6.64453 108.519C7.42839 107.803 7.82031 106.871 7.82031 105.723C7.82031 104.565 7.43294 103.626 6.6582 102.906C5.96094 102.264 4.93327 101.942 3.5752 101.942H2.85742V109.503ZM19.0807 101.942H14.8493V104.479H18.9577V105.976H14.8493V109.503H19.0807V111H13.2565V100.445H19.0807V101.942ZM28.9603 102.018L27.6683 102.783C27.4268 102.364 27.1966 102.09 26.9779 101.963C26.75 101.817 26.4561 101.744 26.0961 101.744C25.654 101.744 25.2871 101.869 24.9955 102.12C24.7038 102.366 24.558 102.676 24.558 103.05C24.558 103.565 24.9408 103.979 25.7064 104.294L26.7591 104.725C27.6159 105.071 28.2425 105.495 28.639 105.996C29.0355 106.493 29.2337 107.104 29.2337 107.828C29.2337 108.799 28.9102 109.601 28.263 110.234C27.6114 110.872 26.8024 111.191 25.8363 111.191C24.9203 111.191 24.1638 110.92 23.5668 110.378C22.9789 109.836 22.612 109.072 22.4662 108.088L24.0795 107.732C24.1524 108.352 24.28 108.781 24.4623 109.018C24.7904 109.473 25.2689 109.701 25.8978 109.701C26.3946 109.701 26.807 109.535 27.1351 109.202C27.4632 108.869 27.6273 108.448 27.6273 107.938C27.6273 107.732 27.5977 107.546 27.5384 107.377C27.4837 107.204 27.3949 107.047 27.2718 106.905C27.1533 106.759 26.9984 106.625 26.807 106.502C26.6156 106.374 26.3877 106.254 26.1234 106.14L25.1048 105.716C23.6602 105.105 22.9379 104.212 22.9379 103.036C22.9379 102.243 23.2409 101.58 23.847 101.047C24.4532 100.509 25.2074 100.24 26.1097 100.24C27.3265 100.24 28.2767 100.833 28.9603 102.018ZM34.5674 100.445V111H32.9746V100.445H34.5674ZM44.3513 105.504H48.7126V105.853C48.7126 106.646 48.6192 107.347 48.4323 107.958C48.2501 108.523 47.9424 109.052 47.5095 109.544C46.5297 110.647 45.2833 111.198 43.7702 111.198C42.2937 111.198 41.029 110.665 39.9763 109.599C38.9236 108.528 38.3972 107.243 38.3972 105.743C38.3972 104.212 38.9327 102.913 40.0036 101.847C41.0746 100.776 42.378 100.24 43.9138 100.24C44.7387 100.24 45.5088 100.409 46.2243 100.746C46.9079 101.083 47.5801 101.63 48.2409 102.387L47.1062 103.474C46.2403 102.321 45.1853 101.744 43.9411 101.744C42.8246 101.744 41.8881 102.129 41.1316 102.899C40.3751 103.656 39.9968 104.604 39.9968 105.743C39.9968 106.919 40.4183 107.887 41.2614 108.648C42.0499 109.355 42.9043 109.708 43.8249 109.708C44.6088 109.708 45.3129 109.444 45.9372 108.915C46.5616 108.382 46.9102 107.744 46.9831 107.001H44.3513V105.504ZM52.5424 111V99.7275L60.2396 107.78V100.445H61.8324V111.643L54.1352 103.61V111H52.5424ZM7.46484 128.437H2.94629L1.77051 131H0.0546875L5.27734 119.782L10.3154 131H8.57227L7.46484 128.437ZM6.81543 126.939L5.25 123.351L3.60938 126.939H6.81543ZM13.1608 120.445L15.9089 127.5L18.78 119.933L21.528 127.5L24.447 120.445H26.1764L21.4596 131.67L18.7458 124.191L15.9157 131.677L11.4313 120.445H13.1608ZM34.6068 128.437H30.0882L28.9125 131H27.1966L32.4193 119.782L37.4574 131H35.7142L34.6068 128.437ZM33.9574 126.939L32.392 123.351L30.7513 126.939H33.9574ZM44.1787 126.502L47.4463 131H45.4981L42.4834 126.68H42.1963V131H40.6036V120.445H42.4698C43.8643 120.445 44.8715 120.707 45.4912 121.231C46.1748 121.815 46.5166 122.585 46.5166 123.542C46.5166 124.289 46.3024 124.932 45.8741 125.47C45.4457 126.007 44.8806 126.352 44.1787 126.502ZM42.1963 125.292H42.7022C44.2107 125.292 44.9649 124.715 44.9649 123.562C44.9649 122.482 44.2312 121.942 42.7637 121.942H42.1963V125.292ZM50.8591 131V120.445H53.0739C54.1358 120.445 54.9743 120.55 55.5896 120.76C56.2504 120.965 56.8497 121.313 57.3874 121.806C58.4766 122.799 59.0212 124.105 59.0212 125.723C59.0212 127.345 58.4538 128.658 57.3191 129.66C56.7494 130.161 56.1524 130.51 55.528 130.706C54.9447 130.902 54.1176 131 53.0466 131H50.8591ZM52.4519 129.503H53.1696C53.8851 129.503 54.4799 129.428 54.9538 129.277C55.4278 129.118 55.8562 128.865 56.239 128.519C57.0228 127.803 57.4148 126.871 57.4148 125.723C57.4148 124.565 57.0274 123.626 56.2527 122.906C55.5554 122.264 54.5277 121.942 53.1696 121.942H52.4519V129.503Z" fill="#FAFAFA"/>
<path fill-rule="evenodd" clip-rule="evenodd" d="M9.18207 151.57V155.185H16.0066V156.506H0.762218V155.185H7.40947V151.57H1.63079V150.264H7.40947V148.354H3.86427V147.525C2.96024 148.131 2.00304 148.704 1.02811 149.182C0.815396 148.831 0.35452 148.29 0 147.987C3.08432 146.554 6.06229 144.07 7.40947 142L9.71385 142.127C9.6784 142.271 9.53659 142.382 9.32388 142.398C11.0256 144.516 14.1454 146.666 16.8397 147.764C16.432 148.146 16.042 148.656 15.723 149.102C14.7835 148.64 13.7908 148.083 12.8514 147.462V148.354H9.18207V150.264H15.0848V151.57H9.18207ZM4.57331 147.032H12.2309C10.6533 145.933 9.23525 144.691 8.3135 143.529C7.46265 144.659 6.1332 145.901 4.57331 147.032ZM6.00912 154.564L4.55558 155.137C4.32515 154.357 3.65156 153.146 2.96024 152.271L4.32515 151.761C5.03419 152.621 5.76095 153.783 6.00912 154.564ZM11.5751 155.185L10.3343 154.627C10.9724 153.863 11.7701 152.637 12.1955 151.761L13.9858 152.446C13.9326 152.557 13.7731 152.605 13.5604 152.605C13.0641 153.369 12.2309 154.468 11.5751 155.185ZM34.3885 147.287V148.672H32.6513V155.551C32.6513 156.825 32.1018 157 30.0279 157C29.9924 156.65 29.8151 156.14 29.6379 155.774C29.9747 155.774 30.2937 155.79 30.5596 155.79C31.2687 155.79 31.3396 155.79 31.3396 155.551V148.672H30.4178C30.2937 152.43 30.0101 155.312 27.5462 156.984C27.369 156.666 26.9435 156.204 26.6067 155.981C28.3971 154.803 28.8934 152.924 29.0352 150.28C28.982 150.344 28.8934 150.392 28.7161 150.376C28.4148 151.602 27.9185 153.019 27.3158 153.895C27.1208 153.72 26.7131 153.385 26.4472 153.226C26.9435 152.43 27.3512 151.092 27.5994 149.834L29.0529 150.232L29.1061 148.672H26.6599V147.287H30.0456V145.344H27.5817V143.99H30.0456V142.08L31.9954 142.191C31.9777 142.318 31.8536 142.398 31.5877 142.43V143.99H33.8921V145.344H31.5877V147.287H34.3885ZM43.2869 147.287V148.672H40.7875V155.519C40.7875 156.857 40.238 156.984 38.0577 156.984C38.0223 156.634 37.845 156.092 37.6678 155.726C38.3591 155.742 38.9618 155.742 39.1745 155.742C39.3695 155.726 39.4226 155.694 39.4226 155.519V148.672H38.43C38.3059 152.51 37.9691 155.344 35.2216 156.984C35.0443 156.666 34.6189 156.188 34.2998 155.965C36.6928 154.596 37.0296 152.239 37.1183 148.672H34.7607V147.287H38.04V145.344H35.4343V143.99H38.04V142.08L39.9367 142.191C39.919 142.318 39.8126 142.398 39.529 142.43V143.99H42.3652V145.344H39.529V147.287H43.2869ZM32.6513 150.057L33.7503 149.803C34.158 150.535 34.4948 151.459 34.6898 152.207C34.9911 151.427 35.2393 150.551 35.3988 149.691L36.941 150.041C36.8878 150.169 36.7815 150.232 36.5688 150.217C36.2142 151.745 35.5761 153.433 34.7961 154.468C34.5834 154.277 34.1403 153.959 33.8567 153.799C34.0694 153.513 34.2644 153.162 34.4416 152.78L33.6262 152.987C33.5022 152.191 33.1122 150.981 32.6513 150.057ZM43.3933 153.783L42.1347 154.054C41.9929 152.955 41.4789 151.252 40.8762 149.962L42.0461 149.707C42.6842 150.997 43.2337 152.669 43.3933 153.783ZM69.6277 152.366V153.624H63.3705C64.5581 154.946 66.7384 155.503 70 155.631C69.6455 155.949 69.2378 156.554 69.0428 157C65.1785 156.697 62.9096 155.774 61.6156 153.624H61.4561C60.5343 155.328 58.6022 156.443 53.9757 157C53.8516 156.618 53.4794 156.045 53.1957 155.726C56.7232 155.36 58.5135 154.691 59.4707 153.624H53.4971V152.366H60.1975C60.3748 151.841 60.4811 151.252 60.5698 150.583L62.6792 150.742C62.6614 150.885 62.5019 150.965 62.2537 151.013C62.1651 151.49 62.0765 151.936 61.9524 152.366H66.0825C65.3203 152.111 64.4518 151.857 63.7073 151.682L64.239 151.013C64.1681 150.662 63.9731 150.217 63.7959 149.882C64.5227 149.898 65.214 149.898 65.409 149.898C65.6217 149.882 65.6926 149.834 65.6926 149.659V148.258H62.0056C62.6614 148.72 63.3527 149.325 63.7073 149.787L62.5196 150.455C62.1828 149.962 61.4383 149.261 60.747 148.768L61.6865 148.258H59.5062V147.159H60.357C60.1975 146.857 59.9316 146.459 59.6835 146.204C60.6584 146.108 61.6156 145.965 62.5196 145.758C62.1474 145.471 61.6688 145.169 61.2433 144.946L62.0942 144.564C62.5905 144.803 63.1932 145.153 63.6009 145.471C63.92 145.392 64.2213 145.28 64.5227 145.169C64.115 144.866 63.5654 144.532 63.0514 144.309L63.8668 143.863C64.4163 144.086 65.0544 144.436 65.4799 144.739C65.9762 144.484 66.4371 144.197 66.8093 143.863H62.9273C62.2183 144.197 61.3674 144.532 60.4102 144.818C60.233 144.548 59.8253 144.166 59.5239 143.99C61.5447 143.497 63.0337 142.812 63.8491 142.08L65.4444 142.35C65.409 142.462 65.3026 142.525 65.0899 142.525C64.9304 142.653 64.7531 142.796 64.5758 142.924H67.8197L68.0679 142.892L69.0251 143.274C68.9896 143.354 68.9187 143.401 68.8655 143.449C67.3411 145.662 64.0441 146.682 60.4811 147.143V147.159H65.6926V145.981L67.6602 146.061C67.6424 146.188 67.5538 146.268 67.2879 146.299V147.159H69.8759V148.258H67.2879V149.707C67.2879 150.678 66.9334 150.949 65.3558 150.997C66.3307 151.252 67.412 151.57 68.0501 151.841L67.6602 152.366H69.6277ZM57.3436 148.178H55.9787C55.9787 149.277 55.6951 150.71 54.4897 151.586C54.2061 151.379 53.5857 151.076 53.1957 150.933C54.2947 150.169 54.4897 149.038 54.4897 148.178H53.3376V146.984H57.3436V145.933H54.1884V142.541L55.9964 142.653C55.9787 142.78 55.8724 142.86 55.6242 142.892V144.755H57.3436V142.08L59.2935 142.191C59.2758 142.318 59.1517 142.398 58.8858 142.43V151.236H57.3436V148.178Z" fill="#DFAD77"/>
<defs>
<linearGradient id="paint0_linear_220_614" x1="27.1475" y1="44.0603" x2="65.8046" y2="39.3745" gradientUnits="userSpaceOnUse">
<stop stop-color="#FBF5B7"/>
<stop offset="1" stop-color="#B38728"/>
</linearGradient>
<linearGradient id="paint1_linear_220_614" x1="22.481" y1="25.7534" x2="32.4724" y2="66.6272" gradientUnits="userSpaceOnUse">
<stop stop-color="#FBF5B7"/>
<stop offset="1" stop-color="#B38728"/>
</linearGradient>
<linearGradient id="paint2_linear_220_614" x1="41.5012" y1="33.7189" x2="37.7993" y2="4.3214" gradientUnits="userSpaceOnUse">
<stop stop-color="#FBF5B7"/>
<stop offset="1" stop-color="#B38728"/>
</linearGradient>
<linearGradient id="paint3_linear_220_614" x1="46.2492" y1="27.3799" x2="4.12577" y2="28.5183" gradientUnits="userSpaceOnUse">
<stop stop-color="#FBF5B7"/>
<stop offset="1" stop-color="#B38728"/>
</linearGradient>
</defs>
</svg>
