<svg width="146" height="30" viewBox="0 0 146 30" fill="none" xmlns="http://www.w3.org/2000/svg">
<path d="M39.8019 26.1292H38.582V29.9641H37.6711V26.1292H36.4513V25.3434H39.8019V26.1292Z" fill="white" fill-opacity="0.3"/>
<path d="M44.1598 29.9633H43.2093L42.932 29.1382H41.2686L40.9914 29.9633H40.033L41.736 25.3191H42.4489L44.1598 29.9633ZM42.6865 28.3917L42.1162 26.7022L41.53 28.3917H42.6865Z" fill="white" fill-opacity="0.3"/>
<path d="M45.6493 29.9633H44.7225V25.3191H45.6335L45.6493 29.9633Z" fill="white" fill-opacity="0.3"/>
<path d="M51.9769 25.3191L50.7254 29.9633H49.9333L49.0699 27.1422L48.2144 29.9633H47.4223L46.1787 25.3191H47.1292L47.85 28.2424L48.7055 25.3191H49.4739L50.3293 28.2424L51.0581 25.3191H51.9769Z" fill="white" fill-opacity="0.3"/>
<path d="M56.1752 29.9633H55.2247L54.9474 29.1382H53.284L53.0068 29.9633H52.0483L53.7514 25.3191H54.4642L56.1752 29.9633ZM54.7019 28.3917L54.1316 26.7022L53.5375 28.3917H54.7019Z" fill="white" fill-opacity="0.3"/>
<path d="M60.3355 29.9633H59.5434L57.6898 27.1108V29.9633H56.7789V25.3191H57.571L59.4166 28.1638V25.3191H60.3355V29.9633Z" fill="white" fill-opacity="0.3"/>
<path d="M66.251 28.0378C66.2942 28.5497 66.1383 29.0586 65.8154 29.4602C65.6479 29.6357 65.4448 29.774 65.2195 29.8661C64.9943 29.9582 64.7519 30.002 64.5084 29.9946C64.275 30.0004 64.0429 29.9588 63.8263 29.8723C63.6097 29.7858 63.4132 29.6563 63.249 29.4916C63.0355 29.2765 62.892 29.0027 62.8371 28.7058C62.7737 28.0078 62.7737 27.3056 62.8371 26.6076C62.8901 26.3101 63.0339 26.0358 63.249 25.8218C63.4125 25.6557 63.6087 25.5247 63.8253 25.4369C64.042 25.349 64.2744 25.3062 64.5084 25.311C64.7794 25.3045 65.0488 25.3527 65.3005 25.4525C65.5376 25.5655 65.7522 25.7199 65.9342 25.9082L65.3164 26.5212C65.2071 26.4048 65.0817 26.3042 64.9441 26.2226C64.8076 26.1511 64.6548 26.1159 64.5005 26.1204C64.3906 26.1197 64.2817 26.1416 64.1807 26.1849C64.0798 26.2282 63.9891 26.2919 63.9143 26.3719C63.7834 26.5531 63.7116 26.7697 63.7084 26.9927C63.6958 27.2178 63.6958 27.4434 63.7084 27.6685C63.6957 27.8962 63.6957 28.1245 63.7084 28.3522C63.7115 28.5776 63.7833 28.7967 63.9143 28.9808C63.9898 29.0594 64.0808 29.1216 64.1817 29.1635C64.2826 29.2054 64.3911 29.2262 64.5005 29.2244C64.6176 29.2299 64.7345 29.2094 64.8428 29.1646C64.951 29.1197 65.0478 29.0516 65.1263 28.9651C65.2701 28.785 65.3408 28.5579 65.3243 28.3286V28.1636H64.5322V27.3777H66.2748L66.251 28.0378Z" fill="white" fill-opacity="0.3"/>
<path d="M70.4257 27.6372C70.4353 27.9893 70.4141 28.3417 70.3624 28.6902C70.3135 28.9875 70.1723 29.2622 69.9584 29.476C69.618 29.7984 69.1656 29.9782 68.695 29.9782C68.2244 29.9782 67.772 29.7984 67.4316 29.476C67.2181 29.2609 67.0747 28.9871 67.0197 28.6902C66.9563 27.9922 66.9563 27.29 67.0197 26.592C67.0728 26.2944 67.2165 26.0202 67.4316 25.8062C67.7691 25.4784 68.2227 25.2948 68.695 25.2948C69.1673 25.2948 69.6209 25.4784 69.9584 25.8062C70.1723 26.02 70.3135 26.2947 70.3624 26.592C70.4139 26.9379 70.4351 27.2876 70.4257 27.6372ZM69.5069 27.6372C69.5069 27.2836 69.5069 27.0557 69.5069 26.9614C69.5035 26.7359 69.4256 26.5178 69.2851 26.3406C69.2135 26.2588 69.1245 26.1937 69.0245 26.1502C68.9245 26.1068 68.816 26.0859 68.7069 26.0891C68.5956 26.0873 68.4852 26.1087 68.3828 26.152C68.2805 26.1954 68.1885 26.2596 68.1128 26.3406C67.9819 26.5218 67.91 26.7384 67.9069 26.9614C67.8942 27.1865 67.8942 27.4121 67.9069 27.6372C67.8941 27.8649 67.8941 28.0931 67.9069 28.3208C67.91 28.5438 67.9819 28.7604 68.1128 28.9417C68.1885 29.0226 68.2805 29.0868 68.3828 29.1302C68.4852 29.1735 68.5956 29.1949 68.7069 29.1931C68.8298 29.1931 68.9511 29.1647 69.0611 29.1102C69.1711 29.0556 69.2668 28.9764 69.3406 28.8788C69.4962 28.4843 69.5533 28.0583 69.5069 27.6372Z" fill="white" fill-opacity="0.3"/>
<path d="M74.6553 27.6372C74.6649 27.9893 74.6437 28.3417 74.592 28.6902C74.5431 28.9875 74.4019 29.2622 74.188 29.476C73.8476 29.7984 73.3952 29.9782 72.9246 29.9782C72.454 29.9782 72.0016 29.7984 71.6612 29.476C71.4477 29.2609 71.3043 28.9871 71.2493 28.6902C71.1859 27.9922 71.1859 27.29 71.2493 26.592C71.3024 26.2944 71.4461 26.0202 71.6612 25.8062C71.9987 25.4784 72.4523 25.2948 72.9246 25.2948C73.3969 25.2948 73.8505 25.4784 74.188 25.8062C74.4019 26.02 74.5431 26.2947 74.592 26.592C74.6435 26.9379 74.6647 27.2876 74.6553 27.6372V27.6372ZM73.7365 27.6372C73.7365 27.2836 73.7365 27.0557 73.7365 26.9614C73.7292 26.7366 73.6517 26.5197 73.5147 26.3406C73.4432 26.2588 73.3541 26.1937 73.2541 26.1502C73.1541 26.1068 73.0456 26.0859 72.9365 26.0891C72.8252 26.0873 72.7148 26.1087 72.6124 26.152C72.5101 26.1954 72.4181 26.2596 72.3424 26.3406C72.2117 26.5224 72.1374 26.7382 72.1285 26.9614C72.1285 27.0399 72.1285 27.2678 72.1285 27.6372C72.1285 28.0065 72.1285 28.2423 72.1285 28.3208C72.1374 28.544 72.2117 28.7598 72.3424 28.9417C72.4181 29.0226 72.5101 29.0868 72.6124 29.1302C72.7148 29.1735 72.8252 29.1949 72.9365 29.1931C73.0595 29.1931 73.1807 29.1647 73.2907 29.1102C73.4007 29.0556 73.4964 28.9764 73.5702 28.8788C73.7258 28.4843 73.7829 28.0583 73.7365 27.6372V27.6372Z" fill="white" fill-opacity="0.3"/>
<path d="M78.9817 27.6216C78.9888 27.96 78.9756 28.2985 78.9421 28.6353C78.8952 28.9673 78.7425 29.2757 78.5064 29.5155C78.3425 29.6703 78.1482 29.79 77.9356 29.8671C77.723 29.9442 77.4967 29.9769 77.2707 29.9634H75.6152V25.3191H77.3024C77.5283 25.3056 77.7547 25.3384 77.9673 25.4154C78.1799 25.4925 78.3742 25.6122 78.5381 25.7671C78.7729 25.9983 78.9258 26.2989 78.9737 26.6236C78.9967 26.9558 78.9993 27.2891 78.9817 27.6216V27.6216ZM78.0708 27.6216C78.0892 27.36 78.0892 27.0974 78.0708 26.8358C78.0595 26.6847 78.0045 26.5401 77.9123 26.4193C77.8305 26.3182 77.7248 26.2388 77.6046 26.188C77.4843 26.1373 77.3533 26.1169 77.2232 26.1285H76.5341V29.154H77.1994C77.3296 29.1657 77.4606 29.1452 77.5808 29.0945C77.7011 29.0438 77.8068 28.9643 77.8886 28.8632C77.9805 28.7364 78.0353 28.5868 78.047 28.431C78.0726 28.162 78.0805 27.8916 78.0708 27.6216Z" fill="white" fill-opacity="0.3"/>
<path d="M84.8258 27.6211C84.8503 27.9585 84.8503 28.2973 84.8258 28.6348C84.7844 28.9668 84.6341 29.276 84.3981 29.5149C84.2334 29.6686 84.0389 29.7876 83.8265 29.8646C83.6141 29.9416 83.3882 29.975 83.1624 29.9628H81.4752V25.3186H83.1624C83.3882 25.3064 83.6141 25.3399 83.8265 25.4169C84.0389 25.4939 84.2334 25.6128 84.3981 25.7665C84.6305 25.9985 84.7806 26.2991 84.8258 26.6231C84.8503 26.9553 84.8503 27.2888 84.8258 27.6211ZM83.9149 27.6211C83.9321 27.3594 83.9321 27.0969 83.9149 26.8352C83.9014 26.6833 83.8436 26.5386 83.7486 26.4188C83.6675 26.3188 83.5631 26.2401 83.4444 26.1894C83.3256 26.1387 83.1962 26.1176 83.0673 26.128H82.3782V29.1534H83.0673C83.1962 29.1638 83.3256 29.1427 83.4444 29.092C83.5631 29.0413 83.6675 28.9626 83.7486 28.8627C83.8465 28.7384 83.9044 28.5878 83.9149 28.4305C83.9315 28.1609 83.9315 27.8906 83.9149 27.6211V27.6211Z" fill="white" fill-opacity="0.3"/>
<path d="M88.8427 29.9633H85.7615V25.3191H88.8427V26.1049H86.7041V27.1972H88.5497V27.9831H86.7041V29.1147H88.8744L88.8427 29.9633Z" fill="white" fill-opacity="0.3"/>
<path d="M92.7634 28.5882C92.7709 28.7875 92.7302 28.9856 92.6448 29.166C92.5593 29.3465 92.4316 29.504 92.2723 29.6255C91.9122 29.8855 91.4735 30.0158 91.0287 29.9949C90.7171 30.0142 90.4047 29.9706 90.1106 29.8666C89.8165 29.7626 89.5468 29.6003 89.3177 29.3898L89.9118 28.8004C90.0644 28.9379 90.2433 29.0436 90.4379 29.1111C90.6325 29.1786 90.8388 29.2065 91.0445 29.1933C91.5911 29.1933 91.8366 28.9969 91.8366 28.6197C91.8413 28.5486 91.8318 28.4773 91.8087 28.4099C91.7856 28.3425 91.7493 28.2803 91.702 28.2268C91.5785 28.1371 91.434 28.0802 91.2822 28.0617L90.7118 27.9832C90.5431 27.9846 90.3758 27.9515 90.2205 27.8859C90.0652 27.8203 89.9252 27.7236 89.8092 27.602C89.6933 27.4803 89.6038 27.3362 89.5465 27.1787C89.4892 27.0212 89.4653 26.8536 89.4762 26.6865C89.4687 26.4961 89.5039 26.3064 89.5793 26.1311C89.6546 25.9559 89.7682 25.7993 89.9118 25.6728C90.244 25.3983 90.6682 25.258 91.1 25.2799C91.3758 25.2663 91.6516 25.3072 91.9113 25.4003C92.171 25.4934 92.4095 25.6368 92.6129 25.8221L92.0346 26.3879C91.7692 26.1623 91.4249 26.0494 91.0762 26.0736C90.8823 26.0612 90.6906 26.1199 90.5376 26.2386C90.4791 26.2912 90.4326 26.3555 90.4012 26.4273C90.3697 26.4991 90.3541 26.5768 90.3554 26.6551C90.3538 26.7182 90.3657 26.7809 90.3903 26.8392C90.4149 26.8974 90.4515 26.9498 90.498 26.993C90.6191 27.0943 90.7681 27.1573 90.9257 27.1737L91.4723 27.2523C91.8004 27.2751 92.1132 27.3987 92.3673 27.6059C92.5001 27.7322 92.6041 27.8852 92.6724 28.0546C92.7407 28.224 92.7717 28.406 92.7634 28.5882Z" fill="white" fill-opacity="0.3"/>
<path d="M94.5287 29.9633H93.6178V25.3191H94.5287V29.9633Z" fill="white" fill-opacity="0.3"/>
<path d="M98.9169 28.0387C98.9623 28.5495 98.8093 29.0583 98.4892 29.461C98.3217 29.6365 98.1186 29.7749 97.8934 29.867C97.6681 29.9591 97.4258 30.0028 97.1822 29.9954C96.9488 30.0013 96.7167 29.9597 96.5001 29.8732C96.2835 29.7867 96.087 29.6571 95.9228 29.4925C95.7094 29.2773 95.5659 29.0036 95.5109 28.7066C95.4475 28.0087 95.4475 27.3065 95.5109 26.6085C95.564 26.3109 95.7077 26.0366 95.9228 25.8227C96.0864 25.6566 96.2825 25.5256 96.4992 25.4377C96.7158 25.3498 96.9483 25.307 97.1822 25.3118C97.4531 25.3062 97.7224 25.3543 97.9743 25.4533C98.2101 25.5647 98.4224 25.7193 98.6001 25.9091L97.9823 26.522C97.8772 26.4044 97.7542 26.3036 97.6179 26.2234C97.4814 26.152 97.3286 26.1168 97.1743 26.1212C97.0644 26.1205 96.9555 26.1425 96.8546 26.1858C96.7537 26.2291 96.6629 26.2927 96.5882 26.3727C96.4575 26.5546 96.3832 26.7704 96.3743 26.9935C96.3743 27.0721 96.3743 27.3 96.3743 27.6693C96.3743 28.0387 96.3743 28.2744 96.3743 28.353C96.3835 28.5786 96.4577 28.7968 96.5882 28.9817C96.6636 29.0602 96.7547 29.1224 96.8555 29.1643C96.9564 29.2063 97.065 29.227 97.1743 29.2253C97.2902 29.2295 97.4055 29.2085 97.5123 29.1637C97.619 29.1189 97.7146 29.0514 97.7922 28.966C97.9418 28.7885 98.0157 28.5601 97.9981 28.3294V28.1644H97.206V27.3786H98.9407L98.9169 28.0387Z" fill="white" fill-opacity="0.3"/>
<path d="M103.377 29.9633H102.585L100.739 27.1108V29.9633H99.8202V25.3191H100.612L102.466 28.1638V25.3191H103.377V29.9633Z" fill="white" fill-opacity="0.3"/>
<path d="M109.603 29.9633H108.653L108.376 29.1382H106.712L106.435 29.9633H105.484L107.179 25.3191H107.9L109.603 29.9633ZM108.13 28.3917L107.56 26.7022L106.974 28.3917H108.13Z" fill="white" fill-opacity="0.3"/>
<path d="M113.207 28.5882C113.216 28.7877 113.176 28.9865 113.091 29.1673C113.005 29.348 112.876 29.5053 112.715 29.6255C112.355 29.8854 111.917 30.0157 111.472 29.9948C111.161 30.0149 110.85 29.9716 110.557 29.8675C110.264 29.7635 109.996 29.6008 109.769 29.3897L110.355 28.8003C110.666 29.0736 111.073 29.2147 111.488 29.1932C112.042 29.1932 112.28 28.9968 112.28 28.6196C112.286 28.5484 112.278 28.4766 112.254 28.409C112.231 28.3413 112.194 28.2792 112.145 28.2267C112.022 28.1357 111.878 28.0787 111.725 28.0617L111.163 27.9831C110.993 27.9856 110.825 27.9533 110.669 27.8882C110.513 27.8231 110.372 27.7266 110.255 27.6048C110.138 27.483 110.048 27.3385 109.99 27.1805C109.933 27.0224 109.908 26.8542 109.919 26.6865C109.913 26.4955 109.95 26.3056 110.027 26.1304C110.103 25.9551 110.218 25.7989 110.363 25.6727C110.695 25.3982 111.119 25.2579 111.551 25.2798C111.826 25.2664 112.1 25.3074 112.359 25.4005C112.617 25.4936 112.854 25.6369 113.056 25.8221L112.478 26.3879C112.213 26.1615 111.868 26.0485 111.519 26.0735C111.328 26.0631 111.14 26.1217 110.989 26.2385C110.928 26.2897 110.879 26.3536 110.846 26.4256C110.814 26.4976 110.797 26.576 110.799 26.655C110.796 26.719 110.809 26.7826 110.835 26.8411C110.861 26.8996 110.9 26.9515 110.949 26.9929C111.068 27.0928 111.214 27.1557 111.369 27.1737L111.923 27.2522C112.251 27.2785 112.562 27.4017 112.818 27.6059C112.948 27.7338 113.05 27.8872 113.117 28.0564C113.184 28.2255 113.214 28.4067 113.207 28.5882V28.5882Z" fill="white" fill-opacity="0.3"/>
<path d="M117.088 28.5886C117.095 28.7878 117.055 28.986 116.969 29.1664C116.884 29.3469 116.756 29.5044 116.597 29.6259C116.237 29.8859 115.798 30.0161 115.353 29.9953C115.039 30.0155 114.724 29.9708 114.428 29.8639C114.132 29.7571 113.862 29.5904 113.634 29.3744L114.22 28.7851C114.373 28.9226 114.552 29.0283 114.747 29.0958C114.941 29.1633 115.147 29.1912 115.353 29.178C115.908 29.178 116.145 28.9815 116.145 28.6043C116.152 28.5331 116.143 28.4614 116.12 28.3937C116.097 28.326 116.059 28.2639 116.011 28.2114C115.888 28.1204 115.743 28.0635 115.591 28.0464L115.028 27.9678C114.859 27.9703 114.691 27.938 114.535 27.8729C114.378 27.8078 114.237 27.7113 114.121 27.5895C114.004 27.4677 113.914 27.3233 113.856 27.1652C113.798 27.0072 113.774 26.839 113.785 26.6712C113.777 26.4808 113.813 26.2911 113.888 26.1158C113.963 25.9405 114.077 25.784 114.22 25.6575C114.553 25.3829 114.977 25.2426 115.409 25.2646C115.684 25.2505 115.96 25.2912 116.22 25.3843C116.48 25.4774 116.718 25.6211 116.921 25.8068L116.343 26.3726C116.078 26.1462 115.734 26.0332 115.385 26.0582C115.194 26.0478 115.005 26.1064 114.854 26.2233C114.793 26.2744 114.745 26.3383 114.712 26.4103C114.679 26.4823 114.663 26.5607 114.664 26.6398C114.662 26.7037 114.674 26.7673 114.7 26.8258C114.726 26.8843 114.765 26.9363 114.815 26.9777C114.933 27.0776 115.08 27.1404 115.234 27.1584L115.789 27.237C116.114 27.2614 116.424 27.3849 116.676 27.5906C116.814 27.7173 116.922 27.8722 116.993 28.0445C117.064 28.2169 117.096 28.4026 117.088 28.5886V28.5886Z" fill="white" fill-opacity="0.3"/>
<path d="M121.239 27.6372C121.249 27.9893 121.227 28.3417 121.176 28.6902C121.127 28.9875 120.986 29.2622 120.772 29.476C120.431 29.7984 119.979 29.9782 119.508 29.9782C119.038 29.9782 118.585 29.7984 118.245 29.476C118.031 29.2622 117.89 28.9875 117.841 28.6902C117.767 27.9927 117.767 27.2895 117.841 26.592C117.888 26.2942 118.03 26.019 118.245 25.8062C118.582 25.4784 119.036 25.2948 119.508 25.2948C119.981 25.2948 120.434 25.4784 120.772 25.8062C120.986 26.02 121.127 26.2947 121.176 26.592C121.227 26.9379 121.248 27.2876 121.239 27.6372ZM120.328 27.6372C120.328 27.2836 120.328 27.0557 120.328 26.9614C120.327 26.7368 120.252 26.5188 120.114 26.3406C120.04 26.2582 119.949 26.1924 119.847 26.1473C119.746 26.1022 119.636 26.0789 119.524 26.0789C119.413 26.0789 119.303 26.1022 119.201 26.1473C119.099 26.1924 119.008 26.2582 118.934 26.3406C118.803 26.5218 118.731 26.7384 118.728 26.9614C118.728 27.0399 118.728 27.2678 118.728 27.6372C118.728 28.0065 118.728 28.2423 118.728 28.3208C118.731 28.5438 118.803 28.7604 118.934 28.9417C119.01 29.0226 119.102 29.0868 119.204 29.1302C119.306 29.1735 119.417 29.1949 119.528 29.1931C119.651 29.1931 119.772 29.1647 119.882 29.1102C119.992 29.0556 120.088 28.9764 120.162 28.8788C120.319 28.4847 120.376 28.0583 120.328 27.6372V27.6372Z" fill="white" fill-opacity="0.3"/>
<path d="M125.033 29.4688C124.863 29.6385 124.661 29.7725 124.437 29.863C124.214 29.9534 123.975 29.9984 123.734 29.9953C123.501 30.0012 123.268 29.9596 123.052 29.8731C122.835 29.7866 122.639 29.657 122.475 29.4924C122.261 29.2772 122.118 29.0035 122.063 28.7066C121.999 28.0086 121.999 27.3064 122.063 26.6084C122.116 26.3108 122.259 26.0366 122.475 25.8226C122.638 25.6565 122.834 25.5255 123.051 25.4376C123.268 25.3498 123.5 25.3069 123.734 25.3118C123.976 25.3101 124.215 25.3566 124.438 25.4484C124.661 25.5402 124.864 25.6754 125.033 25.8462L124.431 26.4512C124.343 26.3523 124.236 26.2721 124.117 26.2154C123.997 26.1586 123.867 26.1266 123.734 26.1212C123.611 26.1163 123.489 26.1418 123.378 26.1953C123.268 26.2488 123.172 26.3286 123.1 26.4277C122.943 26.8216 122.883 27.2475 122.926 27.6693C122.926 28.0307 122.926 28.2586 122.926 28.3529C122.931 28.5792 123.006 28.7984 123.14 28.9816C123.214 29.0592 123.304 29.1208 123.404 29.1627C123.503 29.2046 123.61 29.2259 123.718 29.2252C123.851 29.2198 123.981 29.1877 124.101 29.131C124.221 29.0743 124.328 28.9941 124.415 28.8952L125.033 29.4688Z" fill="white" fill-opacity="0.3"/>
<path d="M126.776 29.9633H125.865V25.3191H126.776V29.9633Z" fill="white" fill-opacity="0.3"/>
<path d="M131.473 29.9633H130.523L130.269 29.1382H128.614L128.328 29.9633H127.378L129.073 25.3191H129.794L131.473 29.9633ZM130.008 28.3917L129.429 26.7022L128.843 28.3917H130.008Z" fill="white" fill-opacity="0.3"/>
<path d="M135.06 26.1292H133.84V29.9641H132.921V26.1292H131.701V25.3434H135.06V26.1292Z" fill="white" fill-opacity="0.3"/>
<path d="M30.5494 14.9125H23.0482V29.7961H30.5494V14.9125Z" fill="#DFAD77"/>
<path fill-rule="evenodd" clip-rule="evenodd" d="M7.50119 0H29.9969V7.4418H7.50119V22.325H11.2481V14.8833H18.7493V29.7669H11.2481V29.7668H0V29.7593V22.325V7.4418V0H7.50119Z" fill="#DFAD77"/>
<path d="M44.8953 12.1491C46.2163 13.0547 47.3982 14.1452 48.4043 15.3868L47.4141 16.1726C47.178 15.8142 46.9131 15.4751 46.622 15.1589C43.2239 15.3082 39.6357 15.4261 37.4178 15.4889C37.4039 15.5387 37.3739 15.5826 37.3324 15.6139C37.2909 15.6451 37.2402 15.662 37.1881 15.6618L36.7683 14.3809H38.8753C39.7152 13.2154 40.4368 11.9703 41.0298 10.6639L42.4952 11.1983C42.4477 11.2926 42.3209 11.324 42.1625 11.324C41.5916 12.3726 40.9484 13.3808 40.2377 14.3416C41.917 14.3416 43.7863 14.2552 45.6319 14.208C45.1291 13.7291 44.6003 13.2779 44.0477 12.8564L44.8953 12.1491ZM38.5585 21.5791V16.5734H46.4795V21.5162H45.2676V21.1076H39.7228V21.5634L38.5585 21.5791ZM45.3072 17.6499H39.7625V20.0703H45.3072V17.6499Z" fill="white"/>
<path d="M53.6412 13.9406C54.3056 14.2279 54.9245 14.6091 55.4789 15.0722L54.7977 15.9209C54.2525 15.4391 53.6484 15.0273 52.9996 14.695L53.6412 13.9406ZM53.9264 10.8523C54.5724 11.178 55.1717 11.5876 55.7086 12.0703L54.9957 12.8562C54.4792 12.3371 53.8896 11.895 53.2452 11.5438L53.9264 10.8523ZM53.261 20.8402C53.8659 19.6214 54.395 18.3669 54.8452 17.0839L55.772 17.6497C55.3889 18.8341 54.9394 19.9964 54.4254 21.1309C54.4772 21.1688 54.5126 21.2247 54.5244 21.2875C54.5361 21.3502 54.5234 21.415 54.4888 21.4688L53.261 20.8402ZM56.8651 16.5967V14.9386H56.7542C56.6315 15.48 56.4144 15.9959 56.1126 16.4631C55.9401 16.3205 55.7544 16.1942 55.5581 16.0859C55.8317 15.626 56.017 15.1197 56.1047 14.5928L56.8968 14.7972V14.2628L56.1047 14.3099C56.095 14.3476 56.0739 14.3815 56.0441 14.4068C56.0143 14.4322 55.9774 14.4477 55.9383 14.4514L55.6769 13.6027H56.3265C56.4611 13.4377 56.6116 13.2648 56.7463 13.0762C56.4577 12.7823 56.1391 12.519 55.7957 12.2904L56.2076 11.7403L56.3502 11.8346C56.5852 11.4721 56.7842 11.0879 56.9443 10.6873L57.7839 11.0802C57.7551 11.1203 57.7146 11.1507 57.668 11.1676C57.6213 11.1844 57.5706 11.1868 57.5225 11.1745C57.3284 11.5344 57.1142 11.8833 56.8809 12.2196C56.9927 12.2982 57.0962 12.3877 57.1899 12.4868C57.4037 12.1961 57.5859 11.9053 57.7364 11.6538L58.4572 12.0467V11.8739H61.4513V12.1725L61.784 11.7324L61.9583 11.8346C62.1905 11.4653 62.3995 11.0821 62.5841 10.6873L63.3762 11.0959C63.3463 11.1306 63.3082 11.1573 63.2654 11.1738C63.2225 11.1903 63.1762 11.1959 63.1306 11.1902C62.9484 11.4652 62.687 11.8739 62.4415 12.2196L62.79 12.5182C63.0166 12.2351 63.2255 11.9386 63.4158 11.6303L64.2079 12.0703C64.1683 12.1489 64.0415 12.1646 63.9306 12.1489C63.5526 12.6611 63.1426 13.1493 62.7029 13.6105H63.59C63.5187 13.477 63.4395 13.3355 63.3682 13.2176L63.9465 12.974C64.2173 13.3738 64.4281 13.8106 64.5722 14.2706L63.9465 14.5378L63.8514 14.2156L63.2811 14.2628V16.6203H62.489V14.9229C62.429 14.9573 62.3602 14.9738 62.291 14.97C62.1791 15.5049 61.9669 16.014 61.6652 16.4709C61.4935 16.3345 61.3137 16.2086 61.1266 16.0938C61.3864 15.6381 61.5633 15.1407 61.6494 14.6243L62.489 14.8521V14.2863L61.6494 14.3335C61.6348 14.372 61.6103 14.406 61.5783 14.4322C61.5464 14.4584 61.508 14.4758 61.4672 14.4828L61.2216 13.6341H61.8474L62.291 13.1233C62.0089 12.8377 61.7043 12.5749 61.3801 12.3375V12.5104H58.3859V12.1803C58.3306 12.1858 58.2749 12.1858 58.2196 12.1803C57.9344 12.5811 57.4988 13.1312 57.0869 13.6027H57.879L57.6968 13.1941L58.2275 12.9976C58.4461 13.4046 58.6111 13.8377 58.7186 14.2863L58.1879 14.4435C58.1718 14.3482 58.1507 14.2537 58.1245 14.1606L57.6334 14.1999V16.5574L56.8651 16.5967ZM63.1385 19.2685L63.3682 19.2292L64.0336 19.4178C64.0236 19.501 63.9907 19.5798 63.9385 19.6457C63.5425 21.516 63.1464 21.5631 61.7523 21.5631C61.4117 21.5631 60.9602 21.5631 60.5008 21.5631C60.4668 21.282 60.3664 21.0127 60.2078 20.7773C60.8969 20.8323 61.6098 20.848 61.8791 20.848C62.3464 20.848 62.5207 20.848 62.7425 20.0622H57.5463L57.4433 20.3844L56.3898 20.2351C56.6381 19.5574 56.8419 18.8644 56.9997 18.1605H62.2831V17.5868H56.4849V16.9032H63.3682V18.7813H57.9027L57.7681 19.2842L63.1385 19.2685ZM58.3859 14.6243C58.5309 15.0278 58.6396 15.4433 58.7107 15.8659L58.0928 16.023C58.0206 15.5933 57.9228 15.1682 57.7998 14.75L58.3859 14.6243ZM61.182 12.8326V13.4062H58.8057V12.8719L61.182 12.8326ZM58.8057 14.3178V13.752H61.182V14.3178H58.8057ZM58.8057 16.4317V14.6793H61.182V16.4317H58.8057ZM61.0632 10.9309V11.4967H58.8929V10.9309H61.0632ZM59.5424 15.2293V15.8894H60.4375V15.2293H59.5424ZM63.9623 16.3059C63.8504 15.783 63.694 15.2704 63.495 14.7736L64.1049 14.6085C64.3198 15.0924 64.4895 15.5948 64.6118 16.1095L63.9623 16.3059Z" fill="white"/>
<path d="M73.578 13.0445L74.2037 13.1859C74.1897 13.2545 74.1657 13.3207 74.1324 13.3824C74.0433 15.0816 73.6713 16.7545 73.0314 18.3331C73.5362 18.7004 74.0032 19.1163 74.4255 19.5747L73.7205 20.4627C73.3583 20.0395 72.955 19.6526 72.5166 19.3075C71.9416 20.2623 71.1216 21.0487 70.1403 21.5864C69.9498 21.2583 69.7093 20.9615 69.4274 20.7063C70.3407 20.2379 71.0953 19.5138 71.5977 18.6239C71.2492 18.3803 70.9086 18.1524 70.5601 17.9323L70.4413 18.3803L69.4828 17.8931C69.7759 16.8951 70.1165 15.5356 70.4492 14.0896H69.3561V13.0681H70.671C70.8452 12.2272 71.0036 11.4178 71.1383 10.7106L72.4928 10.852C72.4928 10.9542 72.3977 11.0092 72.2156 11.0249C72.0888 11.6536 71.9304 12.3608 71.772 13.0916H73.3562L73.578 13.0445ZM71.566 14.0896C71.3363 15.0641 71.0987 16.0385 70.869 16.9186C71.273 17.1544 71.6611 17.4058 72.0967 17.7044C72.5662 16.5599 72.8599 15.352 72.9681 14.1211L71.566 14.0896ZM80.8574 15.8263V16.8636H77.99V20.2741C77.99 21.39 77.4989 21.5707 75.3523 21.5472C75.2634 21.1707 75.1221 20.8084 74.9325 20.4706H76.287C76.7068 20.4706 76.8177 20.4706 76.8177 20.2427V16.84H74.0295V15.8028H76.8493V13.9246H77.2929C77.8371 13.4155 78.3329 12.8579 78.7742 12.2587H74.5126V11.2999H79.6375L79.8435 11.2449L80.7544 11.7793C80.6856 11.8426 80.6007 11.8861 80.5088 11.905C79.7864 12.8949 78.9519 13.7993 78.0216 14.6004V15.8499L80.8574 15.8263Z" fill="white"/>
<path d="M90.3536 12.6359V13.516H85.601V12.6359H90.3536ZM89.91 17.4294V20.9106H87.1297V21.4136H86.1317V17.4294H89.91ZM92.3497 12.0229V12.463C92.394 13.0863 92.2707 13.7101 91.9924 14.2707C91.714 14.8313 91.2906 15.3084 90.7655 15.6534C90.5169 15.3772 90.2286 15.1389 89.91 14.9462V15.1112H86.1554V14.2468H89.91V14.9226C90.3451 14.6771 90.7011 14.3143 90.9367 13.8761C91.1722 13.4379 91.2777 12.9425 91.2407 12.4472V11.0485H95.2725V13.8224C95.2725 14.0975 95.2725 14.1446 95.4784 14.1446H95.9695C96.1597 14.1446 96.2072 13.9953 96.2309 12.903C96.5237 13.0941 96.8482 13.2324 97.1894 13.3117C97.1102 14.7183 96.825 15.0876 96.0963 15.0876H95.3042C94.4487 15.0876 94.1873 14.8047 94.1873 13.8303V12.0229H92.3497ZM86.1554 16.6907V15.8263H89.91V16.6907H86.1554ZM89.8862 11.0799V11.9365H86.2029V11.0799H89.8862ZM88.8882 18.3095H87.1297V20.0226H88.8882V18.3095ZM95.827 15.7163L96.5795 15.9992C96.5487 16.0598 96.5055 16.1133 96.4527 16.1564C96.0985 17.4064 95.415 18.5402 94.4725 19.4411C95.3102 19.9836 96.238 20.3747 97.2132 20.5963C96.9098 20.8788 96.6436 21.1983 96.4211 21.5472C95.3827 21.2692 94.4051 20.803 93.5378 20.172C92.6202 20.8012 91.5989 21.2666 90.5199 21.5472C90.3625 21.1974 90.1514 20.874 89.8941 20.5884C90.8846 20.3679 91.8265 19.9712 92.6744 19.4175C91.9976 18.7325 91.448 17.9345 91.0506 17.06L92.0883 16.7457C92.4351 17.4965 92.9277 18.172 93.5378 18.7339C94.1593 18.1772 94.6558 17.4972 94.9953 16.7379H90.4882V15.7399H95.5814L95.827 15.7163Z" fill="white"/>
<path d="M106.831 12.6359V13.516H101.824V12.6359H106.831ZM106.316 17.4294V20.9106H103.409V21.4136H102.387V17.4294H106.316ZM102.411 15.1112V14.2468H106.371V15.1112H102.411ZM102.411 16.6829V15.8185H106.371V16.6829H102.411ZM106.371 11.072V11.9286H102.506V11.072H106.371ZM105.286 18.3017H103.425V20.0148H105.286V18.3017ZM113.5 14.6633V15.7477H110.791V21.5157H109.595V15.7242H106.799V14.6397H109.595V10.7106L111.068 10.797C111.068 10.8992 110.973 10.9699 110.775 10.9935V14.6633H113.5Z" fill="white"/>
<path d="M122.055 14.7267H120.677V21.5163H119.552V14.6953H118.087V13.6816H119.552V10.6561L120.954 10.7347C120.954 10.829 120.859 10.8919 120.677 10.9233V13.6816H122.055V14.7267ZM124.653 16.817H125.168C125.129 17.0999 125.168 20.6362 124.717 21.147C124.463 21.477 124.186 21.5556 123.133 21.5163C123.12 21.2151 123.042 20.9201 122.903 20.6519C123.146 20.6645 123.389 20.6645 123.632 20.6519C123.685 20.6582 123.739 20.6498 123.788 20.6276C123.837 20.6054 123.879 20.5703 123.909 20.5261C124.059 20.3375 124.146 19.5989 124.21 17.6107H123.418C123.343 19.082 122.735 20.4771 121.707 21.5399C121.546 21.2708 121.33 21.038 121.073 20.8562C121.91 19.9793 122.399 18.8325 122.451 17.6264H121.366V16.8013H122.523C122.523 16.432 122.562 16.0155 122.57 15.6461L123.814 15.7247C123.814 15.819 123.719 15.8898 123.544 15.9133C123.544 16.2119 123.544 16.5106 123.497 16.8013H124.717L124.653 16.817ZM128.78 12.2749C128.535 15.2925 128.297 15.4576 126.808 15.4576H126.016C125.985 15.1289 125.885 14.8103 125.723 14.5224C126.214 14.5696 126.681 14.5696 126.879 14.5696C127.077 14.5696 127.172 14.5696 127.267 14.4674C127.362 14.3652 127.545 13.8623 127.655 12.8172H125.596C125.348 13.4991 124.937 14.1116 124.399 14.6027C123.862 15.0938 123.212 15.449 122.507 15.6383C122.356 15.3441 122.155 15.0782 121.913 14.8525C122.469 14.7282 122.989 14.4776 123.432 14.1203C123.874 13.7631 124.227 13.309 124.463 12.7936H122.428V11.9056H124.725C124.805 11.4986 124.856 11.0862 124.875 10.6719L126.214 10.7662C126.214 10.8605 126.119 10.9233 125.945 10.9469C125.945 11.2769 125.873 11.5991 125.826 11.9056H127.956H128.186L128.804 11.992L128.78 12.2749ZM128.78 16.817H129.327C129.327 16.9035 129.327 17.0135 129.327 17.1314C129.256 19.8503 129.192 20.8248 128.931 21.147C128.669 21.4691 128.392 21.5556 127.244 21.5163C127.226 21.2065 127.142 20.9039 126.998 20.6283C127.347 20.6283 127.64 20.6283 127.79 20.6283C127.848 20.6347 127.907 20.6265 127.961 20.6045C128.015 20.5826 128.062 20.5475 128.099 20.5026C128.218 20.3297 128.281 19.6067 128.345 17.6107H127.465C127.378 19.085 126.737 20.4733 125.667 21.5006C125.488 21.2356 125.263 21.0041 125.002 20.8169C125.889 19.9759 126.414 18.8271 126.467 17.6107H125.461V16.8013H126.547C126.547 16.432 126.547 16.0155 126.594 15.6461L127.861 15.7247C127.861 15.819 127.766 15.8898 127.6 15.9133C127.6 16.2119 127.6 16.5106 127.553 16.8013H128.796L128.78 16.817Z" fill="white"/>
<path d="M141.018 10.7192C140.991 10.7713 140.95 10.8154 140.9 10.8471C140.85 10.8789 140.793 10.897 140.733 10.8999C142.286 12.1297 144.08 13.0261 146.001 13.5324C145.74 13.8103 145.512 14.116 145.32 14.444L144.432 14.1218V17.1394H135.854V14.1061C135.521 14.2475 135.181 14.389 134.832 14.499C134.661 14.1988 134.46 13.917 134.23 13.6582C136.186 13.0631 137.979 12.0338 139.474 10.6484L141.018 10.7192ZM144.329 14.0903C143.638 13.8064 142.964 13.4837 142.31 13.1238V13.556H137.953V13.0688C137.3 13.4467 136.625 13.7878 135.933 14.0903H144.329ZM136.678 17.6423H143.616V21.5164H142.405V21.2021H137.826V21.5164H136.678V17.6423ZM138.262 14.8762C138.543 15.2741 138.757 15.7147 138.896 16.1807L138.04 16.4478H139.553V14.8055H136.828V16.4478H138.04C137.906 15.9772 137.706 15.5275 137.446 15.1119L138.262 14.8762ZM137.802 18.381V19.0411H142.381V18.3731L137.802 18.381ZM142.381 20.4634V19.7876H137.802V20.4634H142.381ZM141.747 12.8095C141.128 12.4551 140.55 12.0362 140.02 11.56C139.508 12.0294 138.951 12.4479 138.357 12.8095H141.747ZM143.331 14.8055H140.567V16.4478H141.898C141.692 16.3614 141.407 16.2357 141.216 16.1807C141.465 15.7454 141.677 15.2907 141.85 14.8212L142.983 15.1827C142.95 15.2201 142.908 15.249 142.861 15.2668C142.814 15.2846 142.763 15.2908 142.714 15.2848C142.485 15.6847 142.237 16.0729 141.969 16.4478H143.411L143.331 14.8055Z" fill="white"/>
</svg>
