<svg width="176" height="54" viewBox="0 0 176 54" fill="none" xmlns="http://www.w3.org/2000/svg">
<mask id="mask0_154_317" style="mask-type:alpha" maskUnits="userSpaceOnUse" x="0" y="0" width="54" height="54">
<path d="M53.2222 0H0V53.9239H53.2222V0Z" fill="white"/>
</mask>
<g mask="url(#mask0_154_317)">
<mask id="mask1_154_317" style="mask-type:alpha" maskUnits="userSpaceOnUse" x="11" y="8" width="42" height="44">
<path d="M13.5095 40.1542C11.6202 36.0116 11.2176 31.3459 12.2984 26.9794C13.1314 23.6122 14.8448 20.4231 17.4436 17.7901C12.4345 22.8652 12.4345 31.0936 17.4434 36.1685C20.0421 38.8015 23.1902 40.5376 26.5131 41.3815C30.8231 42.4763 35.428 42.0684 39.5167 40.1542C41.5555 39.1997 43.466 37.8715 45.1469 36.1685C47.7456 33.5355 49.4591 30.3464 50.2924 26.9794C51.9119 20.4349 50.1984 13.2178 45.1469 8.09971C55.4381 18.5266 55.4383 35.432 45.1471 45.8589C40.0956 50.977 32.9722 52.7128 26.5131 51.0722C23.19 50.2279 20.0424 48.4919 17.4436 45.8589C15.7627 44.1558 14.4518 42.2201 13.5095 40.1542Z" fill="white"/>
</mask>
<g mask="url(#mask1_154_317)">
<path fill-rule="evenodd" clip-rule="evenodd" d="M13.5095 40.1542C11.6202 36.0116 11.2176 31.3459 12.2984 26.9794C13.1314 23.6122 14.8448 20.4231 17.4436 17.7901C12.4345 22.8652 12.4345 31.0936 17.4434 36.1685C20.0421 38.8015 23.1902 40.5376 26.5131 41.3815C30.8231 42.4763 35.428 42.0684 39.5167 40.1542C41.5555 39.1997 43.466 37.8715 45.1469 36.1685C47.7456 33.5355 49.4591 30.3464 50.2924 26.9794C51.9119 20.4349 50.1984 13.2178 45.1469 8.09971C55.4381 18.5266 55.4383 35.432 45.1471 45.8589C40.0956 50.977 32.9722 52.7128 26.5131 51.0722C23.19 50.2279 20.0424 48.4919 17.4436 45.8589C15.7627 44.1558 14.4518 42.2201 13.5095 40.1542Z" fill="url(#paint0_linear_154_317)"/>
</g>
<mask id="mask2_154_317" style="mask-type:alpha" maskUnits="userSpaceOnUse" x="2" y="11" width="44" height="43">
<path d="M2.73017 26.9787C3.56342 23.6117 5.2769 20.4227 7.87565 17.7896C9.55654 16.0866 11.467 14.7584 13.5061 13.8036C17.5945 11.8892 22.1995 11.4813 26.5094 12.5766C29.8326 13.4203 32.9802 15.1564 35.5789 17.7894C30.5701 12.7145 22.4488 12.7145 17.4399 17.7894C14.8412 20.4224 13.1277 23.6115 12.2947 26.9787C11.2139 31.3452 11.6166 36.0109 13.5058 40.1535C14.4482 42.2194 15.7591 44.1551 17.4399 45.8582C20.0387 48.4912 23.1863 50.2272 26.5094 51.0715C32.9686 52.7121 40.092 50.9763 45.1435 45.8582C34.8523 56.285 18.1666 56.285 7.8754 45.8582C2.82413 40.7403 1.11091 33.523 2.73017 26.9787Z" fill="white"/>
</mask>
<g mask="url(#mask2_154_317)">
<path fill-rule="evenodd" clip-rule="evenodd" d="M2.73017 26.9787C3.56342 23.6117 5.2769 20.4227 7.87565 17.7896C9.55654 16.0866 11.467 14.7584 13.5061 13.8036C17.5945 11.8892 22.1995 11.4813 26.5094 12.5766C29.8326 13.4203 32.9802 15.1564 35.5789 17.7894C30.5701 12.7145 22.4488 12.7145 17.4399 17.7894C14.8412 20.4224 13.1277 23.6115 12.2947 26.9787C11.2139 31.3452 11.6166 36.0109 13.5058 40.1535C14.4482 42.2194 15.7591 44.1551 17.4399 45.8582C20.0387 48.4912 23.1863 50.2272 26.5094 51.0715C32.9686 52.7121 40.092 50.9763 45.1435 45.8582C34.8523 56.285 18.1666 56.285 7.8754 45.8582C2.82413 40.7403 1.11091 33.523 2.73017 26.9787Z" fill="url(#paint1_linear_154_317)"/>
</g>
<mask id="mask3_154_317" style="mask-type:alpha" maskUnits="userSpaceOnUse" x="7" y="0" width="44" height="42">
<path d="M35.5789 36.1686C38.1777 33.5355 39.8909 30.3462 40.7239 26.9795C41.8046 22.6125 41.402 17.9468 39.5125 13.8044C38.5704 11.7388 37.2595 9.8031 35.5787 8.10005C32.9799 5.46703 29.8323 3.73096 26.5092 2.88673C20.0498 1.24586 12.9266 2.98193 7.87537 8.09979C18.1666 -2.32709 34.8517 -2.32709 45.1429 8.09979C50.1945 13.2179 51.9079 20.435 50.2884 26.9795C49.4552 30.3465 47.7417 33.5355 45.1429 36.1686C43.4621 37.8716 41.5516 39.1998 39.5128 40.1543C35.4241 42.0685 30.8191 42.4764 26.5092 41.3816C23.1863 40.5376 20.0382 38.8016 17.4394 36.1686C22.4485 41.2437 30.5698 41.2437 35.5789 36.1686Z" fill="white"/>
</mask>
<g mask="url(#mask3_154_317)">
<path fill-rule="evenodd" clip-rule="evenodd" d="M35.5789 36.1686C38.1777 33.5355 39.8909 30.3462 40.7239 26.9795C41.8046 22.6125 41.402 17.9468 39.5125 13.8044C38.5704 11.7388 37.2595 9.8031 35.5787 8.10005C32.9799 5.46703 29.8323 3.73096 26.5092 2.88673C20.0498 1.24586 12.9266 2.98193 7.87537 8.09979C18.1666 -2.32709 34.8517 -2.32709 45.1429 8.09979C50.1945 13.2179 51.9079 20.435 50.2884 26.9795C49.4552 30.3465 47.7417 33.5355 45.1429 36.1686C43.4621 37.8716 41.5516 39.1998 39.5128 40.1543C35.4241 42.0685 30.8191 42.4764 26.5092 41.3816C23.1863 40.5376 20.0382 38.8016 17.4394 36.1686C22.4485 41.2437 30.5698 41.2437 35.5789 36.1686Z" fill="url(#paint2_linear_154_317)"/>
</g>
<mask id="mask4_154_317" style="mask-type:alpha" maskUnits="userSpaceOnUse" x="0" y="2" width="42" height="44">
<path d="M7.87926 8.09968C12.9305 2.98182 20.0537 1.24576 26.513 2.88662C29.8362 3.73086 32.9838 5.46692 35.5825 8.09994C37.2634 9.80299 38.5743 11.7387 39.5164 13.8043C41.4059 17.9467 41.8085 22.6124 40.7278 26.9794C39.8948 30.3461 38.1815 33.5354 35.5828 36.1685C40.5916 31.0936 40.5916 22.8652 35.5825 17.7901C32.9838 15.1571 29.8362 13.421 26.513 12.5773C22.2031 11.482 17.5981 11.8899 13.5097 13.8043C11.4706 14.7591 9.56015 16.0873 7.87926 17.7903C5.2805 20.4233 3.56703 23.6124 2.73378 26.9794C1.11452 33.5237 2.82774 40.741 7.879 45.8588C-2.4122 35.432 -2.41195 18.5266 7.87926 8.09968Z" fill="white"/>
</mask>
<g mask="url(#mask4_154_317)">
<path fill-rule="evenodd" clip-rule="evenodd" d="M7.87926 8.09944C12.9305 2.98158 20.0537 1.24551 26.513 2.88638C29.8362 3.73061 32.9838 5.46668 35.5825 8.09969C37.2634 9.80275 38.5743 11.7384 39.5164 13.8041C41.4059 17.9464 41.8085 22.6121 40.7278 26.9791C39.8948 30.3458 38.1815 33.5352 35.5828 36.1682C40.5916 31.0933 40.5916 22.8649 35.5825 17.7898C32.9838 15.1568 29.8362 13.4207 26.513 12.577C22.2031 11.4817 17.5981 11.8897 13.5097 13.8041C11.4706 14.7589 9.56015 16.087 7.87926 17.7901C5.2805 20.4231 3.56703 23.6122 2.73378 26.9791C1.11452 33.5234 2.82774 40.7407 7.879 45.8586C-2.4122 35.4317 -2.41195 18.5263 7.87926 8.09944Z" fill="url(#paint3_linear_154_317)"/>
</g>
</g>
<path fill-rule="evenodd" clip-rule="evenodd" d="M74.208 12.651V16.6581H81.2483V18.1232H65.522V16.6581H72.3794V12.651H66.418V11.2035H72.3794V9.08524H68.7221V8.16732C67.7895 8.83811 66.802 9.47359 65.7963 10.0032C65.5768 9.61481 65.1014 9.01463 64.7357 8.67924C67.9175 7.09054 70.9896 4.33678 72.3794 2.04199L74.7566 2.18321C74.72 2.34208 74.5737 2.46565 74.3543 2.4833C76.1098 4.83105 79.3282 7.2141 82.1077 8.43211C81.6872 8.85576 81.2849 9.42063 80.9557 9.91489C79.9865 9.40298 78.9625 8.78515 77.9933 8.09671V9.08524H74.208V11.2035H80.2974V12.651H74.208ZM69.4535 7.6201H77.3533C75.7258 6.4021 74.2629 5.02522 73.312 3.73661C72.4342 4.98992 71.0628 6.36679 69.4535 7.6201ZM70.9347 15.9696L69.4353 16.6051C69.1975 15.7401 68.5027 14.3986 67.7895 13.4277L69.1975 12.8628C69.929 13.816 70.6787 15.1047 70.9347 15.9696ZM76.6767 16.6581L75.3966 16.0402C76.0549 15.1929 76.8778 13.8337 77.3167 12.8628L79.1636 13.6219C79.1088 13.7454 78.9442 13.7984 78.7248 13.7984C78.2127 14.6457 77.3533 15.8637 76.6767 16.6581ZM100.211 7.90254V9.43828H98.4192V17.0641C98.4192 18.4762 97.8523 18.6704 95.7128 18.6704C95.6763 18.2821 95.4934 17.7172 95.3105 17.3112C95.658 17.3112 95.9871 17.3288 96.2614 17.3288C96.9929 17.3288 97.066 17.3288 97.066 17.0641V9.43828H96.1151C95.9871 13.6042 95.6945 16.7993 93.1527 18.6528C92.9699 18.2997 92.531 17.7878 92.1836 17.5407C94.0305 16.2344 94.5425 14.1514 94.6888 11.2212C94.6339 11.2918 94.5425 11.3447 94.3596 11.3271C94.0488 12.6863 93.5367 14.2573 92.915 15.2282C92.7139 15.034 92.2933 14.6633 92.019 14.4868C92.531 13.6042 92.9516 12.1214 93.2076 10.7269L94.7071 11.1682L94.7619 9.43828H92.2384V7.90254H95.7311V5.74896H93.1893V4.24852H95.7311V2.13025L97.7426 2.25382C97.7243 2.39504 97.5963 2.4833 97.322 2.5186V4.24852H99.6993V5.74896H97.322V7.90254H100.211ZM109.391 7.90254V9.43828H106.813V17.0288C106.813 18.5115 106.246 18.6528 103.997 18.6528C103.96 18.2644 103.777 17.6642 103.594 17.2582C104.307 17.2759 104.929 17.2759 105.149 17.2759C105.35 17.2582 105.405 17.2229 105.405 17.0288V9.43828H104.381C104.253 13.6925 103.905 16.8346 101.071 18.6528C100.888 18.2997 100.449 17.7701 100.12 17.523C102.589 16.0049 102.936 13.3924 103.027 9.43828H100.595V7.90254H103.978V5.74896H101.29V4.24852H103.978V2.13025L105.935 2.25382C105.917 2.39504 105.807 2.4833 105.514 2.5186V4.24852H108.44V5.74896H105.514V7.90254H109.391ZM98.4192 10.974L99.553 10.6916C99.9736 11.5036 100.321 12.5274 100.522 13.3571C100.833 12.4921 101.089 11.5212 101.254 10.568L102.845 10.9564C102.79 11.0976 102.68 11.1682 102.461 11.1506C102.095 12.8452 101.436 14.7163 100.632 15.8637C100.412 15.6519 99.9553 15.2988 99.6627 15.1223C99.8821 14.8046 100.083 14.4162 100.266 13.9926L99.425 14.222C99.297 13.3394 98.8947 11.9979 98.4192 10.974ZM109.501 15.1047L108.202 15.4047C108.056 14.1867 107.526 12.2979 106.904 10.8681L108.111 10.5857C108.769 12.0155 109.336 13.869 109.501 15.1047ZM136.565 13.5336V14.9281H130.11C131.335 16.3933 133.584 17.0111 136.949 17.1523C136.583 17.5054 136.162 18.1761 135.961 18.6704C131.975 18.335 129.634 17.3112 128.299 14.9281H128.135C127.184 16.8169 125.191 18.0526 120.418 18.6704C120.29 18.2468 119.906 17.6113 119.613 17.2582C123.252 16.8522 125.099 16.1108 126.087 14.9281H119.924V13.5336H126.836C127.019 12.9511 127.129 12.2979 127.22 11.5566L129.396 11.7331C129.378 11.8919 129.214 11.9802 128.958 12.0332C128.866 12.5627 128.775 13.057 128.647 13.5336H132.907C132.121 13.2512 131.225 12.9687 130.457 12.7746L131.006 12.0332C130.932 11.6448 130.731 11.1506 130.548 10.7799C131.298 10.7975 132.011 10.7975 132.212 10.7975C132.432 10.7799 132.505 10.7269 132.505 10.5327V8.97933H128.702C129.378 9.49124 130.091 10.162 130.457 10.6739L129.232 11.4153C128.884 10.8681 128.116 10.0914 127.403 9.5442L128.372 8.97933H126.123V7.76132H127.001C126.836 7.42593 126.562 6.98462 126.306 6.70219C127.312 6.59627 128.299 6.4374 129.232 6.20792C128.848 5.89018 128.354 5.55479 127.915 5.30766L128.793 4.884C129.305 5.14879 129.927 5.53714 130.347 5.89018C130.676 5.80192 130.987 5.67836 131.298 5.55479C130.878 5.2194 130.311 4.8487 129.78 4.60157L130.622 4.10731C131.188 4.35444 131.847 4.74279 132.286 5.07818C132.798 4.79574 133.273 4.478 133.657 4.10731H129.652C128.921 4.478 128.043 4.8487 127.056 5.16644C126.873 4.86635 126.452 4.4427 126.141 4.24852C128.226 3.7013 129.762 2.94226 130.603 2.13025L132.249 2.43034C132.212 2.55391 132.103 2.62452 131.883 2.62452C131.719 2.76573 131.536 2.9246 131.353 3.06582H134.699L134.955 3.03052L135.943 3.45417C135.906 3.54243 135.833 3.59539 135.778 3.64835C134.206 6.10201 130.804 7.23175 127.129 7.74367V7.76132H132.505V6.45505L134.535 6.54332C134.517 6.68453 134.425 6.77279 134.151 6.8081V7.76132H136.821V8.97933H134.151V10.5857C134.151 11.6625 133.785 11.9626 132.158 12.0155C133.163 12.2979 134.279 12.651 134.937 12.9511L134.535 13.5336H136.565ZM123.892 8.89106H122.484C122.484 10.1091 122.192 11.6978 120.948 12.6686C120.655 12.4392 120.015 12.1038 119.613 11.9449C120.747 11.0976 120.948 9.84429 120.948 8.89106H119.759V7.56715H123.892V6.4021H120.637V2.64217L122.502 2.76573C122.484 2.90695 122.374 2.99521 122.118 3.03052V5.09583H123.892V2.13025L125.904 2.25382C125.885 2.39504 125.757 2.4833 125.483 2.5186V12.2803H123.892V8.89106Z" fill="#BDBDBD"/>
<path d="M70.472 29.9971H74.2103V30.2959C74.2103 30.9756 74.1302 31.5771 73.97 32.1006C73.8138 32.585 73.5501 33.0381 73.179 33.46C72.3392 34.4053 71.2708 34.8779 69.9739 34.8779C68.7083 34.8779 67.6243 34.4209 66.722 33.5068C65.8196 32.5889 65.3685 31.4873 65.3685 30.2021C65.3685 28.8896 65.8275 27.7764 66.7454 26.8623C67.6634 25.9443 68.7806 25.4854 70.097 25.4854C70.804 25.4854 71.4642 25.6299 72.0775 25.9189C72.6634 26.208 73.2396 26.6768 73.806 27.3252L72.8333 28.2568C72.0911 27.2686 71.1868 26.7744 70.1204 26.7744C69.1634 26.7744 68.3607 27.1045 67.7122 27.7646C67.0638 28.4131 66.7396 29.2256 66.7396 30.2021C66.7396 31.21 67.1009 32.04 67.8235 32.6924C68.4993 33.2979 69.2318 33.6006 70.0208 33.6006C70.6927 33.6006 71.2962 33.374 71.8314 32.9209C72.3665 32.4639 72.6653 31.917 72.7278 31.2803H70.472V29.9971ZM77.0417 30.1436C77.0417 28.8701 77.5085 27.7764 78.4421 26.8623C79.3718 25.9482 80.489 25.4912 81.7937 25.4912C83.0828 25.4912 84.1882 25.9521 85.1101 26.874C86.0359 27.7959 86.4988 28.9033 86.4988 30.1963C86.4988 31.4971 86.0339 32.6006 85.1042 33.5068C84.1707 34.417 83.0437 34.8721 81.7234 34.8721C80.5554 34.8721 79.5066 34.4678 78.5769 33.6592C77.5535 32.7646 77.0417 31.5928 77.0417 30.1436ZM78.4187 30.1611C78.4187 31.1611 78.7546 31.9834 79.4265 32.6279C80.0945 33.2725 80.866 33.5947 81.741 33.5947C82.6902 33.5947 83.491 33.2666 84.1433 32.6104C84.7957 31.9463 85.1218 31.1377 85.1218 30.1846C85.1218 29.2197 84.7996 28.4111 84.155 27.7588C83.5144 27.1025 82.7214 26.7744 81.7761 26.7744C80.8347 26.7744 80.0398 27.1025 79.3914 27.7588C78.7429 28.4072 78.4187 29.208 78.4187 30.1611ZM91.1408 25.6611V33.4248H93.801V34.708H89.7756V25.6611H91.1408ZM96.6559 34.708V25.6611H98.5543C99.4645 25.6611 100.183 25.751 100.711 25.9307C101.277 26.1064 101.791 26.4053 102.252 26.8271C103.185 27.6787 103.652 28.7979 103.652 30.1846C103.652 31.5752 103.166 32.7002 102.193 33.5596C101.705 33.9893 101.193 34.2881 100.658 34.4561C100.158 34.624 99.4489 34.708 98.5309 34.708H96.6559ZM98.0211 33.4248H98.6364C99.2496 33.4248 99.7594 33.3604 100.166 33.2314C100.572 33.0947 100.939 32.8779 101.267 32.5811C101.939 31.9678 102.275 31.1689 102.275 30.1846C102.275 29.1924 101.943 28.3877 101.279 27.7705C100.681 27.2197 99.8004 26.9443 98.6364 26.9443H98.0211V33.4248ZM111.927 26.9443H108.3V29.1182H111.821V30.4014H108.3V33.4248H111.927V34.708H106.935V25.6611H111.927V26.9443ZM120.543 34.708V25.6611H122.441C123.352 25.6611 124.07 25.751 124.598 25.9307C125.164 26.1064 125.678 26.4053 126.139 26.8271C127.072 27.6787 127.539 28.7979 127.539 30.1846C127.539 31.5752 127.053 32.7002 126.08 33.5596C125.592 33.9893 125.08 34.2881 124.545 34.4561C124.045 34.624 123.336 34.708 122.418 34.708H120.543ZM121.908 33.4248H122.523C123.137 33.4248 123.646 33.3604 124.053 33.2314C124.459 33.0947 124.826 32.8779 125.154 32.5811C125.826 31.9678 126.162 31.1689 126.162 30.1846C126.162 29.1924 125.83 28.3877 125.166 27.7705C124.568 27.2197 123.687 26.9443 122.523 26.9443H121.908V33.4248ZM135.814 26.9443H132.187V29.1182H135.708V30.4014H132.187V33.4248H135.814V34.708H130.822V25.6611H135.814V26.9443ZM144.282 27.0088L143.175 27.665C142.968 27.3057 142.77 27.0713 142.583 26.9619C142.388 26.8369 142.136 26.7744 141.827 26.7744C141.448 26.7744 141.134 26.8818 140.884 27.0967C140.634 27.3076 140.509 27.5732 140.509 27.8936C140.509 28.335 140.837 28.6904 141.493 28.96L142.395 29.3291C143.13 29.626 143.667 29.9893 144.007 30.4189C144.347 30.8447 144.516 31.3682 144.516 31.9893C144.516 32.8213 144.239 33.5088 143.684 34.0518C143.126 34.5986 142.432 34.8721 141.604 34.8721C140.819 34.8721 140.171 34.6396 139.659 34.1748C139.155 33.71 138.841 33.0557 138.716 32.2119L140.098 31.9072C140.161 32.4385 140.27 32.8057 140.427 33.0088C140.708 33.3994 141.118 33.5947 141.657 33.5947C142.083 33.5947 142.436 33.4521 142.718 33.167C142.999 32.8818 143.139 32.5205 143.139 32.083C143.139 31.9072 143.114 31.7471 143.063 31.6025C143.016 31.4541 142.94 31.3193 142.835 31.1982C142.733 31.0732 142.6 30.958 142.436 30.8525C142.272 30.7432 142.077 30.6396 141.85 30.542L140.977 30.1787C139.739 29.6553 139.12 28.8896 139.12 27.8818C139.12 27.2021 139.38 26.6338 139.899 26.1768C140.419 25.7158 141.065 25.4854 141.839 25.4854C142.882 25.4854 143.696 25.9932 144.282 27.0088ZM149.088 25.6611V34.708H147.723V25.6611H149.088ZM157.474 29.9971H161.213V30.2959C161.213 30.9756 161.133 31.5771 160.972 32.1006C160.816 32.585 160.552 33.0381 160.181 33.46C159.342 34.4053 158.273 34.8779 156.976 34.8779C155.711 34.8779 154.627 34.4209 153.724 33.5068C152.822 32.5889 152.371 31.4873 152.371 30.2021C152.371 28.8896 152.83 27.7764 153.748 26.8623C154.666 25.9443 155.783 25.4854 157.099 25.4854C157.806 25.4854 158.467 25.6299 159.08 25.9189C159.666 26.208 160.242 26.6768 160.808 27.3252L159.836 28.2568C159.093 27.2686 158.189 26.7744 157.123 26.7744C156.166 26.7744 155.363 27.1045 154.715 27.7646C154.066 28.4131 153.742 29.2256 153.742 30.2021C153.742 31.21 154.103 32.04 154.826 32.6924C155.502 33.2979 156.234 33.6006 157.023 33.6006C157.695 33.6006 158.299 33.374 158.834 32.9209C159.369 32.4639 159.668 31.917 159.73 31.2803H157.474V29.9971ZM164.495 34.708V25.0459L171.093 31.9482V25.6611H172.458V35.2588L165.86 28.374V34.708H164.495ZM71.1341 47.5107H67.261L66.2532 49.708H64.7825L69.2591 40.0928L73.5775 49.708H72.0833L71.1341 47.5107ZM70.5775 46.2275L69.2357 43.1514L67.8294 46.2275H70.5775ZM76.0164 40.6611L78.3718 46.708L80.8328 40.2217L83.1882 46.708L85.6902 40.6611H87.1726L83.1296 50.2822L80.8035 43.8721L78.3777 50.2881L74.5339 40.6611H76.0164ZM94.3986 47.5107H90.5256L89.5178 49.708H88.0471L92.5236 40.0928L96.842 49.708H95.3478L94.3986 47.5107ZM93.842 46.2275L92.5002 43.1514L91.0939 46.2275H93.842ZM102.603 45.8525L105.404 49.708H103.734L101.15 46.0049H100.904V49.708H99.5387V40.6611H101.138C102.334 40.6611 103.197 40.8857 103.728 41.335C104.314 41.835 104.607 42.4951 104.607 43.3154C104.607 43.9561 104.423 44.5068 104.056 44.9678C103.689 45.4287 103.205 45.7236 102.603 45.8525ZM100.904 44.8154H101.338C102.631 44.8154 103.277 44.3213 103.277 43.333C103.277 42.4072 102.648 41.9443 101.39 41.9443H100.904V44.8154ZM108.329 49.708V40.6611H110.228C111.138 40.6611 111.857 40.751 112.384 40.9307C112.95 41.1064 113.464 41.4053 113.925 41.8271C114.858 42.6787 115.325 43.7979 115.325 45.1846C115.325 46.5752 114.839 47.7002 113.866 48.5596C113.378 48.9893 112.866 49.2881 112.331 49.4561C111.831 49.624 111.122 49.708 110.204 49.708H108.329ZM109.694 48.4248H110.31C110.923 48.4248 111.433 48.3604 111.839 48.2314C112.245 48.0947 112.612 47.8779 112.94 47.5811C113.612 46.9678 113.948 46.1689 113.948 45.1846C113.948 44.1924 113.616 43.3877 112.952 42.7705C112.355 42.2197 111.474 41.9443 110.31 41.9443H109.694V48.4248Z" fill="#BDBDBD"/>
<defs>
<linearGradient id="paint0_linear_154_317" x1="20.6409" y1="33.9415" x2="50.0436" y2="30.4239" gradientUnits="userSpaceOnUse">
<stop stop-color="#FAFAFA"/>
<stop offset="1" stop-color="#C4C4C4"/>
</linearGradient>
<linearGradient id="paint1_linear_154_317" x1="17.0887" y1="19.8383" x2="24.8753" y2="51.278" gradientUnits="userSpaceOnUse">
<stop stop-color="#FAFAFA"/>
<stop offset="1" stop-color="#C4C4C4"/>
</linearGradient>
<linearGradient id="paint2_linear_154_317" x1="31.5501" y1="25.9752" x2="28.6619" y2="3.33847" gradientUnits="userSpaceOnUse">
<stop stop-color="#C4C4C4"/>
<stop offset="1" stop-color="#FAFAFA"/>
</linearGradient>
<linearGradient id="paint3_linear_154_317" x1="35.1642" y1="21.0919" x2="3.13638" y2="21.9463" gradientUnits="userSpaceOnUse">
<stop stop-color="#FAFAFA"/>
<stop offset="1" stop-color="#C4C4C4"/>
</linearGradient>
</defs>
</svg>
